<?xml version="1.0" encoding="UTF-8" standalone="no"?>
<!-- Created with Inkscape (http://www.inkscape.org/) -->

<svg
   xmlns:dc="http://purl.org/dc/elements/1.1/"
   xmlns:cc="http://creativecommons.org/ns#"
   xmlns:rdf="http://www.w3.org/1999/02/22-rdf-syntax-ns#"
   xmlns:svg="http://www.w3.org/2000/svg"
   xmlns="http://www.w3.org/2000/svg"
   xmlns:xlink="http://www.w3.org/1999/xlink"
   xmlns:sodipodi="http://sodipodi.sourceforge.net/DTD/sodipodi-0.dtd"
   xmlns:inkscape="http://www.inkscape.org/namespaces/inkscape"
   version="1.1"
   width="200"
   height="200"
   id="svg2"
   inkscape:version="0.48.2 r9819"
   sodipodi:docname="burger35.svg"
   inkscape:export-filename="/Users/adamwalzer/Dropbox/gottanom/gottanom a.1/img/burger35.png"
   inkscape:export-xdpi="90"
   inkscape:export-ydpi="90">
  <sodipodi:namedview
     pagecolor="#ffffff"
     bordercolor="#666666"
     borderopacity="1"
     objecttolerance="10"
     gridtolerance="10"
     guidetolerance="10"
     inkscape:pageopacity="0"
     inkscape:pageshadow="2"
     inkscape:window-width="1232"
     inkscape:window-height="756"
     id="namedview3136"
     showgrid="false"
     inkscape:zoom="2"
     inkscape:cx="120.69617"
     inkscape:cy="43.455744"
     inkscape:window-x="55"
     inkscape:window-y="0"
     inkscape:window-maximized="0"
     inkscape:current-layer="layer1" />
  <defs
     id="defs4">
    <pattern
       xlink:href="#Polkadots-med-71-109-882"
       id="pattern4782"
       patternTransform="scale(8.001756,9.5917554)" />
    <pattern
       id="Polkadots-med-71-109-882"
       patternTransform="translate(0,0) scale(10,10)"
       height="10"
       width="10"
       patternUnits="userSpaceOnUse">
      <circle
         id="circle4610"
         r="0.15"
         cy="0.810"
         cx="2.567"
         style="fill:#00f59d;stroke:none" />
      <circle
         id="circle4612"
         r="0.15"
         cy="2.33"
         cx="3.048"
         style="fill:#00f59d;stroke:none" />
      <circle
         id="circle4614"
         r="0.15"
         cy="2.415"
         cx="4.418"
         style="fill:#00f59d;stroke:none" />
      <circle
         id="circle4616"
         r="0.15"
         cy="3.029"
         cx="1.844"
         style="fill:#00f59d;stroke:none" />
      <circle
         id="circle4618"
         r="0.15"
         cy="1.363"
         cx="6.08"
         style="fill:#00f59d;stroke:none" />
      <circle
         id="circle4620"
         r="0.15"
         cy="4.413"
         cx="5.819"
         style="fill:#00f59d;stroke:none" />
      <circle
         id="circle4622"
         r="0.15"
         cy="4.048"
         cx="4.305"
         style="fill:#00f59d;stroke:none" />
      <circle
         id="circle4624"
         r="0.15"
         cy="3.045"
         cx="5.541"
         style="fill:#00f59d;stroke:none" />
      <circle
         id="circle4626"
         r="0.15"
         cy="5.527"
         cx="4.785"
         style="fill:#00f59d;stroke:none" />
      <circle
         id="circle4628"
         r="0.15"
         cy="5.184"
         cx="2.667"
         style="fill:#00f59d;stroke:none" />
      <circle
         id="circle4630"
         r="0.15"
         cy="1.448"
         cx="7.965"
         style="fill:#00f59d;stroke:none" />
      <circle
         id="circle4632"
         r="0.15"
         cy="5.049"
         cx="7.047"
         style="fill:#00f59d;stroke:none" />
      <circle
         id="circle4634"
         r="0.15"
         cy="0.895"
         cx="4.340"
         style="fill:#00f59d;stroke:none" />
      <circle
         id="circle4636"
         r="0.15"
         cy="0.340"
         cx="7.125"
         style="fill:#00f59d;stroke:none" />
      <circle
         id="circle4638"
         r="0.15"
         cy="1.049"
         cx="9.553"
         style="fill:#00f59d;stroke:none" />
      <circle
         id="circle4640"
         r="0.15"
         cy="2.689"
         cx="7.006"
         style="fill:#00f59d;stroke:none" />
      <circle
         id="circle4642"
         r="0.15"
         cy="2.689"
         cx="8.909"
         style="fill:#00f59d;stroke:none" />
      <circle
         id="circle4644"
         r="0.15"
         cy="4.407"
         cx="9.315"
         style="fill:#00f59d;stroke:none" />
      <circle
         id="circle4646"
         r="0.15"
         cy="3.870"
         cx="7.820"
         style="fill:#00f59d;stroke:none" />
      <circle
         id="circle4648"
         r="0.15"
         cy="5.948"
         cx="8.270"
         style="fill:#00f59d;stroke:none" />
      <circle
         id="circle4650"
         r="0.15"
         cy="7.428"
         cx="7.973"
         style="fill:#00f59d;stroke:none" />
      <circle
         id="circle4652"
         r="0.15"
         cy="8.072"
         cx="9.342"
         style="fill:#00f59d;stroke:none" />
      <circle
         id="circle4654"
         r="0.15"
         cy="9.315"
         cx="8.206"
         style="fill:#00f59d;stroke:none" />
      <circle
         id="circle4656"
         r="0.15"
         cy="9.475"
         cx="9.682"
         style="fill:#00f59d;stroke:none" />
      <circle
         id="circle4658"
         r="0.15"
         cy="6.186"
         cx="9.688"
         style="fill:#00f59d;stroke:none" />
      <circle
         id="circle4660"
         r="0.15"
         cy="6.296"
         cx="3.379"
         style="fill:#00f59d;stroke:none" />
      <circle
         id="circle4662"
         r="0.15"
         cy="8.204"
         cx="2.871"
         style="fill:#00f59d;stroke:none" />
      <circle
         id="circle4664"
         r="0.15"
         cy="8.719"
         cx="4.59"
         style="fill:#00f59d;stroke:none" />
      <circle
         id="circle4666"
         r="0.15"
         cy="9.671"
         cx="3.181"
         style="fill:#00f59d;stroke:none" />
      <circle
         id="circle4668"
         r="0.15"
         cy="7.315"
         cx="5.734"
         style="fill:#00f59d;stroke:none" />
      <circle
         id="circle4670"
         r="0.15"
         cy="6.513"
         cx="6.707"
         style="fill:#00f59d;stroke:none" />
      <circle
         id="circle4672"
         r="0.15"
         cy="9.670"
         cx="5.730"
         style="fill:#00f59d;stroke:none" />
      <circle
         id="circle4674"
         r="0.15"
         cy="8.373"
         cx="6.535"
         style="fill:#00f59d;stroke:none" />
      <circle
         id="circle4676"
         r="0.15"
         cy="7.154"
         cx="4.37"
         style="fill:#00f59d;stroke:none" />
      <circle
         id="circle4678"
         r="0.15"
         cy="7.25"
         cx="0.622"
         style="fill:#00f59d;stroke:none" />
      <circle
         id="circle4680"
         r="0.15"
         cy="5.679"
         cx="0.831"
         style="fill:#00f59d;stroke:none" />
      <circle
         id="circle4682"
         r="0.15"
         cy="8.519"
         cx="1.257"
         style="fill:#00f59d;stroke:none" />
      <circle
         id="circle4684"
         r="0.15"
         cy="6.877"
         cx="1.989"
         style="fill:#00f59d;stroke:none" />
      <circle
         id="circle4686"
         r="0.15"
         cy="3.181"
         cx="0.374"
         style="fill:#00f59d;stroke:none" />
      <circle
         id="circle4688"
         r="0.15"
         cy="1.664"
         cx="1.166"
         style="fill:#00f59d;stroke:none" />
      <circle
         id="circle4690"
         r="0.15"
         cy="0.093"
         cx="1.151"
         style="fill:#00f59d;stroke:none" />
      <circle
         id="circle4692"
         r="0.15"
         cy="10.093"
         cx="1.151"
         style="fill:#00f59d;stroke:none" />
      <circle
         id="circle4694"
         r="0.15"
         cy="4.451"
         cx="1.302"
         style="fill:#00f59d;stroke:none" />
      <circle
         id="circle4696"
         r="0.15"
         cy="3.763"
         cx="3.047"
         style="fill:#00f59d;stroke:none" />
    </pattern>
    <pattern
       xlink:href="#Polkadots-med-71-109-882-986"
       id="pattern4782-554"
       patternTransform="scale(8.001756,9.5917554)" />
    <pattern
       id="Polkadots-med-71-109-882-986"
       patternTransform="translate(0,0) scale(10,10)"
       height="10"
       width="10"
       patternUnits="userSpaceOnUse">
      <circle
         id="circle5377"
         r="0.15"
         cy="0.810"
         cx="2.567"
         style="fill:#000000;stroke:none" />
      <circle
         id="circle5379"
         r="0.15"
         cy="2.33"
         cx="3.048"
         style="fill:#000000;stroke:none" />
      <circle
         id="circle5381"
         r="0.15"
         cy="2.415"
         cx="4.418"
         style="fill:#000000;stroke:none" />
      <circle
         id="circle5383"
         r="0.15"
         cy="3.029"
         cx="1.844"
         style="fill:#000000;stroke:none" />
      <circle
         id="circle5385"
         r="0.15"
         cy="1.363"
         cx="6.08"
         style="fill:#000000;stroke:none" />
      <circle
         id="circle5387"
         r="0.15"
         cy="4.413"
         cx="5.819"
         style="fill:#000000;stroke:none" />
      <circle
         id="circle5389"
         r="0.15"
         cy="4.048"
         cx="4.305"
         style="fill:#000000;stroke:none" />
      <circle
         id="circle5391"
         r="0.15"
         cy="3.045"
         cx="5.541"
         style="fill:#000000;stroke:none" />
      <circle
         id="circle5393"
         r="0.15"
         cy="5.527"
         cx="4.785"
         style="fill:#000000;stroke:none" />
      <circle
         id="circle5395"
         r="0.15"
         cy="5.184"
         cx="2.667"
         style="fill:#000000;stroke:none" />
      <circle
         id="circle5397"
         r="0.15"
         cy="1.448"
         cx="7.965"
         style="fill:#000000;stroke:none" />
      <circle
         id="circle5399"
         r="0.15"
         cy="5.049"
         cx="7.047"
         style="fill:#000000;stroke:none" />
      <circle
         id="circle5401"
         r="0.15"
         cy="0.895"
         cx="4.340"
         style="fill:#000000;stroke:none" />
      <circle
         id="circle5403"
         r="0.15"
         cy="0.340"
         cx="7.125"
         style="fill:#000000;stroke:none" />
      <circle
         id="circle5405"
         r="0.15"
         cy="1.049"
         cx="9.553"
         style="fill:#000000;stroke:none" />
      <circle
         id="circle5407"
         r="0.15"
         cy="2.689"
         cx="7.006"
         style="fill:#000000;stroke:none" />
      <circle
         id="circle5409"
         r="0.15"
         cy="2.689"
         cx="8.909"
         style="fill:#000000;stroke:none" />
      <circle
         id="circle5411"
         r="0.15"
         cy="4.407"
         cx="9.315"
         style="fill:#000000;stroke:none" />
      <circle
         id="circle5413"
         r="0.15"
         cy="3.870"
         cx="7.820"
         style="fill:#000000;stroke:none" />
      <circle
         id="circle5415"
         r="0.15"
         cy="5.948"
         cx="8.270"
         style="fill:#000000;stroke:none" />
      <circle
         id="circle5417"
         r="0.15"
         cy="7.428"
         cx="7.973"
         style="fill:#000000;stroke:none" />
      <circle
         id="circle5419"
         r="0.15"
         cy="8.072"
         cx="9.342"
         style="fill:#000000;stroke:none" />
      <circle
         id="circle5421"
         r="0.15"
         cy="9.315"
         cx="8.206"
         style="fill:#000000;stroke:none" />
      <circle
         id="circle5423"
         r="0.15"
         cy="9.475"
         cx="9.682"
         style="fill:#000000;stroke:none" />
      <circle
         id="circle5425"
         r="0.15"
         cy="6.186"
         cx="9.688"
         style="fill:#000000;stroke:none" />
      <circle
         id="circle5427"
         r="0.15"
         cy="6.296"
         cx="3.379"
         style="fill:#000000;stroke:none" />
      <circle
         id="circle5429"
         r="0.15"
         cy="8.204"
         cx="2.871"
         style="fill:#000000;stroke:none" />
      <circle
         id="circle5431"
         r="0.15"
         cy="8.719"
         cx="4.59"
         style="fill:#000000;stroke:none" />
      <circle
         id="circle5433"
         r="0.15"
         cy="9.671"
         cx="3.181"
         style="fill:#000000;stroke:none" />
      <circle
         id="circle5435"
         r="0.15"
         cy="7.315"
         cx="5.734"
         style="fill:#000000;stroke:none" />
      <circle
         id="circle5437"
         r="0.15"
         cy="6.513"
         cx="6.707"
         style="fill:#000000;stroke:none" />
      <circle
         id="circle5439"
         r="0.15"
         cy="9.670"
         cx="5.730"
         style="fill:#000000;stroke:none" />
      <circle
         id="circle5441"
         r="0.15"
         cy="8.373"
         cx="6.535"
         style="fill:#000000;stroke:none" />
      <circle
         id="circle5443"
         r="0.15"
         cy="7.154"
         cx="4.37"
         style="fill:#000000;stroke:none" />
      <circle
         id="circle5445"
         r="0.15"
         cy="7.25"
         cx="0.622"
         style="fill:#000000;stroke:none" />
      <circle
         id="circle5447"
         r="0.15"
         cy="5.679"
         cx="0.831"
         style="fill:#000000;stroke:none" />
      <circle
         id="circle5449"
         r="0.15"
         cy="8.519"
         cx="1.257"
         style="fill:#000000;stroke:none" />
      <circle
         id="circle5451"
         r="0.15"
         cy="6.877"
         cx="1.989"
         style="fill:#000000;stroke:none" />
      <circle
         id="circle5453"
         r="0.15"
         cy="3.181"
         cx="0.374"
         style="fill:#000000;stroke:none" />
      <circle
         id="circle5455"
         r="0.15"
         cy="1.664"
         cx="1.166"
         style="fill:#000000;stroke:none" />
      <circle
         id="circle5457"
         r="0.15"
         cy="0.093"
         cx="1.151"
         style="fill:#000000;stroke:none" />
      <circle
         id="circle5459"
         r="0.15"
         cy="10.093"
         cx="1.151"
         style="fill:#000000;stroke:none" />
      <circle
         id="circle5461"
         r="0.15"
         cy="4.451"
         cx="1.302"
         style="fill:#000000;stroke:none" />
      <circle
         id="circle5463"
         r="0.15"
         cy="3.763"
         cx="3.047"
         style="fill:#000000;stroke:none" />
    </pattern>
    <pattern
       xlink:href="#Polkadots-med-71-109-882-194"
       id="pattern4782-452"
       patternTransform="scale(8.001756,9.5917554)" />
    <pattern
       id="Polkadots-med-71-109-882-194"
       patternTransform="translate(0,0) scale(10,10)"
       height="10"
       width="10"
       patternUnits="userSpaceOnUse">
      <circle
         id="circle5734"
         r="0.15"
         cy="0.810"
         cx="2.567"
         style="fill:#ff3a00;stroke:none" />
      <circle
         id="circle5736"
         r="0.15"
         cy="2.33"
         cx="3.048"
         style="fill:#ff3a00;stroke:none" />
      <circle
         id="circle5738"
         r="0.15"
         cy="2.415"
         cx="4.418"
         style="fill:#ff3a00;stroke:none" />
      <circle
         id="circle5740"
         r="0.15"
         cy="3.029"
         cx="1.844"
         style="fill:#ff3a00;stroke:none" />
      <circle
         id="circle5742"
         r="0.15"
         cy="1.363"
         cx="6.08"
         style="fill:#ff3a00;stroke:none" />
      <circle
         id="circle5744"
         r="0.15"
         cy="4.413"
         cx="5.819"
         style="fill:#ff3a00;stroke:none" />
      <circle
         id="circle5746"
         r="0.15"
         cy="4.048"
         cx="4.305"
         style="fill:#ff3a00;stroke:none" />
      <circle
         id="circle5748"
         r="0.15"
         cy="3.045"
         cx="5.541"
         style="fill:#ff3a00;stroke:none" />
      <circle
         id="circle5750"
         r="0.15"
         cy="5.527"
         cx="4.785"
         style="fill:#ff3a00;stroke:none" />
      <circle
         id="circle5752"
         r="0.15"
         cy="5.184"
         cx="2.667"
         style="fill:#ff3a00;stroke:none" />
      <circle
         id="circle5754"
         r="0.15"
         cy="1.448"
         cx="7.965"
         style="fill:#ff3a00;stroke:none" />
      <circle
         id="circle5756"
         r="0.15"
         cy="5.049"
         cx="7.047"
         style="fill:#ff3a00;stroke:none" />
      <circle
         id="circle5758"
         r="0.15"
         cy="0.895"
         cx="4.340"
         style="fill:#ff3a00;stroke:none" />
      <circle
         id="circle5760"
         r="0.15"
         cy="0.340"
         cx="7.125"
         style="fill:#ff3a00;stroke:none" />
      <circle
         id="circle5762"
         r="0.15"
         cy="1.049"
         cx="9.553"
         style="fill:#ff3a00;stroke:none" />
      <circle
         id="circle5764"
         r="0.15"
         cy="2.689"
         cx="7.006"
         style="fill:#ff3a00;stroke:none" />
      <circle
         id="circle5766"
         r="0.15"
         cy="2.689"
         cx="8.909"
         style="fill:#ff3a00;stroke:none" />
      <circle
         id="circle5768"
         r="0.15"
         cy="4.407"
         cx="9.315"
         style="fill:#ff3a00;stroke:none" />
      <circle
         id="circle5770"
         r="0.15"
         cy="3.870"
         cx="7.820"
         style="fill:#ff3a00;stroke:none" />
      <circle
         id="circle5772"
         r="0.15"
         cy="5.948"
         cx="8.270"
         style="fill:#ff3a00;stroke:none" />
      <circle
         id="circle5774"
         r="0.15"
         cy="7.428"
         cx="7.973"
         style="fill:#ff3a00;stroke:none" />
      <circle
         id="circle5776"
         r="0.15"
         cy="8.072"
         cx="9.342"
         style="fill:#ff3a00;stroke:none" />
      <circle
         id="circle5778"
         r="0.15"
         cy="9.315"
         cx="8.206"
         style="fill:#ff3a00;stroke:none" />
      <circle
         id="circle5780"
         r="0.15"
         cy="9.475"
         cx="9.682"
         style="fill:#ff3a00;stroke:none" />
      <circle
         id="circle5782"
         r="0.15"
         cy="6.186"
         cx="9.688"
         style="fill:#ff3a00;stroke:none" />
      <circle
         id="circle5784"
         r="0.15"
         cy="6.296"
         cx="3.379"
         style="fill:#ff3a00;stroke:none" />
      <circle
         id="circle5786"
         r="0.15"
         cy="8.204"
         cx="2.871"
         style="fill:#ff3a00;stroke:none" />
      <circle
         id="circle5788"
         r="0.15"
         cy="8.719"
         cx="4.59"
         style="fill:#ff3a00;stroke:none" />
      <circle
         id="circle5790"
         r="0.15"
         cy="9.671"
         cx="3.181"
         style="fill:#ff3a00;stroke:none" />
      <circle
         id="circle5792"
         r="0.15"
         cy="7.315"
         cx="5.734"
         style="fill:#ff3a00;stroke:none" />
      <circle
         id="circle5794"
         r="0.15"
         cy="6.513"
         cx="6.707"
         style="fill:#ff3a00;stroke:none" />
      <circle
         id="circle5796"
         r="0.15"
         cy="9.670"
         cx="5.730"
         style="fill:#ff3a00;stroke:none" />
      <circle
         id="circle5798"
         r="0.15"
         cy="8.373"
         cx="6.535"
         style="fill:#ff3a00;stroke:none" />
      <circle
         id="circle5800"
         r="0.15"
         cy="7.154"
         cx="4.37"
         style="fill:#ff3a00;stroke:none" />
      <circle
         id="circle5802"
         r="0.15"
         cy="7.25"
         cx="0.622"
         style="fill:#ff3a00;stroke:none" />
      <circle
         id="circle5804"
         r="0.15"
         cy="5.679"
         cx="0.831"
         style="fill:#ff3a00;stroke:none" />
      <circle
         id="circle5806"
         r="0.15"
         cy="8.519"
         cx="1.257"
         style="fill:#ff3a00;stroke:none" />
      <circle
         id="circle5808"
         r="0.15"
         cy="6.877"
         cx="1.989"
         style="fill:#ff3a00;stroke:none" />
      <circle
         id="circle5810"
         r="0.15"
         cy="3.181"
         cx="0.374"
         style="fill:#ff3a00;stroke:none" />
      <circle
         id="circle5812"
         r="0.15"
         cy="1.664"
         cx="1.166"
         style="fill:#ff3a00;stroke:none" />
      <circle
         id="circle5814"
         r="0.15"
         cy="0.093"
         cx="1.151"
         style="fill:#ff3a00;stroke:none" />
      <circle
         id="circle5816"
         r="0.15"
         cy="10.093"
         cx="1.151"
         style="fill:#ff3a00;stroke:none" />
      <circle
         id="circle5818"
         r="0.15"
         cy="4.451"
         cx="1.302"
         style="fill:#ff3a00;stroke:none" />
      <circle
         id="circle5820"
         r="0.15"
         cy="3.763"
         cx="3.047"
         style="fill:#ff3a00;stroke:none" />
    </pattern>
    <pattern
       patternTransform="matrix(20.2638,0,0,7.0907054,-61.824608,828.98192)"
       id="pattern7217-239"
       xlink:href="#Polkadots-medwhite-483"
       inkscape:collect="always" />
    <pattern
       inkscape:collect="always"
       patternUnits="userSpaceOnUse"
       width="10"
       height="10"
       patternTransform="translate(0,0) scale(10,10)"
       id="Polkadots-medwhite-483"
       inkscape:stockid="Polka dots, medium white">
      <circle
         style="fill:#ff3a00;stroke:none"
         cx="2.567"
         cy="0.810"
         r="0.15"
         id="circle9264" />
      <circle
         style="fill:#ff3a00;stroke:none"
         cx="3.048"
         cy="2.33"
         r="0.15"
         id="circle9266" />
      <circle
         style="fill:#ff3a00;stroke:none"
         cx="4.418"
         cy="2.415"
         r="0.15"
         id="circle9268" />
      <circle
         style="fill:#ff3a00;stroke:none"
         cx="1.844"
         cy="3.029"
         r="0.15"
         id="circle9270" />
      <circle
         style="fill:#ff3a00;stroke:none"
         cx="6.08"
         cy="1.363"
         r="0.15"
         id="circle9272" />
      <circle
         style="fill:#ff3a00;stroke:none"
         cx="5.819"
         cy="4.413"
         r="0.15"
         id="circle9274" />
      <circle
         style="fill:#ff3a00;stroke:none"
         cx="4.305"
         cy="4.048"
         r="0.15"
         id="circle9276" />
      <circle
         style="fill:#ff3a00;stroke:none"
         cx="5.541"
         cy="3.045"
         r="0.15"
         id="circle9278" />
      <circle
         style="fill:#ff3a00;stroke:none"
         cx="4.785"
         cy="5.527"
         r="0.15"
         id="circle9280" />
      <circle
         style="fill:#ff3a00;stroke:none"
         cx="2.667"
         cy="5.184"
         r="0.15"
         id="circle9282" />
      <circle
         style="fill:#ff3a00;stroke:none"
         cx="7.965"
         cy="1.448"
         r="0.15"
         id="circle9284" />
      <circle
         style="fill:#ff3a00;stroke:none"
         cx="7.047"
         cy="5.049"
         r="0.15"
         id="circle9286" />
      <circle
         style="fill:#ff3a00;stroke:none"
         cx="4.340"
         cy="0.895"
         r="0.15"
         id="circle9288" />
      <circle
         style="fill:#ff3a00;stroke:none"
         cx="7.125"
         cy="0.340"
         r="0.15"
         id="circle9290" />
      <circle
         style="fill:#ff3a00;stroke:none"
         cx="9.553"
         cy="1.049"
         r="0.15"
         id="circle9292" />
      <circle
         style="fill:#ff3a00;stroke:none"
         cx="7.006"
         cy="2.689"
         r="0.15"
         id="circle9294" />
      <circle
         style="fill:#ff3a00;stroke:none"
         cx="8.909"
         cy="2.689"
         r="0.15"
         id="circle9296" />
      <circle
         style="fill:#ff3a00;stroke:none"
         cx="9.315"
         cy="4.407"
         r="0.15"
         id="circle9298" />
      <circle
         style="fill:#ff3a00;stroke:none"
         cx="7.820"
         cy="3.870"
         r="0.15"
         id="circle9300" />
      <circle
         style="fill:#ff3a00;stroke:none"
         cx="8.270"
         cy="5.948"
         r="0.15"
         id="circle9302" />
      <circle
         style="fill:#ff3a00;stroke:none"
         cx="7.973"
         cy="7.428"
         r="0.15"
         id="circle9304" />
      <circle
         style="fill:#ff3a00;stroke:none"
         cx="9.342"
         cy="8.072"
         r="0.15"
         id="circle9306" />
      <circle
         style="fill:#ff3a00;stroke:none"
         cx="8.206"
         cy="9.315"
         r="0.15"
         id="circle9308" />
      <circle
         style="fill:#ff3a00;stroke:none"
         cx="9.682"
         cy="9.475"
         r="0.15"
         id="circle9310" />
      <circle
         style="fill:#ff3a00;stroke:none"
         cx="9.688"
         cy="6.186"
         r="0.15"
         id="circle9312" />
      <circle
         style="fill:#ff3a00;stroke:none"
         cx="3.379"
         cy="6.296"
         r="0.15"
         id="circle9314" />
      <circle
         style="fill:#ff3a00;stroke:none"
         cx="2.871"
         cy="8.204"
         r="0.15"
         id="circle9316" />
      <circle
         style="fill:#ff3a00;stroke:none"
         cx="4.59"
         cy="8.719"
         r="0.15"
         id="circle9318" />
      <circle
         style="fill:#ff3a00;stroke:none"
         cx="3.181"
         cy="9.671"
         r="0.15"
         id="circle9320" />
      <circle
         style="fill:#ff3a00;stroke:none"
         cx="5.734"
         cy="7.315"
         r="0.15"
         id="circle9322" />
      <circle
         style="fill:#ff3a00;stroke:none"
         cx="6.707"
         cy="6.513"
         r="0.15"
         id="circle9324" />
      <circle
         style="fill:#ff3a00;stroke:none"
         cx="5.730"
         cy="9.670"
         r="0.15"
         id="circle9326" />
      <circle
         style="fill:#ff3a00;stroke:none"
         cx="6.535"
         cy="8.373"
         r="0.15"
         id="circle9328" />
      <circle
         style="fill:#ff3a00;stroke:none"
         cx="4.37"
         cy="7.154"
         r="0.15"
         id="circle9330" />
      <circle
         style="fill:#ff3a00;stroke:none"
         cx="0.622"
         cy="7.25"
         r="0.15"
         id="circle9332" />
      <circle
         style="fill:#ff3a00;stroke:none"
         cx="0.831"
         cy="5.679"
         r="0.15"
         id="circle9334" />
      <circle
         style="fill:#ff3a00;stroke:none"
         cx="1.257"
         cy="8.519"
         r="0.15"
         id="circle9336" />
      <circle
         style="fill:#ff3a00;stroke:none"
         cx="1.989"
         cy="6.877"
         r="0.15"
         id="circle9338" />
      <circle
         style="fill:#ff3a00;stroke:none"
         cx="0.374"
         cy="3.181"
         r="0.15"
         id="circle9340" />
      <circle
         style="fill:#ff3a00;stroke:none"
         cx="1.166"
         cy="1.664"
         r="0.15"
         id="circle9342" />
      <circle
         style="fill:#ff3a00;stroke:none"
         cx="1.151"
         cy="0.093"
         r="0.15"
         id="circle9344" />
      <circle
         style="fill:#ff3a00;stroke:none"
         cx="1.151"
         cy="10.093"
         r="0.15"
         id="circle9346" />
      <circle
         style="fill:#ff3a00;stroke:none"
         cx="1.302"
         cy="4.451"
         r="0.15"
         id="circle9348" />
      <circle
         style="fill:#ff3a00;stroke:none"
         cx="3.047"
         cy="3.763"
         r="0.15"
         id="circle9350" />
    </pattern>
  </defs>
  <metadata
     id="metadata7">
    <rdf:RDF>
      <cc:Work
         rdf:about="">
        <dc:format>image/svg+xml</dc:format>
        <dc:type
           rdf:resource="http://purl.org/dc/dcmitype/StillImage" />
        <dc:title></dc:title>
      </cc:Work>
    </rdf:RDF>
  </metadata>
  <g
     id="layer1"
     transform="translate(0,-852.36218)">
    <path
       style="fill:#000000;fill-opacity:1;stroke:none;stroke-opacity:1;stroke-width:2;stroke-miterlimit:4;stroke-dasharray:none"
       d="M 102.46875 13.5 A 84.681871 39.909614 0 0 0 15.3125 53.375 L 100 53.375 L 184.6875 53.375 A 84.681871 39.909614 0 0 0 102.46875 13.5 z M 106.4375 18.875 C 106.58813 18.867073 106.75204 18.866175 106.90625 18.875 C 107.44265 18.9057 107.91286 19.08156 108.375 19.46875 C 108.78354 19.85286 108.99163 20.25673 108.96875 20.65625 C 108.88875 22.05456 106.61474 23.43486 102.125 24.78125 C 101.95742 23.00802 102.41661 21.49831 103.5625 20.28125 C 104.41438 19.383045 105.38311 18.930491 106.4375 18.875 z M 87.875 19.53125 C 88.478281 19.501495 89.089194 19.598475 89.65625 19.84375 C 90.149376 20.05704 90.54296 20.41499 90.84375 20.9375 C 91.09528 21.43868 91.12764 21.88272 90.96875 22.25 C 90.41274 23.5355 87.803919 24.06105 83.125 23.78125 C 83.577472 22.05855 84.536694 20.77999 86.03125 20.03125 C 86.664865 19.716705 87.271719 19.561005 87.875 19.53125 z M 121.3125 20.78125 C 122.54324 20.685344 123.70371 20.965538 124.75 21.65625 C 125.92786 22.44001 126.57741 23.4912 126.71875 24.71875 C 126.78025 25.25249 126.64623 25.75971 126.34375 26.28125 C 126.03514 26.74945 125.71006 26.98549 125.3125 27.03125 C 123.92111 27.19149 122.15665 25.19346 120.0625 21 C 120.49212 20.882935 120.90225 20.813219 121.3125 20.78125 z M 70.40625 25.21875 C 71.318172 25.208891 72.363321 25.248343 73.53125 25.34375 C 73.041367 27.05619 72.041757 28.31523 70.53125 29.03125 C 69.250619 29.63259 68.060659 29.64014 66.9375 29.125 C 66.449139 28.90103 66.039344 28.52894 65.75 28 C 65.509449 27.49346 65.489401 27.08249 65.65625 26.71875 C 66.094152 25.76394 67.670485 25.248328 70.40625 25.21875 z M 140.53125 26.90625 C 141.86327 26.888523 143.69231 27.161565 145.96875 27.71875 C 145.21468 29.33238 144.0421 30.40642 142.4375 30.875 C 141.07799 31.26663 139.8715 31.09223 138.84375 30.40625 C 138.39687 30.10799 138.07722 29.69299 137.875 29.125 C 137.71743 28.58684 137.74657 28.14534 137.96875 27.8125 C 138.35752 27.230025 139.19923 26.923977 140.53125 26.90625 z M 95.125 28.40625 C 95.275628 28.398323 95.439545 28.397425 95.59375 28.40625 C 96.13015 28.43695 96.60036 28.64406 97.0625 29.03125 C 97.47104 29.41536 97.67913 29.78798 97.65625 30.1875 C 97.57625 31.58581 95.30224 32.99736 90.8125 34.34375 C 90.64492 32.57052 91.10411 31.06081 92.25 29.84375 C 93.101883 28.945545 94.070606 28.461741 95.125 28.40625 z M 54.0625 28.53125 C 54.33111 30.29201 53.94949 31.81321 52.875 33.09375 C 51.96165 34.17422 50.86066 34.71876 49.625 34.71875 C 49.08773 34.71876 48.60851 34.54766 48.125 34.1875 C 47.69518 33.82736 47.46873 33.46268 47.46875 33.0625 C 47.46873 31.66191 49.657007 30.13194 54.0625 28.53125 z M 116.875 31.09375 C 117.47781 31.05564 118.0546 31.1376 118.625 31.375 C 119.12104 31.58141 119.53573 31.95046 119.84375 32.46875 C 120.10219 32.9664 120.12257 33.38052 119.96875 33.75 C 119.43061 35.04308 116.8386 35.62121 112.15625 35.40625 C 112.58482 33.67746 113.54723 32.39438 115.03125 31.625 C 115.66045 31.30171 116.27219 31.13186 116.875 31.09375 z M 155.28125 34.40625 C 155.67724 34.401095 156.06473 34.484453 156.46875 34.6875 C 156.95458 34.96753 157.24303 35.29339 157.3125 35.6875 C 157.55573 37.0668 155.65436 38.93987 151.59375 41.28125 C 151.02347 39.59388 151.13295 38.01017 151.96875 36.5625 C 152.68061 35.33984 153.65811 34.65206 154.875 34.4375 C 155.00727 34.414175 155.14925 34.407968 155.28125 34.40625 z M 73.09375 35.25 C 73.330242 37.01537 72.941386 38.5205 71.84375 39.78125 C 70.910871 40.84491 69.797954 41.36626 68.5625 41.34375 C 68.025319 41.33375 67.508119 41.15016 67.03125 40.78125 C 66.60806 40.41334 66.43019 40.02511 66.4375 39.625 C 66.46299 38.22465 68.65983 36.77018 73.09375 35.25 z M 84.9375 38.46875 C 85.511395 40.1549 85.395197 41.73804 84.5625 43.1875 C 83.853265 44.41166 82.872675 45.12659 81.65625 45.34375 C 81.127342 45.43815 80.601784 45.36326 80.0625 45.09375 C 79.576075 44.81475 79.320309 44.48771 79.25 44.09375 C 79.003823 42.71496 80.881916 40.81882 84.9375 38.46875 z M 134.84375 38.78125 C 136.16627 38.571145 138.42213 39.768186 141.5625 42.40625 C 140.17193 43.51925 138.64624 43.94651 137 43.65625 C 135.60761 43.4055 134.58656 42.72637 133.96875 41.65625 C 133.70009 41.19097 133.61734 40.66131 133.6875 40.0625 C 133.7845 39.51019 133.99718 39.16882 134.34375 38.96875 C 134.49537 38.881211 134.65482 38.811265 134.84375 38.78125 z M 99.9375 39.03125 C 101.71838 39.00065 103.1872 39.57637 104.3125 40.8125 C 105.26106 41.86217 105.63406 43.02545 105.46875 44.25 C 105.39685 44.78244 105.17154 45.25649 104.75 45.6875 C 104.33559 46.06527 103.92784 46.20981 103.53125 46.15625 C 102.14325 45.9689 100.93448 43.61128 99.9375 39.03125 z M 121.8125 40 C 122.72444 39.991742 123.73849 40.027542 124.90625 40.125 C 124.41336 41.83658 123.44926 43.06788 121.9375 43.78125 C 120.65582 44.38033 119.43475 44.39211 118.3125 43.875 C 117.82453 43.65017 117.44467 43.27944 117.15625 42.75 C 116.91659 42.24304 116.86376 41.83219 117.03125 41.46875 C 117.47083 40.514705 119.07669 40.024774 121.8125 40 z M 59 40.75 C 58.684166 42.50291 57.806161 43.82374 56.375 44.6875 C 55.161066 45.41413 53.950373 45.55625 52.78125 45.15625 C 52.272906 44.98233 51.872137 44.68479 51.53125 44.1875 C 51.241155 43.70762 51.151688 43.28487 51.28125 42.90625 C 51.73462 41.58106 54.313556 40.83839 59 40.75 z M 31.625 41.21875 C 32.411899 41.174686 33.195499 41.307735 33.96875 41.625 C 35.275683 42.16681 36.1245 43.04153 36.5 44.21875 C 36.663276 44.7306 36.664952 45.27366 36.46875 45.84375 C 36.256253 46.36268 35.943771 46.65965 35.5625 46.78125 C 34.228166 47.20689 32.113768 45.58572 29.25 41.875 C 30.047936 41.47951 30.838101 41.262814 31.625 41.21875 z M 164.90625 42.4375 C 166.27258 42.488014 168.37656 43.505958 171.25 45.53125 C 169.95861 46.75794 168.50863 47.33741 166.84375 47.1875 C 165.43513 47.05548 164.36242 46.45149 163.65625 45.4375 C 163.3492 44.99662 163.19952 44.4776 163.21875 43.875 C 163.26865 43.31647 163.45284 42.94744 163.78125 42.71875 C 164.06858 42.51864 164.45081 42.420662 164.90625 42.4375 z "
       transform="translate(0,852.36218)"
       id="path10174" />
    <path
       style="fill:#000000;fill-opacity:1;stroke:none;stroke-opacity:1;stroke-width:2;stroke-miterlimit:4;stroke-dasharray:none"
       d="m 39.923128,910.67347 c -5.802358,4e-5 -10.978693,1.20195 -15.545327,3.60294 -6.339596,3.40148 -9.416331,8.56971 -9.255151,15.49264 0.107447,5.32228 1.734876,9.36256 4.904675,12.08371 2.793706,2.44104 6.46023,3.65837 10.973173,3.65837 3.330947,0 6.674019,-0.67491 10.058741,-1.99548 3.384662,-1.32055 6.283274,-3.10802 8.70095,-5.34898 0.59094,-0.52021 0.886681,-2.11353 0.886721,-4.79468 -4e-5,-5.08214 -0.652028,-8.71872 -1.995122,-10.91968 -0.214939,-0.32011 -1.366808,-0.47113 -3.408334,-0.47115 -2.686298,2e-5 -5.289168,0.2404 -7.814229,0.72059 -2.954916,0.52024 -4.61175,1.18285 -4.987806,2.02319 -0.483549,1.16051 -0.720481,2.12205 -0.72046,2.88234 -2.1e-5,1.16052 0.532654,1.6567 1.607182,1.49662 1.181933,-0.16006 1.980945,-0.22171 2.410773,-0.22172 1.18193,1e-5 1.74401,0.39141 1.690311,1.19174 -0.05375,1.28055 -1.503058,2.01712 -4.350475,2.21719 -1.181977,0.12007 -2.335541,-0.0618 -3.463753,-0.58201 -1.396876,-0.68028 -2.07827,-1.68493 -2.078252,-2.9655 -1.8e-5,-0.64026 0.178106,-1.36141 0.5542,-2.16176 1.235664,-2.52106 2.359824,-4.16061 3.380624,-4.96098 1.719188,-1.44058 4.410271,-2.16174 8.063618,-2.16176 1.71918,2e-5 3.730567,0.15105 6.040788,0.47115 0.429767,0.04 0.637295,-0.36676 0.63733,-1.24716 -3.5e-5,-2.20091 -0.799048,-4.69411 -2.410773,-7.45532 -0.214934,-0.36012 -1.515521,-0.55426 -3.879404,-0.5543 z"
       id="path10172"
       inkscape:connector-curvature="0" />
    <path
       style="fill:#000000;fill-opacity:1;stroke:none;stroke-opacity:1;stroke-width:2;stroke-miterlimit:4;stroke-dasharray:none"
       d="m 117.1787,910.81205 c -10.74509,0.80037 -19.231706,1.44757 -25.410104,1.96776 -1.665491,0.04 -2.730841,0.21878 -3.214364,0.49886 -0.698433,0.36019 -1.052985,1.15841 -1.052981,2.43892 -4e-6,0.48023 0.05881,1.06577 0.16626,1.74603 0.268623,2.60113 0.474456,4.04344 0.581912,4.32354 0.214896,0.92041 0.68876,1.38576 1.440921,1.38574 0.483521,2e-5 1.460657,-0.22495 2.964974,-0.66516 1.558023,-0.44017 2.770397,-0.66513 3.630013,-0.66515 1.66547,2e-5 2.462788,0.73658 2.355353,2.21719 -0.161191,7.32313 -0.308215,13.51144 -0.415651,18.51357 -0.107465,1.12047 0.217683,1.91869 0.969852,2.43891 0.913315,0.64027 2.450835,0.9392 4.599865,0.85916 4.0831,-0.20008 6.12389,-1.22016 6.12392,-3.02092 -3e-5,-0.40017 -0.11765,-0.89635 -0.33252,-1.49661 -1.23571,-3.72158 -1.8566,-7.82351 -1.85658,-12.30543 -2e-5,-1.36056 0.147,-2.44228 0.41566,-3.24264 0.42977,-1.60066 1.67155,-2.38347 3.71314,-2.38349 0.37605,2e-5 0.96753,0.0309 1.77344,0.11087 0.85958,0.04 1.48046,0.0554 1.85657,0.0554 2.36389,-0.16005 3.66617,-0.28024 3.93483,-0.36029 1.3431,-0.28009 2.0228,-0.98583 2.02283,-2.10634 -3e-5,-0.32011 0.0605,-1.0875 0.22168,-2.32805 0.16114,-1.24049 0.24936,-2.23286 0.24939,-2.99321 -3e-5,-3.52146 -1.56865,-5.18874 -4.73841,-4.98868 z"
       id="path10170"
       inkscape:connector-curvature="0" />
    <path
       style="fill:#000000;fill-opacity:1;stroke:none;stroke-opacity:1;stroke-width:2;stroke-miterlimit:4;stroke-dasharray:none"
       d="m 153.42586,910.81205 c -10.74509,0.80037 -19.204,1.44757 -25.38239,1.96776 -1.6655,0.04 -2.73084,0.21878 -3.21437,0.49886 -0.69843,0.36019 -1.05298,1.15841 -1.05298,2.43892 0,0.48023 0.0588,1.06577 0.16626,1.74603 0.26862,2.60113 0.44675,4.04344 0.5542,4.32354 0.2149,0.92041 0.68877,1.38576 1.44092,1.38574 0.48352,2e-5 1.48838,-0.22495 2.99269,-0.66516 1.55802,-0.44017 2.7704,-0.66513 3.63001,-0.66515 1.66548,2e-5 2.43508,0.73658 2.32765,2.21719 -0.1612,7.32313 -0.28052,13.51144 -0.38795,18.51357 -0.10746,1.12047 0.18998,1.91869 0.94214,2.43891 0.91332,0.64027 2.45084,0.9392 4.59987,0.85916 4.0831,-0.20008 6.12389,-1.22016 6.12392,-3.02092 -3e-5,-0.40017 -0.0899,-0.89635 -0.30481,-1.49661 -1.23571,-3.72158 -1.8566,-7.82351 -1.85658,-12.30543 -2e-5,-1.36056 0.11929,-2.44228 0.38795,-3.24264 0.42977,-1.60066 1.67155,-2.38347 3.71314,-2.38349 0.37605,2e-5 0.96753,0.0309 1.77344,0.11087 0.85958,0.04 1.48046,0.0554 1.85657,0.0554 2.36389,-0.16005 3.66617,-0.28024 3.93483,-0.36029 1.3431,-0.28009 2.0228,-0.98583 2.02282,-2.10634 -2e-5,-0.32011 0.0882,-1.0875 0.2494,-2.32805 0.16113,-1.24049 0.24936,-2.23286 0.24939,-2.99321 -3e-5,-3.52146 -1.59637,-5.18874 -4.76612,-4.98868 z"
       id="path10168"
       inkscape:connector-curvature="0" />
    <path
       style="fill:#000000;fill-opacity:1;stroke:none;stroke-opacity:1;stroke-width:2;stroke-miterlimit:4;stroke-dasharray:none"
       d="M 68.5625 58.65625 C 64.26446 58.65629 60.633607 61.03679 57.625 65.71875 C 54.992453 69.88055 53.656246 74.31801 53.65625 79 C 53.656246 83.20179 54.952429 86.5864 57.53125 89.1875 C 60.16378 91.7886 63.679484 93.09375 68.03125 93.09375 C 73.403758 93.09375 77.731501 92.16205 81.0625 90.28125 C 85.467941 87.76018 87.687462 83.70986 87.6875 78.1875 C 87.687462 72.38505 85.654363 67.60538 81.625 63.84375 C 77.917925 60.40231 73.558932 58.65629 68.5625 58.65625 z M 71.625 71.28125 C 74.461647 71.28129 75.767588 73.39356 75.53125 77.53125 C 74.94022 80.26048 72.827072 81.59377 69.28125 81.59375 C 67.390075 81.59377 66.531209 80.55045 66.53125 78.4375 C 66.531209 76.76484 67.061195 75.18418 68.125 73.6875 C 69.188716 72.10286 70.3248 71.28129 71.625 71.28125 z "
       transform="translate(0,852.36218)"
       id="path10937" />
    <path
       style="fill:#000000;fill-opacity:1;stroke:none;stroke-opacity:1;stroke-width:2;stroke-miterlimit:4;stroke-dasharray:none"
       d="m 172.0625,913.01843 c -3.97569,3e-5 -8.06821,0.70196 -12.3125,2.0625 -0.21491,0.04 -0.30373,0.12121 -0.25,0.28125 l 1.59375,7.96875 c 0,0.1601 0.21767,0.25003 0.59375,0.25 0.21489,3e-5 0.88053,-0.11239 2.0625,-0.3125 1.23566,-0.24008 2.24783,-0.34373 3,-0.34375 1.61174,2e-5 2.73027,0.47712 3.375,1.4375 0.48351,0.68032 0.65237,1.55333 0.4375,2.59375 -5.21138,0.48022 -9.38394,1.78536 -12.5,3.90625 -2.90117,1.96084 -4.375,4.15273 -4.375,6.59375 0,0.92041 0.22645,1.8159 0.65625,2.65625 1.18195,2.36101 3.50785,3.53126 7,3.53125 2.52508,1e-5 4.85097,-0.47709 7,-1.4375 2.79369,-1.2005 5.00445,-1.83498 6.5625,-1.875 -0.0538,0.24011 -0.18259,0.82961 -0.34375,1.75 -0.0537,0.60026 -0.0937,1.04116 -0.0937,1.28125 0.0537,0.32014 0.23135,0.44627 0.5,0.40625 l 9.6875,-1.125 c 0.21487,-0.04 0.31246,-0.15244 0.3125,-0.3125 l 0.96875,-15.5 c 0.64467,-9.20389 -3.98957,-13.81247 -13.875,-13.8125 z m -0.40625,17.84375 c 0.26861,1.76076 -0.11301,3.28196 -1.1875,4.5625 -0.91335,1.08047 -2.01434,1.59376 -3.25,1.59375 -0.53727,1e-5 -1.04774,-0.13984 -1.53125,-0.5 -0.42982,-0.36014 -0.62502,-0.75607 -0.625,-1.15625 -2e-5,-1.40059 2.18826,-2.89931 6.59375,-4.5 z"
       id="path10164"
       inkscape:connector-curvature="0" />
    <path
       style="fill:#000000;fill-opacity:1;stroke:none;stroke-opacity:1;stroke-width:2;stroke-miterlimit:4;stroke-dasharray:none"
       d="m 172.21082,948.92459 c -0.67332,-8.4e-4 -1.42943,0.0123 -2.24452,0.0277 -2.8055,0.12345 -4.38706,0.21551 -4.76612,0.27715 -1.21322,0.18514 -2.24181,0.80813 -3.07582,1.85691 -0.60662,0.6787 -2.0131,4.02064 -4.21191,10.00508 -1.89564,5.24419 -3.40714,7.89252 -4.54446,7.95419 -1.28902,0.0617 -2.14983,-1.04301 -2.60473,-3.32579 -0.45498,-3.08476 -0.89559,-6.17196 -1.27467,-9.25679 -0.5308,-3.7017 -3.51882,-5.57065 -8.97805,-5.5707 -2.42636,5e-5 -5.44939,0.41746 -9.08889,1.21945 -2.19888,0.49363 -3.67539,1.3928 -4.4336,2.68835 -0.75825,1.23397 -1.44398,3.62757 -2.05055,7.20589 -1.81976,14.12837 -3.26124,26.01685 -4.32276,35.64138 -0.53076,2.83799 2.7651,4.24039 9.89248,4.24039 3.86697,0 7.7435,-0.3897 11.6105,-1.1917 1.28897,-0.2468 1.91196,-0.98328 1.91199,-2.21724 -3e-5,-1.17221 -0.7908,-3.36024 -2.38306,-6.56843 -1.51648,-3.20818 -2.27225,-5.37475 -2.27222,-6.48529 -3e-5,-1.54239 0.95852,-2.32805 2.85414,-2.32806 1.97137,10e-6 4.00083,2.30783 6.12391,6.8733 2.12301,4.56551 3.94238,6.79643 5.45887,6.73473 1.89554,10e-6 3.39976,-1.81977 4.46132,-5.45984 1.1373,-3.64004 2.27095,-5.45982 3.40833,-5.45984 1.66807,-0.0616 2.63393,1.53109 2.93727,4.73925 0.0758,0.74037 0.11078,3.4316 0.11084,8.12047 -6e-5,2.03595 1.64423,3.07635 4.90468,3.07635 0.90981,0 3.10705,-0.2547 6.59498,-0.7483 2.65374,-0.3702 4.50812,-0.8519 5.56972,-1.46888 2.12298,-1.29561 3.32665,-3.69549 3.63001,-7.15046 0.37905,-4.93565 -0.20894,-12.62593 -1.80116,-23.11424 -1.28905,-8.76077 -2.35266,-14.49631 -3.18665,-17.21097 -0.53082,-1.60404 -1.90227,-2.57382 -4.10108,-2.88235 -0.73932,-0.13878 -2.10885,-0.21919 -4.12879,-0.22172 z"
       id="path10158"
       inkscape:connector-curvature="0" />
    <path
       style="fill:#000000;fill-opacity:1;stroke:none;stroke-opacity:1;stroke-width:2;stroke-miterlimit:4;stroke-dasharray:none"
       d="M 91.25 96.6875 C 85.18413 96.68755 79.996079 100.28164 75.75 107.5 C 72.034659 113.9164 70.187495 120.75036 70.1875 127.96875 C 70.187495 134.44683 72.016731 139.70852 75.65625 143.71875 C 79.371567 147.72902 84.295806 149.71875 90.4375 149.71875 C 98.019779 149.71875 104.17392 148.27472 108.875 145.375 C 115.09244 141.48817 118.18744 135.2953 118.1875 126.78125 C 118.18744 117.83539 115.34293 110.4557 109.65625 104.65625 C 104.42441 99.35046 98.301517 96.68755 91.25 96.6875 z M 95.5625 116.125 C 99.56589 116.12507 101.39605 119.3707 101.0625 125.75 C 100.22838 129.9577 97.348008 132.03132 92.34375 132.03125 C 89.674716 132.03132 88.281188 130.38258 88.28125 127.125 C 88.281188 124.54616 89.061141 122.15124 90.5625 119.84375 C 92.063731 117.40067 93.727515 116.12507 95.5625 116.125 z "
       transform="translate(0,852.36218)"
       id="path10942" />
    <path
       style="fill:#000000;fill-opacity:1;stroke:none;stroke-opacity:1;stroke-width:2;stroke-miterlimit:4;stroke-dasharray:none"
       d="m 60.733362,949.61746 c -0.379168,5e-5 -3.059342,0.55242 -8.06362,1.66289 -3.108789,0.67872 -4.683035,1.8049 -4.682995,3.40895 -4e-5,0.43192 0.132721,1.03345 0.360231,1.77375 1.364774,5.42927 2.638481,11.9013 3.851694,19.42816 0.303248,1.9743 -0.144665,2.96552 -1.357791,2.96549 -0.909921,3e-5 -1.973525,-0.62295 -3.186654,-1.85689 -2.578023,-2.5295 -8.413996,-9.69512 -17.51274,-21.47907 -1.213191,-1.60404 -3.102589,-2.38343 -5.680557,-2.38348 -1.895592,5e-5 -4.743544,0.66593 -8.534689,2.02319 -1.137354,0.43191 -1.788062,1.14696 -1.939702,2.13405 l 0,3.04864 c -6e-6,3.20822 0.140062,9.21994 0.44336,18.04242 0.303286,9.93304 0.611132,16.17805 0.914432,18.70756 0.303285,2.46787 2.192683,3.68608 5.680556,3.68608 0.758217,0 3.808965,-0.4111 9.1166,-1.27487 1.592262,-0.24682 2.383039,-0.94037 2.383063,-2.05091 -2.4e-5,-0.55526 -0.140092,-1.36236 -0.443361,-2.4112 -0.530785,-1.41899 -0.838631,-2.36106 -0.914431,-2.85463 -0.606608,-2.59121 -0.914453,-4.48161 -0.914431,-5.65385 -2.2e-5,-1.85086 0.580652,-2.9127 1.718022,-3.1595 1.137322,-0.24677 2.481063,0.79363 4.073375,3.07635 1.819725,2.77633 3.674106,5.53819 5.569716,8.31448 2.502127,3.45498 6.34365,5.18273 11.499663,5.18273 2.047177,0 4.279439,-0.25475 6.705827,-0.74829 2.426286,-0.55531 3.832754,-1.38386 4.211925,-2.49439 0.07577,-0.18508 0.180818,-2.00487 0.33252,-5.45984 l 0,-38.02488 c -5.5e-5,-2.40608 -1.203729,-3.60289 -3.630013,-3.60294 z"
       id="path10154"
       inkscape:connector-curvature="0" />
    <path
       style="fill:#000000;fill-opacity:1;stroke:none"
       d="m 15.3125,155.375 c 0,7.89496 9.127034,15.7413 24.804395,21.32388 15.677361,5.58257 37.71197,8.83262 59.883105,8.83262 22.17113,0 44.20574,-3.25005 59.88311,-8.83262 15.67736,-5.58258 24.80439,-13.42892 24.80439,-21.32388 l -84.6875,0 z"
       transform="translate(0,852.36218)"
       id="path2985"
       inkscape:connector-curvature="0"
       sodipodi:nodetypes="csssccc" />
    <g
       style="font-size:78.80221558px;font-style:normal;font-variant:normal;font-weight:normal;font-stretch:normal;line-height:125%;letter-spacing:0px;word-spacing:0px;fill:#003f1f;fill-opacity:1;stroke:none;font-family:Cheeseburger;-inkscape-font-specification:Cheeseburger"
       id="text2992"
       transform="matrix(1.1720096,0,0,0.80094517,-0.27682029,62.681739)" />
    <g
       id="g5251"
       style="stroke:#000000;stroke-opacity:1;fill:#ffffff;stroke-width:2;stroke-miterlimit:4;stroke-dasharray:none;fill-opacity:1">
      <g
         id="text3496"
         style="font-size:40px;font-style:normal;font-variant:normal;font-weight:normal;font-stretch:normal;line-height:125%;letter-spacing:0px;word-spacing:0px;fill:#ffffff;fill-opacity:1;stroke:#000000;font-family:Cheeseburger;-inkscape-font-specification:Cheeseburger;stroke-opacity:1;stroke-width:2;stroke-miterlimit:4;stroke-dasharray:none" />
    </g>
  </g>
</svg>
