<?xml version="1.0" encoding="UTF-8" standalone="no"?>
<!-- Created with Inkscape (http://www.inkscape.org/) -->

<svg
   xmlns:dc="http://purl.org/dc/elements/1.1/"
   xmlns:cc="http://creativecommons.org/ns#"
   xmlns:rdf="http://www.w3.org/1999/02/22-rdf-syntax-ns#"
   xmlns:svg="http://www.w3.org/2000/svg"
   xmlns="http://www.w3.org/2000/svg"
   xmlns:sodipodi="http://sodipodi.sourceforge.net/DTD/sodipodi-0.dtd"
   xmlns:inkscape="http://www.inkscape.org/namespaces/inkscape"
   width="200"
   height="200"
   id="svg2"
   version="1.1"
   inkscape:version="0.48.2 r9819"
   sodipodi:docname="burger2.svg">
  <sodipodi:namedview
     id="base"
     pagecolor="#ffffff"
     bordercolor="#666666"
     borderopacity="1.0"
     inkscape:pageopacity="0.0"
     inkscape:pageshadow="2"
     inkscape:zoom="1.979899"
     inkscape:cx="53.501712"
     inkscape:cy="125.74859"
     inkscape:document-units="px"
     inkscape:current-layer="layer1"
     showgrid="false"
     inkscape:window-width="1228"
     inkscape:window-height="756"
     inkscape:window-x="55"
     inkscape:window-y="0"
     inkscape:window-maximized="0" />
  <defs
     id="defs4">
    <pattern
       inkscape:collect="always"
       patternUnits="userSpaceOnUse"
       width="10"
       height="10"
       patternTransform="translate(0,0) scale(10,10)"
       id="Polkadots-med"
       inkscape:stockid="Polka dots, medium">
      <circle
         style="fill:#005c2d;stroke:none"
         cx="2.567"
         cy="0.810"
         r="0.15"
         id="circle4759" />
      <circle
         style="fill:#005c2d;stroke:none"
         cx="3.048"
         cy="2.33"
         r="0.15"
         id="circle4761" />
      <circle
         style="fill:#005c2d;stroke:none"
         cx="4.418"
         cy="2.415"
         r="0.15"
         id="circle4763" />
      <circle
         style="fill:#005c2d;stroke:none"
         cx="1.844"
         cy="3.029"
         r="0.15"
         id="circle4765" />
      <circle
         style="fill:#005c2d;stroke:none"
         cx="6.08"
         cy="1.363"
         r="0.15"
         id="circle4767" />
      <circle
         style="fill:#005c2d;stroke:none"
         cx="5.819"
         cy="4.413"
         r="0.15"
         id="circle4769" />
      <circle
         style="fill:#005c2d;stroke:none"
         cx="4.305"
         cy="4.048"
         r="0.15"
         id="circle4771" />
      <circle
         style="fill:#005c2d;stroke:none"
         cx="5.541"
         cy="3.045"
         r="0.15"
         id="circle4773" />
      <circle
         style="fill:#005c2d;stroke:none"
         cx="4.785"
         cy="5.527"
         r="0.15"
         id="circle4775" />
      <circle
         style="fill:#005c2d;stroke:none"
         cx="2.667"
         cy="5.184"
         r="0.15"
         id="circle4777" />
      <circle
         style="fill:#005c2d;stroke:none"
         cx="7.965"
         cy="1.448"
         r="0.15"
         id="circle4779" />
      <circle
         style="fill:#005c2d;stroke:none"
         cx="7.047"
         cy="5.049"
         r="0.15"
         id="circle4781" />
      <circle
         style="fill:#005c2d;stroke:none"
         cx="4.340"
         cy="0.895"
         r="0.15"
         id="circle4783" />
      <circle
         style="fill:#005c2d;stroke:none"
         cx="7.125"
         cy="0.340"
         r="0.15"
         id="circle4785" />
      <circle
         style="fill:#005c2d;stroke:none"
         cx="9.553"
         cy="1.049"
         r="0.15"
         id="circle4787" />
      <circle
         style="fill:#005c2d;stroke:none"
         cx="7.006"
         cy="2.689"
         r="0.15"
         id="circle4789" />
      <circle
         style="fill:#005c2d;stroke:none"
         cx="8.909"
         cy="2.689"
         r="0.15"
         id="circle4791" />
      <circle
         style="fill:#005c2d;stroke:none"
         cx="9.315"
         cy="4.407"
         r="0.15"
         id="circle4793" />
      <circle
         style="fill:#005c2d;stroke:none"
         cx="7.820"
         cy="3.870"
         r="0.15"
         id="circle4795" />
      <circle
         style="fill:#005c2d;stroke:none"
         cx="8.270"
         cy="5.948"
         r="0.15"
         id="circle4797" />
      <circle
         style="fill:#005c2d;stroke:none"
         cx="7.973"
         cy="7.428"
         r="0.15"
         id="circle4799" />
      <circle
         style="fill:#005c2d;stroke:none"
         cx="9.342"
         cy="8.072"
         r="0.15"
         id="circle4801" />
      <circle
         style="fill:#005c2d;stroke:none"
         cx="8.206"
         cy="9.315"
         r="0.15"
         id="circle4803" />
      <circle
         style="fill:#005c2d;stroke:none"
         cx="9.682"
         cy="9.475"
         r="0.15"
         id="circle4805" />
      <circle
         style="fill:#005c2d;stroke:none"
         cx="9.688"
         cy="6.186"
         r="0.15"
         id="circle4807" />
      <circle
         style="fill:#005c2d;stroke:none"
         cx="3.379"
         cy="6.296"
         r="0.15"
         id="circle4809" />
      <circle
         style="fill:#005c2d;stroke:none"
         cx="2.871"
         cy="8.204"
         r="0.15"
         id="circle4811" />
      <circle
         style="fill:#005c2d;stroke:none"
         cx="4.59"
         cy="8.719"
         r="0.15"
         id="circle4813" />
      <circle
         style="fill:#005c2d;stroke:none"
         cx="3.181"
         cy="9.671"
         r="0.15"
         id="circle4815" />
      <circle
         style="fill:#005c2d;stroke:none"
         cx="5.734"
         cy="7.315"
         r="0.15"
         id="circle4817" />
      <circle
         style="fill:#005c2d;stroke:none"
         cx="6.707"
         cy="6.513"
         r="0.15"
         id="circle4819" />
      <circle
         style="fill:#005c2d;stroke:none"
         cx="5.730"
         cy="9.670"
         r="0.15"
         id="circle4821" />
      <circle
         style="fill:#005c2d;stroke:none"
         cx="6.535"
         cy="8.373"
         r="0.15"
         id="circle4823" />
      <circle
         style="fill:#005c2d;stroke:none"
         cx="4.37"
         cy="7.154"
         r="0.15"
         id="circle4825" />
      <circle
         style="fill:#005c2d;stroke:none"
         cx="0.622"
         cy="7.25"
         r="0.15"
         id="circle4827" />
      <circle
         style="fill:#005c2d;stroke:none"
         cx="0.831"
         cy="5.679"
         r="0.15"
         id="circle4829" />
      <circle
         style="fill:#005c2d;stroke:none"
         cx="1.257"
         cy="8.519"
         r="0.15"
         id="circle4831" />
      <circle
         style="fill:#005c2d;stroke:none"
         cx="1.989"
         cy="6.877"
         r="0.15"
         id="circle4833" />
      <circle
         style="fill:#005c2d;stroke:none"
         cx="0.374"
         cy="3.181"
         r="0.15"
         id="circle4835" />
      <circle
         style="fill:#005c2d;stroke:none"
         cx="1.166"
         cy="1.664"
         r="0.15"
         id="circle4837" />
      <circle
         style="fill:#005c2d;stroke:none"
         cx="1.151"
         cy="0.093"
         r="0.15"
         id="circle4839" />
      <circle
         style="fill:#005c2d;stroke:none"
         cx="1.151"
         cy="10.093"
         r="0.15"
         id="circle4841" />
      <circle
         style="fill:#005c2d;stroke:none"
         cx="1.302"
         cy="4.451"
         r="0.15"
         id="circle4843" />
      <circle
         style="fill:#005c2d;stroke:none"
         cx="3.047"
         cy="3.763"
         r="0.15"
         id="circle4845" />
    </pattern>
    <pattern
       inkscape:collect="always"
       patternUnits="userSpaceOnUse"
       width="10"
       height="10"
       patternTransform="translate(0,0) scale(10,10)"
       id="Polkadots-med-71"
       inkscape:stockid="Polka dots, medium">
      <circle
         style="fill:#005c2d;stroke:none"
         cx="2.567"
         cy="0.810"
         r="0.15"
         id="circle6601" />
      <circle
         style="fill:#005c2d;stroke:none"
         cx="3.048"
         cy="2.33"
         r="0.15"
         id="circle6603" />
      <circle
         style="fill:#005c2d;stroke:none"
         cx="4.418"
         cy="2.415"
         r="0.15"
         id="circle6605" />
      <circle
         style="fill:#005c2d;stroke:none"
         cx="1.844"
         cy="3.029"
         r="0.15"
         id="circle6607" />
      <circle
         style="fill:#005c2d;stroke:none"
         cx="6.08"
         cy="1.363"
         r="0.15"
         id="circle6609" />
      <circle
         style="fill:#005c2d;stroke:none"
         cx="5.819"
         cy="4.413"
         r="0.15"
         id="circle6611" />
      <circle
         style="fill:#005c2d;stroke:none"
         cx="4.305"
         cy="4.048"
         r="0.15"
         id="circle6613" />
      <circle
         style="fill:#005c2d;stroke:none"
         cx="5.541"
         cy="3.045"
         r="0.15"
         id="circle6615" />
      <circle
         style="fill:#005c2d;stroke:none"
         cx="4.785"
         cy="5.527"
         r="0.15"
         id="circle6617" />
      <circle
         style="fill:#005c2d;stroke:none"
         cx="2.667"
         cy="5.184"
         r="0.15"
         id="circle6619" />
      <circle
         style="fill:#005c2d;stroke:none"
         cx="7.965"
         cy="1.448"
         r="0.15"
         id="circle6621" />
      <circle
         style="fill:#005c2d;stroke:none"
         cx="7.047"
         cy="5.049"
         r="0.15"
         id="circle6623" />
      <circle
         style="fill:#005c2d;stroke:none"
         cx="4.340"
         cy="0.895"
         r="0.15"
         id="circle6625" />
      <circle
         style="fill:#005c2d;stroke:none"
         cx="7.125"
         cy="0.340"
         r="0.15"
         id="circle6627" />
      <circle
         style="fill:#005c2d;stroke:none"
         cx="9.553"
         cy="1.049"
         r="0.15"
         id="circle6629" />
      <circle
         style="fill:#005c2d;stroke:none"
         cx="7.006"
         cy="2.689"
         r="0.15"
         id="circle6631" />
      <circle
         style="fill:#005c2d;stroke:none"
         cx="8.909"
         cy="2.689"
         r="0.15"
         id="circle6633" />
      <circle
         style="fill:#005c2d;stroke:none"
         cx="9.315"
         cy="4.407"
         r="0.15"
         id="circle6635" />
      <circle
         style="fill:#005c2d;stroke:none"
         cx="7.820"
         cy="3.870"
         r="0.15"
         id="circle6637" />
      <circle
         style="fill:#005c2d;stroke:none"
         cx="8.270"
         cy="5.948"
         r="0.15"
         id="circle6639" />
      <circle
         style="fill:#005c2d;stroke:none"
         cx="7.973"
         cy="7.428"
         r="0.15"
         id="circle6641" />
      <circle
         style="fill:#005c2d;stroke:none"
         cx="9.342"
         cy="8.072"
         r="0.15"
         id="circle6643" />
      <circle
         style="fill:#005c2d;stroke:none"
         cx="8.206"
         cy="9.315"
         r="0.15"
         id="circle6645" />
      <circle
         style="fill:#005c2d;stroke:none"
         cx="9.682"
         cy="9.475"
         r="0.15"
         id="circle6647" />
      <circle
         style="fill:#005c2d;stroke:none"
         cx="9.688"
         cy="6.186"
         r="0.15"
         id="circle6649" />
      <circle
         style="fill:#005c2d;stroke:none"
         cx="3.379"
         cy="6.296"
         r="0.15"
         id="circle6651" />
      <circle
         style="fill:#005c2d;stroke:none"
         cx="2.871"
         cy="8.204"
         r="0.15"
         id="circle6653" />
      <circle
         style="fill:#005c2d;stroke:none"
         cx="4.59"
         cy="8.719"
         r="0.15"
         id="circle6655" />
      <circle
         style="fill:#005c2d;stroke:none"
         cx="3.181"
         cy="9.671"
         r="0.15"
         id="circle6657" />
      <circle
         style="fill:#005c2d;stroke:none"
         cx="5.734"
         cy="7.315"
         r="0.15"
         id="circle6659" />
      <circle
         style="fill:#005c2d;stroke:none"
         cx="6.707"
         cy="6.513"
         r="0.15"
         id="circle6661" />
      <circle
         style="fill:#005c2d;stroke:none"
         cx="5.730"
         cy="9.670"
         r="0.15"
         id="circle6663" />
      <circle
         style="fill:#005c2d;stroke:none"
         cx="6.535"
         cy="8.373"
         r="0.15"
         id="circle6665" />
      <circle
         style="fill:#005c2d;stroke:none"
         cx="4.37"
         cy="7.154"
         r="0.15"
         id="circle6667" />
      <circle
         style="fill:#005c2d;stroke:none"
         cx="0.622"
         cy="7.25"
         r="0.15"
         id="circle6669" />
      <circle
         style="fill:#005c2d;stroke:none"
         cx="0.831"
         cy="5.679"
         r="0.15"
         id="circle6671" />
      <circle
         style="fill:#005c2d;stroke:none"
         cx="1.257"
         cy="8.519"
         r="0.15"
         id="circle6673" />
      <circle
         style="fill:#005c2d;stroke:none"
         cx="1.989"
         cy="6.877"
         r="0.15"
         id="circle6675" />
      <circle
         style="fill:#005c2d;stroke:none"
         cx="0.374"
         cy="3.181"
         r="0.15"
         id="circle6677" />
      <circle
         style="fill:#005c2d;stroke:none"
         cx="1.166"
         cy="1.664"
         r="0.15"
         id="circle6679" />
      <circle
         style="fill:#005c2d;stroke:none"
         cx="1.151"
         cy="0.093"
         r="0.15"
         id="circle6681" />
      <circle
         style="fill:#005c2d;stroke:none"
         cx="1.151"
         cy="10.093"
         r="0.15"
         id="circle6683" />
      <circle
         style="fill:#005c2d;stroke:none"
         cx="1.302"
         cy="4.451"
         r="0.15"
         id="circle6685" />
      <circle
         style="fill:#005c2d;stroke:none"
         cx="3.047"
         cy="3.763"
         r="0.15"
         id="circle6687" />
    </pattern>
  </defs>
  <metadata
     id="metadata7">
    <rdf:RDF>
      <cc:Work
         rdf:about="">
        <dc:format>image/svg+xml</dc:format>
        <dc:type
           rdf:resource="http://purl.org/dc/dcmitype/StillImage" />
        <dc:title />
      </cc:Work>
    </rdf:RDF>
  </metadata>
  <g
     transform="translate(0,-852.36218)"
     id="layer1"
     inkscape:groupmode="layer"
     inkscape:label="Layer 1">
    <path
       sodipodi:end="3.1415927"
       sodipodi:start="0"
       transform="matrix(2.6898912,0,0,1.0387887,-197.51983,899.3834)"
       d="m 147.48227,109.59135 c 0,20.36305 -16.50752,36.87056 -36.87057,36.87056 -20.36305,0 -36.870565,-16.50751 -36.870565,-36.87056 0,0 0,0 0,0 l 36.870565,0 z"
       sodipodi:ry="36.870567"
       sodipodi:rx="36.870567"
       sodipodi:cy="109.59135"
       sodipodi:cx="110.6117"
       id="path2985"
       style="fill:none;stroke:#005c2d;stroke-opacity:1;fill-opacity:1;stroke-width:1.00024251000000008;stroke-miterlimit:4;stroke-dasharray:none;fill-rule:nonzero"
       sodipodi:type="arc" />
    <path
       sodipodi:end="6.2831853"
       sodipodi:start="3.1415927"
       transform="matrix(2.4688332,0,0,1.2026039,-96.400487,808.88338)"
       d="m 39.39595,77.013929 c 10e-7,-22.176201 17.977365,-40.153563 40.153567,-40.153562 22.176203,1e-6 40.153563,17.977364 40.153563,40.153564 l -40.153565,0 z"
       sodipodi:ry="40.153564"
       sodipodi:rx="40.153564"
       sodipodi:cy="77.013931"
       sodipodi:cx="79.549515"
       id="path3755"
       style="fill:url(#Polkadots-med-71);stroke:#005c2d;stroke-opacity:1;fill-opacity:1"
       sodipodi:type="arc" />
    <g
       transform="scale(1.1643027,0.85888318)"
       style="font-size:78.80221558px;font-style:normal;font-variant:normal;font-weight:normal;font-stretch:normal;line-height:125%;letter-spacing:0px;word-spacing:0px;fill:#005c2d;fill-opacity:1;stroke:none;font-family:Cheeseburger;-inkscape-font-specification:Cheeseburger"
       id="text2992">
      <path
         d="m 34.980242,1086.9505 c -2.364102,2.9419 -5.200979,5.2797 -8.510639,7.0134 -3.309719,1.7336 -6.593141,2.6004 -9.850277,2.6004 -4.412939,0 -7.9853026,-1.6023 -10.7171011,-4.8069 -3.0995596,-3.5724 -4.7018697,-8.8521 -4.8069351,-15.8393 -0.15760839,-9.0884 2.8631402,-15.8654 9.0622552,-20.3309 4.465441,-3.1521 9.535045,-4.7281 15.208827,-4.7282 2.311501,10e-5 3.572335,0.2365 3.782507,0.7093 1.57601,3.6249 2.364031,6.8821 2.364066,9.7714 -3.5e-5,1.1558 -0.210174,1.7075 -0.630418,1.6549 -2.259028,-0.4203 -4.229082,-0.6304 -5.910166,-0.6304 -3.572391,0 -6.199129,0.9456 -7.880221,2.8368 -0.998181,1.0508 -2.101411,3.231 -3.309694,6.5406 -0.36776,1.0508 -0.551631,1.9964 -0.551615,2.8369 -1.6e-5,1.6811 0.682936,2.9682 2.048858,3.8613 1.103211,0.683 2.232709,0.9457 3.388495,0.788 2.78432,-0.2626 4.202759,-1.2345 4.255319,-2.9156 0.05251,-1.0507 -0.499106,-1.5761 -1.654846,-1.5761 -0.420302,0 -1.208324,0.1051 -2.364067,0.3152 -1.050717,0.2102 -1.576064,-0.4465 -1.576044,-1.97 -2e-5,-0.9982 0.236386,-2.259 0.70922,-3.7825 0.367722,-1.1032 1.9963,-1.9963 4.885737,-2.6793 2.469108,-0.6304 5.017044,-0.9456 7.643815,-0.9456 1.996288,0 3.099518,0.2101 3.309693,0.6304 1.313333,2.8894 1.970017,7.6701 1.970056,14.342 -3.9e-5,3.5198 -0.28898,5.6212 -0.866825,6.3042"
         style=""
         id="path6798" />
      <path
         d="m 72.684641,1070.6384 c -3.7e-5,8.7733 -2.547973,15.3139 -7.643815,19.6218 -3.257185,2.7843 -6.51434,4.1765 -9.771474,4.1765 -4.150267,0 -7.775165,-1.6811 -10.874706,-5.0434 -3.729977,-4.0977 -5.594961,-9.9553 -5.594957,-17.5729 -4e-6,-7.1972 1.786177,-12.4769 5.35855,-15.8392 2.41659,-2.259 5.12213,-3.3885 8.116629,-3.3885 5.043319,0 8.878356,0.5779 11.505123,1.7336 5.936399,2.6268 8.904613,8.0642 8.90465,16.3121 m -13.317574,0.9456 c 0.210114,-0.5778 0.315184,-1.3396 0.315209,-2.2852 -2.5e-5,-2.259 -0.656709,-3.3885 -1.970056,-3.3885 -1.733669,0 -2.600493,1.1032 -2.600473,3.3097 -2e-5,0.8405 0.157584,1.6548 0.472814,2.4428 0.367722,1.0507 0.89307,1.5761 1.576044,1.5761 0.998138,0 1.733625,-0.5516 2.206462,-1.6549"
         style=""
         id="path6800" />
      <path
         d="m 106.90943,1064.5706 c -4e-5,1.471 -0.65672,2.3904 -1.97006,2.7581 -0.26271,0.1051 -1.54981,0.2627 -3.86131,0.4728 -0.36777,0 -0.97192,-0.026 -1.812448,-0.079 -0.788051,-0.105 -1.365933,-0.1576 -1.733649,-0.1576 -1.996348,0 -3.204648,1.0507 -3.624902,3.1521 -0.262697,1.0507 -0.394034,2.4692 -0.394011,4.2553 -2.3e-5,5.8839 0.604126,11.2687 1.812451,16.1545 0.210114,0.788 0.315183,1.4447 0.315209,1.97 -2.6e-5,2.3641 -1.996346,3.6775 -5.988968,3.9401 -2.10141,0.1051 -3.598651,-0.2626 -4.491727,-1.1032 -0.735501,-0.6829 -1.05071,-1.7599 -0.945626,-3.2309 0.105055,-6.5668 0.236392,-14.6572 0.394011,-24.2711 0.105055,-1.9437 -0.656699,-2.9156 -2.285264,-2.9156 -0.840569,0 -2.022601,0.2889 -3.5461,0.8668 -1.470982,0.5779 -2.442875,0.8668 -2.915682,0.8668 -0.735493,0 -1.208305,-0.6041 -1.41844,-1.8124 -0.105074,-0.3678 -0.288946,-2.259 -0.551615,-5.6738 -0.105074,-0.8931 -0.157609,-1.6548 -0.157605,-2.2853 -4e-6,-1.681 0.341472,-2.758 1.024429,-3.2309 0.472808,-0.3677 1.523503,-0.5778 3.152089,-0.6304 6.041489,-0.6829 14.315713,-1.5497 24.822698,-2.6005 3.09952,-0.2626 4.64929,1.9176 4.64933,6.5406 -4e-5,0.9982 -0.0788,2.3116 -0.23641,3.9401 -0.15764,1.6287 -0.23644,2.6531 -0.2364,3.0733"
         style=""
         id="path6802" />
      <path
         d="m 141.38539,1064.5706 c -3e-5,1.471 -0.65672,2.3904 -1.97005,2.7581 -0.26271,0.1051 -1.54981,0.2627 -3.86131,0.4728 -0.36777,0 -0.97192,-0.026 -1.81245,-0.079 -0.78805,-0.105 -1.36593,-0.1576 -1.73365,-0.1576 -1.99635,0 -3.20465,1.0507 -3.6249,3.1521 -0.2627,1.0507 -0.39404,2.4692 -0.39401,4.2553 -3e-5,5.8839 0.60412,11.2687 1.81245,16.1545 0.21011,0.788 0.31518,1.4447 0.31521,1.97 -3e-5,2.3641 -1.99635,3.6775 -5.98897,3.9401 -2.10141,0.1051 -3.59865,-0.2626 -4.49173,-1.1032 -0.7355,-0.6829 -1.05071,-1.7599 -0.94562,-3.2309 0.10505,-6.5668 0.23639,-14.6572 0.39401,-24.2711 0.10505,-1.9437 -0.6567,-2.9156 -2.28527,-2.9156 -0.84057,0 -2.0226,0.2889 -3.5461,0.8668 -1.47098,0.5779 -2.44287,0.8668 -2.91568,0.8668 -0.73549,0 -1.2083,-0.6041 -1.41844,-1.8124 -0.10507,-0.3678 -0.28894,-2.259 -0.55161,-5.6738 -0.10508,-0.8931 -0.15761,-1.6548 -0.15761,-2.2853 0,-1.681 0.34147,-2.758 1.02443,-3.2309 0.47281,-0.3677 1.5235,-0.5778 3.15209,-0.6304 6.04149,-0.6829 14.31571,-1.5497 24.8227,-2.6005 3.09951,-0.2626 4.64929,1.9176 4.64933,6.5406 -4e-5,0.9982 -0.0788,2.3116 -0.23641,3.9401 -0.15764,1.6287 -0.23644,2.6531 -0.23641,3.0733"
         style=""
         id="path6804" />
      <path
         d="m 169.97213,1072.0568 -0.94562,20.331 c -4e-5,0.2102 -0.10511,0.3415 -0.31521,0.394 l -9.45627,1.4973 c -0.2627,0.053 -0.4203,-0.1314 -0.47281,-0.5517 -2e-5,-0.3152 0.0262,-0.8668 0.0788,-1.6548 0.15758,-1.2083 0.26265,-1.97 0.31521,-2.2853 -1.52353,0.053 -3.65119,0.8669 -6.38298,2.4429 -2.10141,1.2608 -4.38667,1.8913 -6.85579,1.8913 -3.41477,0 -5.70003,-1.5498 -6.85579,-4.6494 -0.42029,-1.1032 -0.63043,-2.259 -0.63042,-3.4673 -10e-6,-3.2046 1.41843,-6.094 4.25532,-8.6682 3.04701,-2.7843 7.11845,-4.4917 12.21434,-5.1222 0.21012,-1.3658 0.0788,-2.4953 -0.39401,-3.3885 -0.63044,-1.2608 -1.73367,-1.8912 -3.30969,-1.8912 -0.73551,0 -1.7074,0.1576 -2.91568,0.4728 -1.15578,0.2627 -1.83873,0.394 -2.04886,0.394 -0.36776,0 -0.55163,-0.105 -0.55162,-0.3152 l -1.57604,-10.4807 c -0.0525,-0.2101 0.0263,-0.3414 0.2364,-0.394 4.15024,-1.7861 8.16915,-2.6792 12.05674,-2.6793 9.66638,10e-5 14.18437,6.0416 13.55398,18.1245 m -13.94799,5.2798 c -4.30787,2.1014 -6.46179,4.0715 -6.46178,5.9102 -1e-5,0.5253 0.21012,1.0244 0.63042,1.4972 0.4728,0.4728 0.97188,0.7092 1.49724,0.7092 1.20828,0 2.25898,-0.7092 3.15209,-2.1276 1.05067,-1.6811 1.44468,-3.6775 1.18203,-5.989"
         style=""
         id="path6806" />
    </g>
    <g
       transform="scale(1.0369786,0.96434001)"
       style="font-size:126.24087524px;font-style:normal;font-variant:normal;font-weight:normal;font-stretch:normal;line-height:125%;letter-spacing:0px;word-spacing:0px;fill:#005c2d;fill-opacity:1;stroke:none;font-family:Cheeseburger;-inkscape-font-specification:Cheeseburger"
       id="text3764">
      <path
         d="m 56.889041,1035.0278 c -0.168383,4.713 -0.294624,7.1957 -0.378722,7.4482 -0.420865,1.5149 -1.977834,2.6511 -4.670913,3.4085 -2.693193,0.6733 -5.175928,1.0099 -7.448211,1.0099 -5.722964,0 -9.973069,-2.3565 -12.750329,-7.0695 -2.104049,-3.7872 -4.165981,-7.5744 -6.185803,-11.3616 -1.767401,-3.1139 -3.28229,-4.5026 -4.544671,-4.166 -1.262434,0.3367 -1.893638,1.7674 -1.893613,4.2922 -2.5e-5,1.5991 0.336617,4.166 1.009927,7.7007 0.08413,0.6733 0.420777,1.9778 1.009927,3.9135 0.336615,1.4307 0.504936,2.5248 0.504963,3.2822 -2.7e-5,1.5149 -0.883712,2.4407 -2.651058,2.7773 -5.891259,1.1783 -9.2576793,1.7674 -10.0992701,1.7674 -3.8713971,0 -5.9754096,-1.6832 -6.3120438,-5.0496 -0.3366498,-3.4506 -0.6732918,-11.9508 -1.009927,-25.5007 -0.3366488,-12.0349 -0.50496978,-20.24055 -0.50496347,-24.61696 -6.31e-6,-2.60892 -6.31e-6,-3.99756 0,-4.16595 0.16831467,-1.3465 0.88367897,-2.31435 2.14609487,-2.90354 4.2080165,-1.85146 7.3640355,-2.77723 9.4680655,-2.7773 2.861439,7e-5 4.965452,1.09416 6.312044,3.28227 10.099236,16.07468 16.579594,25.83738 19.441095,29.28788 1.346524,1.6832 2.524771,2.5248 3.534744,2.5248 1.346521,0 1.851484,-1.3465 1.514891,-4.0397 -1.346617,-10.2675 -2.777345,-19.10439 -4.29219,-26.51058 -0.252526,-1.00986 -0.378767,-1.80938 -0.378723,-2.39857 -4.4e-5,-2.18811 1.725247,-3.74508 5.175876,-4.67091 5.554544,-1.51482 8.542242,-2.27227 8.963102,-2.27234 2.693078,7e-5 4.039646,1.6412 4.039708,4.92339 l 0,51.88501"
         style=""
         id="path6809" />
      <path
         d="m 116.61873,1018.4902 c -6e-5,11.6142 -3.45064,20.0724 -10.35175,25.3745 -5.218,3.9555 -12.035004,5.9333 -20.451026,5.9333 -6.817029,0 -12.287461,-2.7352 -16.411313,-8.2057 -4.039717,-5.4704 -6.059569,-12.624 -6.059562,-21.4609 -7e-6,-9.8468 2.061925,-19.1465 6.185802,-27.89926 4.712976,-9.84672 10.43589,-14.77011 17.168759,-14.77019 7.826897,8e-5 14.6439,3.61898 20.45102,10.85672 6.31199,7.91115 9.46801,17.96833 9.46807,30.17153 m -22.849601,-2.651 c 0.168285,-3.9555 -0.757481,-5.9333 -2.777299,-5.9333 -0.925799,0 -1.767404,0.7574 -2.524817,2.2723 -0.757476,1.4308 -1.136198,2.9457 -1.136168,4.5447 -3e-5,2.0199 0.673254,3.0298 2.019854,3.0297 2.524783,10e-5 3.997591,-1.3044 4.41843,-3.9134"
         style=""
         id="path6811" />
      <path
         d="m 191.27245,1036.5427 c -0.33672,4.713 -1.68329,7.9532 -4.03971,9.7205 -1.17832,0.8416 -3.24025,1.5149 -6.1858,2.0199 -3.87145,0.6733 -6.31211,1.0099 -7.32197,1.0099 -3.61897,0 -5.42842,-1.3886 -5.42836,-4.1659 -6e-5,-6.3962 -0.0421,-10.0993 -0.12624,-11.1092 -0.3367,-4.3764 -1.43079,-6.5225 -3.28227,-6.4383 -1.26245,0 -2.52486,2.4827 -3.78722,7.4482 -1.1783,4.9655 -2.81943,7.4482 -4.9234,7.4482 -1.68325,0.084 -3.7031,-2.9877 -6.05956,-9.2156 -2.35653,-6.2278 -4.62886,-9.3418 -6.81701,-9.3418 -2.10404,0 -3.15604,1.052 -3.15602,3.156 -2e-5,1.5149 0.84158,4.4605 2.52482,8.8369 1.76734,4.3763 2.65103,7.364 2.65106,8.9631 -3e-5,1.6832 -0.7154,2.6931 -2.1461,3.0298 -4.29221,1.0941 -8.5844,1.6411 -12.87657,1.6411 -7.9111,0 -11.57208,-1.9357 -10.98295,-5.8071 1.17824,-13.129 2.77729,-29.3299 4.79715,-48.60272 0.67327,-4.88126 1.43072,-8.16352 2.27234,-9.84679 0.84159,-1.76731 2.48272,-2.98763 4.92339,-3.66099 4.03969,-1.09401 7.40611,-1.64106 10.09927,-1.64113 6.05953,7e-5 9.38387,2.52489 9.97303,7.57445 0.42076,4.20809 0.88365,8.41612 1.38865,12.62408 0.50492,3.114 1.47277,4.6289 2.90354,4.5447 1.26237,-0.084 2.94558,-3.703 5.04964,-10.85673 2.4406,-8.16351 3.99757,-12.70818 4.67091,-13.63402 0.92571,-1.43065 2.06188,-2.27226 3.4085,-2.52481 0.42075,-0.0841 2.18812,-0.21033 5.30212,-0.37873 3.61884,-0.0841 5.97533,8e-5 7.06949,0.25249 2.44058,0.42087 3.95547,1.72536 4.54467,3.91346 0.92569,3.70313 2.10394,11.53006 3.53474,23.48084 1.7673,14.3073 2.44058,24.8274 2.01986,31.5602"
         style=""
         id="path6813" />
    </g>
  </g>
</svg>
