<?xml version="1.0" encoding="UTF-8" standalone="no"?>
<!-- Created with Inkscape (http://www.inkscape.org/) -->

<svg
   xmlns:dc="http://purl.org/dc/elements/1.1/"
   xmlns:cc="http://creativecommons.org/ns#"
   xmlns:rdf="http://www.w3.org/1999/02/22-rdf-syntax-ns#"
   xmlns:svg="http://www.w3.org/2000/svg"
   xmlns="http://www.w3.org/2000/svg"
   xmlns:xlink="http://www.w3.org/1999/xlink"
   xmlns:sodipodi="http://sodipodi.sourceforge.net/DTD/sodipodi-0.dtd"
   xmlns:inkscape="http://www.inkscape.org/namespaces/inkscape"
   width="200"
   height="200"
   id="svg2"
   version="1.1"
   inkscape:version="0.48.2 r9819"
   sodipodi:docname="burger.svg">
  <sodipodi:namedview
     id="base"
     pagecolor="#ffffff"
     bordercolor="#666666"
     borderopacity="1.0"
     inkscape:pageopacity="0.0"
     inkscape:pageshadow="2"
     inkscape:zoom="2.8284271"
     inkscape:cx="68.520544"
     inkscape:cy="97.464319"
     inkscape:document-units="px"
     inkscape:current-layer="layer1"
     showgrid="false"
     inkscape:window-width="1228"
     inkscape:window-height="756"
     inkscape:window-x="55"
     inkscape:window-y="0"
     inkscape:window-maximized="0" />
  <defs
     id="defs4">
    <pattern
       inkscape:collect="always"
       xlink:href="#Polkadots-med-71-109-882"
       id="pattern4782"
       patternTransform="scale(8.001756,9.5917554)" />
    <pattern
       inkscape:stockid="Polka dots, medium"
       id="Polkadots-med-71-109-882"
       patternTransform="translate(0,0) scale(10,10)"
       height="10"
       width="10"
       patternUnits="userSpaceOnUse"
       inkscape:collect="always">
      <circle
         id="circle4610"
         r="0.15"
         cy="0.810"
         cx="2.567"
         style="fill:#00f59d;stroke:none" />
      <circle
         id="circle4612"
         r="0.15"
         cy="2.33"
         cx="3.048"
         style="fill:#00f59d;stroke:none" />
      <circle
         id="circle4614"
         r="0.15"
         cy="2.415"
         cx="4.418"
         style="fill:#00f59d;stroke:none" />
      <circle
         id="circle4616"
         r="0.15"
         cy="3.029"
         cx="1.844"
         style="fill:#00f59d;stroke:none" />
      <circle
         id="circle4618"
         r="0.15"
         cy="1.363"
         cx="6.08"
         style="fill:#00f59d;stroke:none" />
      <circle
         id="circle4620"
         r="0.15"
         cy="4.413"
         cx="5.819"
         style="fill:#00f59d;stroke:none" />
      <circle
         id="circle4622"
         r="0.15"
         cy="4.048"
         cx="4.305"
         style="fill:#00f59d;stroke:none" />
      <circle
         id="circle4624"
         r="0.15"
         cy="3.045"
         cx="5.541"
         style="fill:#00f59d;stroke:none" />
      <circle
         id="circle4626"
         r="0.15"
         cy="5.527"
         cx="4.785"
         style="fill:#00f59d;stroke:none" />
      <circle
         id="circle4628"
         r="0.15"
         cy="5.184"
         cx="2.667"
         style="fill:#00f59d;stroke:none" />
      <circle
         id="circle4630"
         r="0.15"
         cy="1.448"
         cx="7.965"
         style="fill:#00f59d;stroke:none" />
      <circle
         id="circle4632"
         r="0.15"
         cy="5.049"
         cx="7.047"
         style="fill:#00f59d;stroke:none" />
      <circle
         id="circle4634"
         r="0.15"
         cy="0.895"
         cx="4.340"
         style="fill:#00f59d;stroke:none" />
      <circle
         id="circle4636"
         r="0.15"
         cy="0.340"
         cx="7.125"
         style="fill:#00f59d;stroke:none" />
      <circle
         id="circle4638"
         r="0.15"
         cy="1.049"
         cx="9.553"
         style="fill:#00f59d;stroke:none" />
      <circle
         id="circle4640"
         r="0.15"
         cy="2.689"
         cx="7.006"
         style="fill:#00f59d;stroke:none" />
      <circle
         id="circle4642"
         r="0.15"
         cy="2.689"
         cx="8.909"
         style="fill:#00f59d;stroke:none" />
      <circle
         id="circle4644"
         r="0.15"
         cy="4.407"
         cx="9.315"
         style="fill:#00f59d;stroke:none" />
      <circle
         id="circle4646"
         r="0.15"
         cy="3.870"
         cx="7.820"
         style="fill:#00f59d;stroke:none" />
      <circle
         id="circle4648"
         r="0.15"
         cy="5.948"
         cx="8.270"
         style="fill:#00f59d;stroke:none" />
      <circle
         id="circle4650"
         r="0.15"
         cy="7.428"
         cx="7.973"
         style="fill:#00f59d;stroke:none" />
      <circle
         id="circle4652"
         r="0.15"
         cy="8.072"
         cx="9.342"
         style="fill:#00f59d;stroke:none" />
      <circle
         id="circle4654"
         r="0.15"
         cy="9.315"
         cx="8.206"
         style="fill:#00f59d;stroke:none" />
      <circle
         id="circle4656"
         r="0.15"
         cy="9.475"
         cx="9.682"
         style="fill:#00f59d;stroke:none" />
      <circle
         id="circle4658"
         r="0.15"
         cy="6.186"
         cx="9.688"
         style="fill:#00f59d;stroke:none" />
      <circle
         id="circle4660"
         r="0.15"
         cy="6.296"
         cx="3.379"
         style="fill:#00f59d;stroke:none" />
      <circle
         id="circle4662"
         r="0.15"
         cy="8.204"
         cx="2.871"
         style="fill:#00f59d;stroke:none" />
      <circle
         id="circle4664"
         r="0.15"
         cy="8.719"
         cx="4.59"
         style="fill:#00f59d;stroke:none" />
      <circle
         id="circle4666"
         r="0.15"
         cy="9.671"
         cx="3.181"
         style="fill:#00f59d;stroke:none" />
      <circle
         id="circle4668"
         r="0.15"
         cy="7.315"
         cx="5.734"
         style="fill:#00f59d;stroke:none" />
      <circle
         id="circle4670"
         r="0.15"
         cy="6.513"
         cx="6.707"
         style="fill:#00f59d;stroke:none" />
      <circle
         id="circle4672"
         r="0.15"
         cy="9.670"
         cx="5.730"
         style="fill:#00f59d;stroke:none" />
      <circle
         id="circle4674"
         r="0.15"
         cy="8.373"
         cx="6.535"
         style="fill:#00f59d;stroke:none" />
      <circle
         id="circle4676"
         r="0.15"
         cy="7.154"
         cx="4.37"
         style="fill:#00f59d;stroke:none" />
      <circle
         id="circle4678"
         r="0.15"
         cy="7.25"
         cx="0.622"
         style="fill:#00f59d;stroke:none" />
      <circle
         id="circle4680"
         r="0.15"
         cy="5.679"
         cx="0.831"
         style="fill:#00f59d;stroke:none" />
      <circle
         id="circle4682"
         r="0.15"
         cy="8.519"
         cx="1.257"
         style="fill:#00f59d;stroke:none" />
      <circle
         id="circle4684"
         r="0.15"
         cy="6.877"
         cx="1.989"
         style="fill:#00f59d;stroke:none" />
      <circle
         id="circle4686"
         r="0.15"
         cy="3.181"
         cx="0.374"
         style="fill:#00f59d;stroke:none" />
      <circle
         id="circle4688"
         r="0.15"
         cy="1.664"
         cx="1.166"
         style="fill:#00f59d;stroke:none" />
      <circle
         id="circle4690"
         r="0.15"
         cy="0.093"
         cx="1.151"
         style="fill:#00f59d;stroke:none" />
      <circle
         id="circle4692"
         r="0.15"
         cy="10.093"
         cx="1.151"
         style="fill:#00f59d;stroke:none" />
      <circle
         id="circle4694"
         r="0.15"
         cy="4.451"
         cx="1.302"
         style="fill:#00f59d;stroke:none" />
      <circle
         id="circle4696"
         r="0.15"
         cy="3.763"
         cx="3.047"
         style="fill:#00f59d;stroke:none" />
    </pattern>
  </defs>
  <metadata
     id="metadata7">
    <rdf:RDF>
      <cc:Work
         rdf:about="">
        <dc:format>image/svg+xml</dc:format>
        <dc:type
           rdf:resource="http://purl.org/dc/dcmitype/StillImage" />
        <dc:title></dc:title>
      </cc:Work>
    </rdf:RDF>
  </metadata>
  <g
     inkscape:label="Layer 1"
     inkscape:groupmode="layer"
     id="layer1"
     transform="translate(0,-852.36218)">
    <path
       sodipodi:type="arc"
       style="fill:#ffffff;fill-opacity:0;stroke:#00f59d;stroke-width:3.23495936;stroke-miterlimit:4;stroke-opacity:1;stroke-dasharray:none"
       id="path2985"
       sodipodi:cx="110.6117"
       sodipodi:cy="109.59135"
       sodipodi:rx="36.870567"
       sodipodi:ry="36.870567"
       d="m 147.48227,109.59135 a 36.870567,36.870567 0 1 1 -73.741135,0 l 36.870565,0 z"
       transform="matrix(2.5901446,0,0,0.92216628,-186.5004,913.80014)"
       sodipodi:start="0"
       sodipodi:end="3.1415927" />
    <g
       id="text2992"
       style="font-size:78.80221558px;font-style:normal;font-variant:normal;font-weight:normal;font-stretch:normal;line-height:125%;letter-spacing:0px;word-spacing:0px;fill:#003f1f;fill-opacity:1;stroke:none;font-family:Cheeseburger;-inkscape-font-specification:Cheeseburger"
       transform="matrix(1.1720096,0,0,0.80094517,-0.27682029,62.681739)" />
    <g
       id="text3764"
       style="font-size:126.24087524px;font-style:normal;font-variant:normal;font-weight:normal;font-stretch:normal;line-height:125%;letter-spacing:0px;word-spacing:0px;fill:#00f59d;fill-opacity:1;stroke:none;font-family:Cheeseburger;-inkscape-font-specification:Cheeseburger"
       transform="matrix(1.0369786,0,0,0.96434001,0,-1.0000338)">
      <path
         style="fill:#00f59d;fill-opacity:1"
         d="m 191.27245,1036.5427 c -0.33672,4.713 -1.68329,7.9532 -4.03971,9.7205 -1.17832,0.8416 -3.24025,1.5149 -6.1858,2.0199 -3.87145,0.6733 -6.31211,1.0099 -7.32197,1.0099 -3.61897,0 -5.42842,-1.3886 -5.42836,-4.1659 -6e-5,-6.3962 -0.0421,-10.0993 -0.12624,-11.1092 -0.3367,-4.3764 -1.43079,-6.5225 -3.28227,-6.4383 -1.26245,0 -2.52486,2.4827 -3.78722,7.4482 -1.1783,4.9655 -2.81943,7.4482 -4.9234,7.4482 -1.68325,0.084 -3.7031,-2.9877 -6.05956,-9.2156 -2.35653,-6.2278 -4.62886,-9.3418 -6.81701,-9.3418 -2.10404,0 -3.15604,1.052 -3.15602,3.156 -2e-5,1.5149 0.84158,4.4605 2.52482,8.8369 1.76734,4.3763 2.65103,7.364 2.65106,8.9631 -3e-5,1.6832 -0.7154,2.6931 -2.1461,3.0298 -4.29221,1.0941 -8.5844,1.6411 -12.87657,1.6411 -7.9111,0 -11.57208,-1.9357 -10.98295,-5.8071 1.17824,-13.129 2.77729,-29.3299 4.79715,-48.60272 0.67327,-4.88126 1.43072,-8.16352 2.27234,-9.84679 0.84159,-1.76731 2.48272,-2.98763 4.92339,-3.66099 4.03969,-1.09401 7.40611,-1.64106 10.09927,-1.64113 6.05953,7e-5 9.38387,2.52489 9.97303,7.57445 0.42076,4.20809 0.88365,8.41612 1.38865,12.62408 0.50492,3.114 1.47277,4.6289 2.90354,4.5447 1.26237,-0.084 2.94558,-3.703 5.04964,-10.85673 2.4406,-8.16351 3.99757,-12.70818 4.67091,-13.63402 0.92571,-1.43065 2.06188,-2.27226 3.4085,-2.52481 0.42075,-0.0841 2.18812,-0.21033 5.30212,-0.37873 3.61884,-0.0841 5.97533,8e-5 7.06949,0.25249 2.44058,0.42087 3.95547,1.72536 4.54467,3.91346 0.92569,3.70313 2.10394,11.53006 3.53474,23.48084 1.7673,14.3073 2.44058,24.8274 2.01986,31.5602 m -74.65372,-18.0525 c -6e-5,11.6142 -3.45064,20.0724 -10.35175,25.3745 -5.218,3.9555 -12.035004,5.9333 -20.451026,5.9333 -6.817029,0 -12.287461,-2.7352 -16.411313,-8.2057 -4.039717,-5.4704 -6.059569,-12.624 -6.059562,-21.4609 -7e-6,-9.8468 2.061925,-19.1465 6.185802,-27.89926 4.712976,-9.84672 10.43589,-14.77011 17.168759,-14.77019 7.826897,8e-5 14.6439,3.61898 20.45102,10.85672 6.31199,7.91115 9.46801,17.96833 9.46807,30.17153 m -22.849601,-2.651 c 0.168285,-3.9555 -0.757481,-5.9333 -2.777299,-5.9333 -0.925799,0 -1.767404,0.7574 -2.524817,2.2723 -0.757476,1.4308 -1.136198,2.9457 -1.136168,4.5447 -3e-5,2.0199 0.673254,3.0298 2.019854,3.0297 2.524783,10e-5 3.997591,-1.3044 4.41843,-3.9134 m -36.880088,19.1886 c -0.168383,4.713 -0.294624,7.1957 -0.378722,7.4482 -0.420865,1.5149 -1.977834,2.6511 -4.670913,3.4085 -2.693193,0.6733 -5.175928,1.0099 -7.448211,1.0099 -5.722964,0 -9.973069,-2.3565 -12.750329,-7.0695 -2.104049,-3.7872 -4.165981,-7.5744 -6.185803,-11.3616 -1.767401,-3.1139 -3.28229,-4.5026 -4.544671,-4.166 -1.262434,0.3367 -1.893638,1.7674 -1.893613,4.2922 -2.5e-5,1.5991 0.336617,4.166 1.009927,7.7007 0.08413,0.6733 0.420777,1.9778 1.009927,3.9135 0.336615,1.4307 0.504936,2.5248 0.504963,3.2822 -2.7e-5,1.5149 -0.883712,2.4407 -2.651058,2.7773 -5.891259,1.1783 -9.2576793,1.7674 -10.0992701,1.7674 -3.8713971,0 -5.9754096,-1.6832 -6.3120438,-5.0496 -0.3366498,-3.4506 -0.6732918,-11.9508 -1.009927,-25.5007 -0.3366488,-12.0349 -0.50496978,-20.24055 -0.50496347,-24.61696 -6.31e-6,-2.60892 -6.31e-6,-3.99756 0,-4.16595 0.16831467,-1.3465 0.88367897,-2.31435 2.14609487,-2.90354 4.2080165,-1.85146 7.3640355,-2.77723 9.4680655,-2.7773 2.861439,7e-5 4.965452,1.09416 6.312044,3.28227 10.099236,16.07468 16.579594,25.83738 19.441095,29.28788 1.346524,1.6832 2.524771,2.5248 3.534744,2.5248 1.346521,0 1.851484,-1.3465 1.514891,-4.0397 -1.346617,-10.2675 -2.777345,-19.10439 -4.29219,-26.51058 -0.252526,-1.00986 -0.378767,-1.80938 -0.378723,-2.39857 -4.4e-5,-2.18811 1.725247,-3.74508 5.175876,-4.67091 5.554544,-1.51482 8.542242,-2.27227 8.963102,-2.27234 2.693078,7e-5 4.039646,1.6412 4.039708,4.92339 l 0,51.88501 m 134.949199,-78.58041 -1.06876,16.88618 c -4e-5,0.17458 -0.11879,0.28364 -0.35625,0.32724 l -10.68763,1.2436 c -0.29691,0.044 -0.47503,-0.10913 -0.53437,-0.45822 -3e-5,-0.26179 0.0296,-0.71993 0.0891,-1.37441 0.1781,-1.00357 0.29685,-1.63621 0.35625,-1.89809 -1.72192,0.044 -4.12663,0.72002 -7.21414,2.02898 -2.37505,1.04718 -4.95789,1.57085 -7.74853,1.57085 -3.85942,0 -6.44226,-1.28721 -7.74852,-3.86162 -0.47502,-0.91628 -0.71252,-1.87624 -0.71251,-2.87981 -1e-5,-2.66163 1.60313,-5.06145 4.80943,-7.19949 3.44378,-2.31254 8.04539,-3.73064 13.80484,-4.25431 0.23748,-1.13438 0.0891,-2.0725 -0.44531,-2.81436 -0.71254,-1.04718 -1.95943,-1.57076 -3.74067,-1.57076 -0.83128,0 -1.92973,0.13089 -3.29535,0.39269 -1.30628,0.21819 -2.07816,0.32724 -2.31565,0.32724 -0.41565,0 -0.62346,-0.0872 -0.62345,-0.2618 l -1.78127,-8.70488 c -0.0593,-0.1745 0.0297,-0.28355 0.26719,-0.32724 4.69066,-1.48347 9.2329,-2.22524 13.62672,-2.22533 10.92509,9e-5 16.0314,5.01793 15.31892,15.05354 M 176.074,960.8326 c -4.86882,1.74535 -7.30322,3.38164 -7.30321,4.90879 -1e-5,0.4363 0.23748,0.85083 0.71251,1.24352 0.53437,0.39269 1.09844,0.58904 1.69221,0.58904 1.36562,0 2.55313,-0.58904 3.56254,-1.76711 1.18748,-1.39626 1.6328,-3.05439 1.33595,-4.97424 m -16.54495,-10.60297 c -3e-5,1.22176 -0.74223,1.98538 -2.22658,2.29078 -0.29692,0.0873 -1.75162,0.21819 -4.36411,0.39269 -0.41566,0 -1.09848,-0.0216 -2.04846,-0.0656 -0.89067,-0.0872 -1.5438,-0.13089 -1.9594,-0.13089 -2.25631,0 -3.62195,0.87267 -4.09692,2.61801 -0.29691,0.87268 -0.44535,2.05083 -0.44532,3.5343 -3e-5,4.88695 0.68279,9.35937 2.04846,13.41733 0.23747,0.65448 0.35623,1.19991 0.35626,1.63621 -3e-5,1.96353 -2.25631,3.0544 -6.76883,3.2725 -2.37505,0.0873 -4.06725,-0.2181 -5.07662,-0.91628 -0.83128,-0.56719 -1.18753,-1.4617 -1.06876,-2.68346 0.11873,-5.45414 0.26717,-12.17373 0.44532,-20.15868 0.11873,-1.61437 -0.74221,-2.42159 -2.58285,-2.42159 -0.95003,0 -2.28597,0.23995 -4.00786,0.71993 -1.66252,0.47998 -2.76097,0.71993 -3.29535,0.71993 -0.83126,0 -1.36564,-0.50174 -1.60314,-1.50531 -0.11875,-0.30548 -0.32656,-1.87624 -0.62344,-4.71245 -0.11876,-0.74177 -0.17813,-1.37441 -0.17813,-1.89808 0,-1.39618 0.38593,-2.2907 1.15783,-2.68347 0.53437,-0.3054 1.72188,-0.4799 3.56254,-0.52359 6.82819,-0.56719 16.17984,-1.28712 28.05501,-2.15988 3.50311,-0.2181 5.2547,1.59269 5.25474,5.43239 -4e-5,0.82906 -0.0891,1.91992 -0.26719,3.2725 -0.17817,1.35273 -0.26723,2.20356 -0.2672,2.55257 m -38.96527,1.6e-4 c -5e-5,1.22176 -0.74224,1.98538 -2.22659,2.29078 -0.29692,0.0873 -1.75162,0.21819 -4.36412,0.39269 -0.41566,0 -1.09848,-0.0216 -2.04846,-0.0656 -0.89066,-0.0872 -1.54379,-0.13089 -1.95939,-0.13089 -2.25631,0 -3.62195,0.87267 -4.09692,2.61801 -0.29691,0.87268 -0.44535,2.05083 -0.44532,3.5343 -3e-5,4.88695 0.68279,9.35937 2.04846,13.41733 0.23747,0.65448 0.35622,1.19991 0.35625,1.63621 -3e-5,1.96353 -2.2563,3.0544 -6.76882,3.2725 -2.37505,0.0873 -4.067256,-0.2181 -5.076624,-0.91628 -0.831275,-0.56719 -1.187529,-1.4617 -1.068762,-2.68346 0.118735,-5.45414 0.267174,-12.17373 0.445318,-20.15868 0.118735,-1.61437 -0.742212,-2.42159 -2.582842,-2.42159 -0.950024,0 -2.285975,0.23995 -4.007858,0.71993 -1.662527,0.47998 -2.760976,0.71993 -3.29535,0.71993 -0.831266,0 -1.365645,-0.50174 -1.603143,-1.50531 -0.118756,-0.30548 -0.326571,-1.87624 -0.623444,-4.71245 -0.118756,-0.74177 -0.178132,-1.37441 -0.178128,-1.89808 -4e-6,-1.39618 0.385937,-2.2907 1.157826,-2.68347 0.534375,-0.3054 1.721887,-0.4799 3.562541,-0.52359 6.828186,-0.56719 16.179846,-1.28712 28.055006,-2.15988 3.50313,-0.2181 5.2547,1.59269 5.25475,5.43239 -5e-5,0.82906 -0.0891,1.91992 -0.2672,3.2725 -0.17817,1.35273 -0.26723,2.20356 -0.26718,2.55257 m -38.681399,5.03985 c -4.2e-5,7.28678 -2.879759,12.71916 -8.639161,16.29714 -3.681322,2.31254 -7.36261,3.46885 -11.043874,3.46885 -4.690697,0 -8.787614,-1.39626 -12.290764,-4.18886 -4.215679,-3.4034 -6.323514,-8.2685 -6.323509,-14.5954 -5e-6,-5.97773 2.018765,-10.36285 6.056318,-13.15546 2.731268,-1.87624 5.789112,-2.81436 9.173542,-2.81436 5.700039,0 10.034458,0.47998 13.003272,1.43987 6.709412,2.18172 10.064134,6.69782 10.064176,13.54822 m -15.051733,0.78538 c 0.237475,-0.4799 0.356226,-1.11262 0.356255,-1.898 -2.9e-5,-1.87624 -0.742223,-2.81436 -2.226589,-2.81436 -1.95942,0 -2.939118,0.91627 -2.939096,2.74891 -2.2e-5,0.69809 0.178104,1.37442 0.534382,2.0289 0.415606,0.87267 1.009362,1.30905 1.78127,1.30905 1.128111,0 1.95937,-0.45814 2.493778,-1.3745 m -27.562375,12.76285 c -2.671945,2.44343 -5.878228,4.38512 -9.618858,5.82507 -3.740697,1.43986 -7.451672,2.1598 -11.132939,2.1598 -4.987573,0 -9.0251152,-1.33081 -12.112637,-3.99244 -3.5031713,-2.9671 -5.3141275,-7.35222 -5.43287405,-13.15553 -0.1781315,-7.54849 3.23596625,-13.17722 10.24230405,-16.8861 5.046912,-2.61802 10.776659,-3.92698 17.189257,-3.92707 2.612495,9e-5 4.037509,0.19643 4.275049,0.58912 1.781231,3.01071 2.671865,5.71602 2.671905,8.11577 -4e-5,0.95996 -0.237542,1.41818 -0.712509,1.37449 -2.553189,-0.34908 -4.779775,-0.52358 -6.679763,-0.52358 -4.037573,0 -7.006353,0.78538 -8.90635,2.35614 -1.12816,0.87275 -2.375048,2.68355 -3.740669,5.43238 -0.415648,0.87276 -0.623462,1.65814 -0.623444,2.35622 -1.8e-5,1.39626 0.771865,2.46528 2.315652,3.20706 1.246867,0.56727 2.523443,0.78546 3.829731,0.65448 3.146882,-0.21811 4.750024,-1.02533 4.809428,-2.42159 0.05935,-0.87267 -0.564097,-1.30905 -1.870333,-1.30905 -0.475032,0 -1.365667,0.0873 -2.671906,0.26179 -1.187537,0.17459 -1.781292,-0.37084 -1.781269,-1.6362 -2.3e-5,-0.82907 0.267167,-1.87625 0.801571,-3.14161 0.415605,-0.91628 2.25625,-1.65805 5.521937,-2.22533 2.790625,-0.52358 5.670343,-0.78538 8.639161,-0.78538 2.256236,0 3.503124,0.1745 3.740667,0.52359 1.48435,2.39983 2.226545,6.3705 2.226589,11.91193 -4.4e-5,2.92342 -0.32661,4.66877 -0.9797,5.23604"
         id="path6813" />
    </g>
    <path
       sodipodi:end="6.2831853"
       sodipodi:start="3.1415927"
       transform="matrix(2.3783696,0,0,1.120701,-89.198179,813.55263)"
       d="m 39.39595,77.013929 a 40.153564,40.153564 0 0 1 80.30713,2e-6 l -40.153565,0 z"
       sodipodi:ry="40.153564"
       sodipodi:rx="40.153564"
       sodipodi:cy="77.013931"
       sodipodi:cx="79.549515"
       id="path5030"
       style="fill:url(#pattern4782);fill-opacity:1;stroke:#00f59d;stroke-width:3.06251287;stroke-miterlimit:5;stroke-opacity:1;stroke-dasharray:none"
       sodipodi:type="arc" />
  </g>
</svg>
