<?xml version="1.0" encoding="UTF-8" standalone="no"?>
<!-- Created with Inkscape (http://www.inkscape.org/) -->

<svg
   xmlns:dc="http://purl.org/dc/elements/1.1/"
   xmlns:cc="http://creativecommons.org/ns#"
   xmlns:rdf="http://www.w3.org/1999/02/22-rdf-syntax-ns#"
   xmlns:svg="http://www.w3.org/2000/svg"
   xmlns="http://www.w3.org/2000/svg"
   xmlns:sodipodi="http://sodipodi.sourceforge.net/DTD/sodipodi-0.dtd"
   xmlns:inkscape="http://www.inkscape.org/namespaces/inkscape"
   width="200"
   height="40"
   id="svg2"
   version="1.1"
   inkscape:version="0.48.2 r9819"
   sodipodi:docname="gottaNom.svg">
  <defs
     id="defs4" />
  <sodipodi:namedview
     id="base"
     pagecolor="#ffffff"
     bordercolor="#666666"
     borderopacity="1.0"
     inkscape:pageopacity="0.0"
     inkscape:pageshadow="2"
     inkscape:zoom="1.979899"
     inkscape:cx="64.670683"
     inkscape:cy="72.54974"
     inkscape:document-units="px"
     inkscape:current-layer="layer1"
     showgrid="false"
     inkscape:window-width="1074"
     inkscape:window-height="658"
     inkscape:window-x="215"
     inkscape:window-y="0"
     inkscape:window-maximized="0" />
  <metadata
     id="metadata7">
    <rdf:RDF>
      <cc:Work
         rdf:about="">
        <dc:format>image/svg+xml</dc:format>
        <dc:type
           rdf:resource="http://purl.org/dc/dcmitype/StillImage" />
        <dc:title></dc:title>
      </cc:Work>
    </rdf:RDF>
  </metadata>
  <g
     inkscape:label="Layer 1"
     inkscape:groupmode="layer"
     id="layer1"
     transform="translate(0,-1012.3622)">
    <flowRoot
       xml:space="preserve"
       id="flowRoot2985"
       style="font-size:40px;font-style:normal;font-weight:normal;line-height:125%;letter-spacing:0px;word-spacing:0px;fill:#000000;fill-opacity:1;stroke:none;font-family:Sans"><flowRegion
         id="flowRegion2987"><rect
           id="rect2989"
           width="74.285713"
           height="94.285713"
           x="82.85714"
           y="152.36218" /></flowRegion><flowPara
         id="flowPara2991">gotta</flowPara></flowRoot>    <path
       style="font-size:40px;font-style:normal;font-weight:normal;line-height:125%;letter-spacing:0px;word-spacing:0px;fill:#005c2d;fill-opacity:1;stroke:none;font-family:Sans"
       d="m 109.47368,1012.3622 0,31.1 4.01316,0 0,-26 13.61842,26 5.59211,0 0,-31.1 -4.01316,0 0,26.0333 -13.61842,-26.0333 -5.59211,0 z m -55.427627,1.1667 0,6.6 -2.763158,0 0,3 2.763158,0 0,12.6666 c 0,2.9167 0.567431,4.9223 1.677631,6.0334 1.11019,1.0972 3.133211,1.6333 6.052632,1.6333 l 3.881579,0 0,-3.2 -3.881579,0 c -1.576221,0 -2.637074,-0.2583 -3.157895,-0.8 -0.507137,-0.5417 -0.756589,-1.7639 -0.756579,-3.6667 l 0,-12.6666 7.796053,0 0,-3 -7.796053,0 0,-6.6 -3.815789,0 z m 16.546052,0 0,6.6 -2.796052,0 0,3 2.796052,0 0,12.6666 c 0,2.9167 0.534537,4.9223 1.644737,6.0334 1.11019,1.0972 3.133211,1.6333 6.052632,1.6333 l 3.881579,0 0,-3.2 -3.881579,0 c -1.576221,0 -2.637074,-0.2583 -3.157895,-0.8 -0.507137,-0.5417 -0.75659,-1.7639 -0.756579,-3.6667 l 0,-12.6666 7.796053,0 0,-3 -7.796053,0 0,-6.6 -3.782895,0 z m -61.1842105,6.0333 c -2.8234737,0 -5.0822419,1.1195 -6.8092103,3.3 -1.7269789,2.1806 -2.5986862999886,5.0556 -2.5986842,8.6667 -2.0999886e-6,3.5972 0.8717053,6.4861 2.5986842,8.6666 1.7269684,2.1806 3.9857366,3.2667 6.8092103,3.2667 1.6995475,0 3.1551375,-0.3194 4.3750005,-1 1.219831,-0.6806 2.245052,-1.725 3.026316,-3.1 l 0,1.9 c -2.2e-5,2.6528 -0.641464,4.6278 -1.875,5.9333 -1.233569,1.3195 -3.078411,2 -5.5592112,2 -1.1239158,0 -2.2395895,-0.175 -3.3223684,-0.4666 -1.0827893,-0.2917 -2.179284,-0.7223 -3.2894735,-1.3334 l 0,3.7334 c 1.1101895,0.4166 2.2752105,0.7055 3.4539472,0.9 1.1787157,0.2083 2.4204947,0.3333 3.75,0.3333 3.5909899,0 6.2527269,-0.9889 7.9934209,-2.9333 1.740653,-1.9306 2.631558,-4.8945 2.631579,-8.8667 l 0,-20.4333 -3.782894,0 0,3.5666 c -0.781264,-1.3749 -1.806485,-2.4194 -3.026316,-3.1 -1.219863,-0.6805 -2.675453,-1.0333 -4.3750005,-1.0333 z m 27.8947375,0 c -3.30319,0 -5.885421,1.1 -7.763158,3.2667 -1.864042,2.1667 -2.828948,5.1666 -2.828948,9 0,3.8194 0.964906,6.8194 2.828948,9 1.877737,2.1666 4.459968,3.2333 7.763158,3.2333 3.289452,0 5.852505,-1.0667 7.730263,-3.2333 1.877716,-2.1806 2.828926,-5.1806 2.828947,-9 -2.1e-5,-3.8334 -0.951231,-6.8333 -2.828947,-9 -1.877758,-2.1667 -4.440811,-3.2667 -7.730263,-3.2667 z m 57.960526,0 c -1.233569,0 -2.513716,0.1556 -3.81579,0.4333 -1.302094,0.2639 -2.628842,0.6584 -4.013157,1.2 l 0,3.5334 c 1.151305,-0.6389 2.338263,-1.1139 3.585526,-1.4334 1.247252,-0.3194 2.532884,-0.4666 3.848684,-0.4666 2.069611,0 3.665011,0.4944 4.802632,1.4666 1.151287,0.9584 1.710497,2.3028 1.710527,4.0667 l 0,0.3667 -5.296054,0 c -3.440252,0 -6.022484,0.6666 -7.763158,2 -1.726979,1.3333 -2.598684,3.3416 -2.598684,5.9666 0,2.25 0.688042,4.0195 2.072369,5.3667 1.398021,1.3333 3.300431,2 5.657894,2 1.864021,0 3.415558,-0.3333 4.703948,-1 1.288358,-0.6806 2.360175,-1.7167 3.223685,-3.1333 l 0,3.5333 3.81578,0 0,-13.3 c -2e-5,-3.5555 -0.85528,-6.2167 -2.5,-7.9667 -1.64475,-1.7499 -4.103623,-2.6333 -7.434202,-2.6333 z m 54.473682,0 c -3.30319,0 -5.88542,1.1 -7.76316,3.2667 -1.86404,2.1667 -2.82894,5.1666 -2.82894,9 0,3.8194 0.9649,6.8194 2.82894,9 1.87774,2.1666 4.45997,3.2333 7.76316,3.2333 3.28945,0 5.85251,-1.0667 7.73027,-3.2333 1.87771,-2.1806 2.82892,-5.1806 2.82894,-9 -2e-5,-3.8334 -0.95123,-6.8333 -2.82894,-9 -1.87776,-2.1667 -4.44082,-3.2667 -7.73027,-3.2667 z m 27.86184,0 c -1.65845,0 -3.07019,0.3528 -4.27631,1.0333 -1.20615,0.6806 -2.26153,1.7362 -3.125,3.1667 l 0,-3.6333 -3.7829,0 0,23.3333 3.7829,0 0,-13.1667 c -1e-5,-2.2638 0.5729,-4.0805 1.71052,-5.4 1.1376,-1.3333 2.67269,-1.9999 4.60527,-2 1.63101,10e-5 2.83716,0.55 3.61842,1.6334 0.78123,1.0694 1.18419,2.75 1.18421,5 l 0,13.9333 3.78289,0 0,-13.1667 c -2e-5,-2.2777 0.5729,-4.0805 1.71053,-5.4 1.13759,-1.3194 2.67816,-1.9999 4.63816,-2 1.60359,10e-5 2.80424,0.55 3.58552,1.6334 0.78123,1.0833 1.18418,2.7639 1.18422,5 l 0,13.9333 3.78289,0 0,-14.0667 c -4e-5,-3.1388 -0.63875,-5.5722 -1.94079,-7.2666 -1.30212,-1.7083 -3.16066,-2.5667 -5.55921,-2.5667 -1.78183,0 -3.3224,0.4139 -4.63816,1.2333 -1.31581,0.8195 -2.44245,2.1112 -3.38816,3.8334 -0.56196,-1.6389 -1.41997,-2.9056 -2.59868,-3.7667 -1.16504,-0.8611 -2.60418,-1.3 -4.27632,-1.3 z m -167.269733,3.2333 c 2.0422,1e-4 3.645821,0.7389 4.769737,2.2667 1.13759,1.5278 1.710505,3.6889 1.710527,6.4667 -2.2e-5,2.7639 -0.572937,4.9055 -1.710527,6.4333 -1.123916,1.5278 -2.727537,2.3 -4.769737,2.3 -2.0285156,0 -3.5992419,-0.7722 -4.7368417,-2.3 -1.1239053,-1.5278 -1.6776421,-3.6694 -1.6776316,-6.4333 -1.05e-5,-2.7778 0.5537263,-4.9389 1.6776316,-6.4667 1.1375998,-1.5278 2.7083261,-2.2666 4.7368417,-2.2667 z m 26.973685,0.033 c 2.014789,0 3.590989,0.8083 4.769736,2.4333 1.178706,1.6111 1.776295,3.8028 1.776316,6.5667 -2.1e-5,2.7777 -0.59761,4.9555 -1.776316,6.5666 -1.178747,1.6111 -2.754947,2.4334 -4.769736,2.4334 -2.042221,0 -3.656811,-0.8028 -4.835527,-2.4 -1.165031,-1.6111 -1.743431,-3.8084 -1.743421,-6.6 -10e-6,-2.7917 0.597579,-5.0028 1.776316,-6.6 1.178716,-1.6111 2.774116,-2.4 4.802632,-2.4 z m 112.434208,0 c 2.01479,0 3.59099,0.8083 4.76974,2.4333 1.1787,1.6111 1.77629,3.8028 1.77631,6.5667 -2e-5,2.7777 -0.59761,4.9555 -1.77631,6.5666 -1.17875,1.6111 -2.75495,2.4334 -4.76974,2.4334 -2.04222,0 -3.65681,-0.8028 -4.83552,-2.4 -1.16504,-1.6111 -1.74344,-3.8084 -1.74343,-6.6 -1e-5,-2.7917 0.59758,-5.0028 1.77632,-6.6 1.17872,-1.6111 2.77412,-2.4 4.80263,-2.4 z m -52.105261,8.9 3.750001,0 0,0.8666 c -3e-5,2.5 -0.63324,4.5195 -1.907896,6.0334 -1.260979,1.5 -2.935873,2.2333 -5.032895,2.2333 -1.521389,0 -2.727526,-0.375 -3.618421,-1.1667 -0.8772,-0.8055 -1.3158,-1.9055 -1.315789,-3.2666 -1.1e-5,-1.7084 0.597579,-2.925 1.776316,-3.6334 1.178716,-0.7083 3.2922,-1.0666 6.348684,-1.0666 z"
       id="text2993"
       inkscape:connector-curvature="0" />
    <flowRoot
       xml:space="preserve"
       id="flowRoot2997"
       style="font-size:40px;font-style:normal;font-weight:normal;line-height:125%;letter-spacing:0px;word-spacing:0px;fill:#000000;fill-opacity:1;stroke:none;font-family:Sans"><flowRegion
         id="flowRegion2999"><rect
           id="rect3001"
           width="88.571426"
           height="51.42857"
           x="260"
           y="83.790756" /></flowRegion><flowPara
         id="flowPara3003">NomN</flowPara></flowRoot>    <text
       xml:space="preserve"
       style="font-size:40px;font-style:normal;font-weight:normal;line-height:125%;letter-spacing:0px;word-spacing:0px;fill:#000000;fill-opacity:1;stroke:none;font-family:Sans"
       x="202.85715"
       y="272.36218"
       id="text3009"
       sodipodi:linespacing="125%"><tspan
         sodipodi:role="line"
         id="tspan3011"
         x="202.85715"
         y="272.36218" /></text>
  </g>
</svg>
