<?xml version="1.0" encoding="UTF-8" standalone="no"?>
<!-- Created with Inkscape (http://www.inkscape.org/) -->

<svg
   xmlns:dc="http://purl.org/dc/elements/1.1/"
   xmlns:cc="http://creativecommons.org/ns#"
   xmlns:rdf="http://www.w3.org/1999/02/22-rdf-syntax-ns#"
   xmlns:svg="http://www.w3.org/2000/svg"
   xmlns="http://www.w3.org/2000/svg"
   xmlns:sodipodi="http://sodipodi.sourceforge.net/DTD/sodipodi-0.dtd"
   xmlns:inkscape="http://www.inkscape.org/namespaces/inkscape"
   width="245"
   height="40"
   id="svg2"
   version="1.1"
   inkscape:version="0.48.2 r9819"
   sodipodi:docname="logo.svg">
  <defs
     id="defs4" />
  <sodipodi:namedview
     id="base"
     pagecolor="#ffffff"
     bordercolor="#666666"
     borderopacity="1.0"
     inkscape:pageopacity="0.0"
     inkscape:pageshadow="2"
     inkscape:zoom="2.8"
     inkscape:cx="104.35864"
     inkscape:cy="62.857143"
     inkscape:document-units="px"
     inkscape:current-layer="text2985"
     showgrid="false"
     inkscape:window-width="1237"
     inkscape:window-height="763"
     inkscape:window-x="53"
     inkscape:window-y="0"
     inkscape:window-maximized="0" />
  <metadata
     id="metadata7">
    <rdf:RDF>
      <cc:Work
         rdf:about="">
        <dc:format>image/svg+xml</dc:format>
        <dc:type
           rdf:resource="http://purl.org/dc/dcmitype/StillImage" />
      </cc:Work>
    </rdf:RDF>
  </metadata>
  <g
     inkscape:label="Layer 1"
     inkscape:groupmode="layer"
     id="layer1"
     transform="translate(0,-1012.3622)">
    <g
       transform="scale(1.0027686,0.99723904)"
       style="font-size:40.51590347px;font-style:normal;font-variant:normal;font-weight:normal;font-stretch:normal;line-height:125%;letter-spacing:0px;word-spacing:0px;fill:#005c2d;fill-opacity:1;stroke:none;font-family:Mmmm Coffee;-inkscape-font-specification:Mmmm Coffee"
       id="text2985">
      <path
         d="m 0,1052.6422 c 0.16206306,0.2701 0.43216881,0.5672 0.81031808,0.8914 0.37814682,0.2971 0.76980022,0.5807 1.17496122,0.8508 0.4321668,0.2431 0.8373254,0.4592 1.2154771,0.6483 0.405155,0.162 0.7292819,0.2431 0.9723817,0.2431 l 20.4200149,0 c 0.270081,0 0.594208,-0.095 0.972382,-0.2837 0.405133,-0.189 0.810291,-0.4186 1.215477,-0.6887 0.405132,-0.2701 0.78328,-0.5537 1.134446,-0.8509 0.378119,-0.3241 0.66173,-0.5942 0.850833,-0.8103 L 0,1052.6422 m 4.5377812,-17.4218 0,14.0185 c -4.9e-6,0.135 0.040511,0.3376 0.1215477,0.6077 0.1080372,0.2431 0.2295848,0.4862 0.3646431,0.7293 0.1620581,0.2431 0.3241215,0.4592 0.4861909,0.6483 0.1890681,0.189 0.3646368,0.2836 0.5267067,0.2836 l 16.2873934,0 1.337025,-1.1345 0,-4.9429 c 1.458547,-0.2161 2.674023,-0.7698 3.646431,-1.6612 0.972353,-0.8913 1.458543,-2.1068 1.458572,-3.6464 -2.9e-5,-0.4862 -0.09457,-1.0129 -0.283611,-1.5801 -0.162092,-0.5942 -0.405187,-1.1344 -0.729286,-1.6206 -0.324155,-0.4862 -0.729314,-0.8914 -1.215477,-1.2155 -0.459207,-0.3241 -0.985913,-0.4862 -1.58012,-0.4862 l -20.4200158,0 m 6.3204808,12.722 c 0.270095,0 0.499685,0.054 0.68877,0.162 0.216073,0.081 0.418652,0.1891 0.607739,0.3242 0.189062,0.108 0.378136,0.2161 0.567223,0.3241 0.216071,0.081 0.445661,0.1216 0.68877,0.1215 0.297103,10e-5 0.540198,-0.041 0.729286,-0.1215 0.18906,-0.108 0.283597,-0.3241 0.283612,-0.6483 -1.5e-5,-0.054 -0.01352,-0.1215 -0.04052,-0.2025 -1.5e-5,-0.081 -1.5e-5,-0.1486 0,-0.2026 -0.2161,0 -0.526721,-0.014 -0.931866,-0.041 -0.378162,-0.054 -0.75631,-0.1486 -1.134445,-0.2836 -0.351151,-0.1621 -0.661772,-0.3647 -0.931866,-0.6078 -0.270118,-0.2431 -0.405171,-0.5537 -0.405159,-0.9318 l 0,-4.5378 c -1.2e-5,-0.5132 0.216073,-0.8914 0.648254,-1.1345 0.459168,-0.2701 0.972369,-0.4591 1.539605,-0.5672 0.567208,-0.135 1.10742,-0.2026 1.620636,-0.2026 0.540196,-0.027 0.904839,-0.04 1.093929,-0.04 l 0,9.8859 c -1.6e-5,0.3241 -0.108058,0.5672 -0.324127,0.7293 -0.18909,0.162 -0.432185,0.2836 -0.729286,0.3646 -0.270121,0.054 -0.553732,0.081 -0.850834,0.081 -0.297131,-0.027 -0.540226,-0.041 -0.729287,-0.041 l -1.539604,0 c -0.37816,-0.2701 -0.621255,-0.6347 -0.729286,-1.0939 -0.08104,-0.4592 -0.121559,-0.9048 -0.121548,-1.337 m 1.620636,-2.8767 c 0.05401,0.054 0.175556,0.1891 0.364643,0.4052 0.189061,0.1891 0.324114,0.3106 0.405159,0.3647 l 0.162064,0 0.20258,0 c 0.08102,-0.054 0.21607,-0.1756 0.405159,-0.3647 0.189059,-0.2161 0.310607,-0.3511 0.364643,-0.4052 -1.5e-5,-0.108 -1.5e-5,-0.3241 0,-0.6482 0.027,-0.3511 0.0405,-0.5807 0.04052,-0.6888 -1.5e-5,-0.216 -1.5e-5,-0.4456 0,-0.6887 0.02699,-0.2431 0.01349,-0.4727 -0.04052,-0.6888 -0.05404,-0.2161 -0.162078,-0.3917 -0.324127,-0.5267 -0.135068,-0.1621 -0.351152,-0.2431 -0.648255,-0.2431 -0.29713,0 -0.513215,0.081 -0.648254,0.2431 -0.135066,0.135 -0.229603,0.3106 -0.283612,0.5267 -0.05403,0.2161 -0.08104,0.4457 -0.08103,0.6888 0.027,0.2431 0.0405,0.4727 0.04052,0.6887 -1.2e-5,0.1081 -1.2e-5,0.3377 0,0.6888 0.027,0.3241 0.0405,0.5402 0.04052,0.6482 m 11.344453,-8.7109 c 0.054,0 0.175545,0 0.364643,0 0.21606,-0.027 0.351113,-0.041 0.405159,-0.041 0.513176,0 0.972356,0.1216 1.377541,0.3647 0.432143,0.2431 0.796786,0.5537 1.09393,0.9318 0.297088,0.3782 0.526678,0.8104 0.68877,1.2965 0.162035,0.4592 0.243067,0.9319 0.243095,1.4181 -2.8e-5,0.5402 -0.121576,1.0534 -0.364643,1.5396 -0.243123,0.4862 -0.56725,0.9184 -0.972382,1.2965 -0.378175,0.3512 -0.823849,0.6483 -1.337024,0.8914 -0.486216,0.216 -0.985912,0.3241 -1.499089,0.3241 l 0,-8.0222"
         style=""
         id="path3908" />
      <path
         d="m 29.595602,1052.6422 c 0.162063,0.2701 0.432169,0.5672 0.810318,0.8914 0.378147,0.2971 0.7698,0.5807 1.174961,0.8508 0.432167,0.2431 0.837326,0.4592 1.215477,0.6483 0.405155,0.162 0.729282,0.2431 0.972382,0.2431 l 20.420015,0 c 0.270081,0 0.594208,-0.095 0.972382,-0.2837 0.405133,-0.189 0.810291,-0.4186 1.215477,-0.6887 0.405132,-0.2701 0.78328,-0.5537 1.134446,-0.8509 0.378119,-0.3241 0.66173,-0.5942 0.850834,-0.8103 l -28.766292,0 m 4.537781,-17.4218 0,14.0185 c -5e-6,0.135 0.04051,0.3376 0.121548,0.6077 0.108037,0.2431 0.229585,0.4862 0.364643,0.7293 0.162058,0.2431 0.324122,0.4592 0.486191,0.6483 0.189068,0.189 0.364637,0.2836 0.526707,0.2836 l 16.287393,0 1.337025,-1.1345 0,-4.9429 c 1.458547,-0.2161 2.674023,-0.7698 3.646431,-1.6612 0.972353,-0.8913 1.458543,-2.1068 1.458573,-3.6464 -3e-5,-0.4862 -0.09457,-1.0129 -0.283612,-1.5801 -0.162092,-0.5942 -0.405187,-1.1344 -0.729286,-1.6206 -0.324155,-0.4862 -0.729314,-0.8914 -1.215477,-1.2155 -0.459207,-0.3241 -0.985913,-0.4862 -1.58012,-0.4862 l -20.420016,0 m 9.359174,3.7274 c 1.242472,10e-5 2.0798,0.3782 2.511986,1.1345 0.432152,0.7293 0.648237,1.7017 0.648254,2.9171 -1.7e-5,0.5133 -0.04053,1.0129 -0.121547,1.4991 -0.08105,0.4862 -0.229608,0.9184 -0.445675,1.2965 -0.216102,0.3512 -0.513218,0.6348 -0.89135,0.8509 -0.378164,0.2161 -0.850849,0.3241 -1.418057,0.3241 -0.24311,0 -0.526721,-0.027 -0.850834,-0.081 -0.32414,-0.081 -0.634762,-0.2026 -0.931865,-0.3647 -0.29713,-0.162 -0.55373,-0.3646 -0.769803,-0.6077 -0.189086,-0.2431 -0.283623,-0.5267 -0.283611,-0.8509 l 0,-4.1731 c -1.2e-5,-0.3241 0.08102,-0.6077 0.243095,-0.8508 0.162052,-0.2431 0.364631,-0.4457 0.607739,-0.6078 0.270093,-0.162 0.553704,-0.2836 0.850834,-0.3646 0.297103,-0.081 0.580714,-0.1215 0.850834,-0.1216 m -1.053414,4.0516 c -1.3e-5,0.1891 -1.3e-5,0.4187 0,0.6888 -1.3e-5,0.2701 0.027,0.5402 0.08103,0.8103 0.08102,0.2431 0.189061,0.4592 0.324127,0.6483 0.16205,0.1891 0.405145,0.2836 0.729287,0.2836 0.297102,0 0.540197,-0.094 0.729286,-0.2836 0.189059,-0.1891 0.337617,-0.4052 0.445675,-0.6483 0.135037,-0.2701 0.229574,-0.5402 0.283611,-0.8103 0.05401,-0.2971 0.08102,-0.5402 0.08103,-0.7293 -1.6e-5,-0.162 -0.04053,-0.3781 -0.121548,-0.6482 -0.05404,-0.2971 -0.148574,-0.5672 -0.283611,-0.8104 -0.108058,-0.27 -0.270121,-0.4996 -0.486191,-0.6887 -0.189089,-0.1891 -0.405173,-0.2836 -0.648254,-0.2836 -0.324142,0 -0.567237,0.094 -0.729287,0.2836 -0.135066,0.1891 -0.243108,0.4187 -0.324127,0.6887 -0.05403,0.2432 -0.08105,0.5133 -0.08103,0.8104 -1.3e-5,0.2701 -1.3e-5,0.4997 0,0.6887 m 10.97981,-6.6446 c 0.054,0 0.175545,0 0.364643,0 0.21606,-0.027 0.351113,-0.041 0.405159,-0.041 0.513176,0 0.972356,0.1216 1.377541,0.3647 0.432143,0.2431 0.796786,0.5537 1.09393,0.9318 0.297088,0.3782 0.526678,0.8104 0.68877,1.2965 0.162035,0.4592 0.243067,0.9319 0.243095,1.4181 -2.8e-5,0.5402 -0.121576,1.0534 -0.364643,1.5396 -0.243123,0.4862 -0.56725,0.9184 -0.972381,1.2965 -0.378176,0.3512 -0.82385,0.6483 -1.337025,0.8914 -0.486216,0.216 -0.985912,0.3241 -1.499089,0.3241 l 0,-8.0222"
         style=""
         id="path3910" />
      <path
         d="m 59.191204,1052.6422 c 0.162063,0.2701 0.432169,0.5672 0.810318,0.8914 0.378147,0.2971 0.7698,0.5807 1.174961,0.8508 0.432167,0.2431 0.837326,0.4592 1.215477,0.6483 0.405155,0.162 0.729282,0.2431 0.972382,0.2431 l 20.420015,0 c 0.270081,0 0.594208,-0.095 0.972382,-0.2837 0.405133,-0.189 0.810291,-0.4186 1.215477,-0.6887 0.405132,-0.2701 0.78328,-0.5537 1.134446,-0.8509 0.378119,-0.3241 0.66173,-0.5942 0.850834,-0.8103 l -28.766292,0 m 4.537781,-17.4218 0,14.0185 c -5e-6,0.135 0.04051,0.3376 0.121548,0.6077 0.108037,0.2431 0.229585,0.4862 0.364643,0.7293 0.162058,0.2431 0.324122,0.4592 0.486191,0.6483 0.189068,0.189 0.364637,0.2836 0.526707,0.2836 l 16.287393,0 1.337025,-1.1345 0,-4.9429 c 1.458547,-0.2161 2.674023,-0.7698 3.646431,-1.6612 0.972353,-0.8913 1.458543,-2.1068 1.458573,-3.6464 -3e-5,-0.4862 -0.09457,-1.0129 -0.283612,-1.5801 -0.162092,-0.5942 -0.405187,-1.1344 -0.729286,-1.6206 -0.324155,-0.4862 -0.729314,-0.8914 -1.215477,-1.2155 -0.459207,-0.3241 -0.985913,-0.4862 -1.58012,-0.4862 l -20.420016,0 m 8.143697,5.6722 c -0.675278,-0.2161 -1.01291,-0.5942 -1.012898,-1.1344 -1.2e-5,-0.054 -1.2e-5,-0.1216 0,-0.2026 0.027,-0.108 0.0405,-0.1621 0.04052,-0.1621 0.05401,-0.054 0.189062,-0.1755 0.405159,-0.3646 0.216072,-0.2161 0.33762,-0.3511 0.364643,-0.4052 0.027,-0.081 0.05401,-0.2296 0.08103,-0.4457 0.05401,-0.216 0.09452,-0.4456 0.121548,-0.6887 0.05401,-0.2431 0.09452,-0.4727 0.121548,-0.6888 0.027,-0.2161 0.0405,-0.3646 0.04051,-0.4457 0.05401,-0.054 0.175556,-0.1215 0.364644,-0.2025 0.216071,-0.1081 0.351123,-0.1621 0.405159,-0.1621 0.05401,0 0.121533,0.054 0.202579,0.1621 0.108028,0.081 0.162049,0.1485 0.162064,0.2025 0.027,0.054 0.05401,0.2026 0.08103,0.4457 0.027,0.2161 0.05401,0.4592 0.08103,0.7293 0.05401,0.2431 0.09452,0.4727 0.121548,0.6888 0.05401,0.2161 0.09452,0.3511 0.121548,0.4051 0.027,0.054 0.108027,0.1216 0.243095,0.2026 0.162049,0.054 0.324112,0.1216 0.486191,0.2026 0.189059,0.081 0.351122,0.1621 0.486191,0.2431 0.162047,0.054 0.256584,0.095 0.283611,0.1215 -1.6e-5,0 -1.6e-5,0.041 0,0.1216 0.02699,0.081 0.0405,0.1485 0.04052,0.2025 -1.6e-5,0.3512 -0.121564,0.6078 -0.364643,0.7699 -0.243111,0.162 -0.513217,0.2971 -0.810318,0.4051 l 0,4.5378 c 0.513186,0.1891 0.850818,0.4052 1.012898,0.6482 0.162047,0.2161 0.243079,0.5943 0.243095,1.1345 -0.08105,0 -0.243112,0 -0.486191,0 -0.2161,-0.027 -0.459196,-0.054 -0.729286,-0.081 -0.243111,-0.027 -0.486206,-0.054 -0.729286,-0.081 -0.216099,-0.027 -0.364658,-0.054 -0.445675,-0.081 -0.135067,-0.054 -0.324141,-0.1756 -0.567223,-0.3646 -0.243109,-0.1891 -0.364656,-0.3242 -0.364643,-0.4052 l 0,-5.3076 m 11.141873,-4.5378 c 0.054,0 0.175545,0 0.364643,0 0.21606,-0.027 0.351113,-0.041 0.405159,-0.041 0.513176,0 0.972356,0.1216 1.377541,0.3647 0.432143,0.2431 0.796786,0.5537 1.09393,0.9318 0.297088,0.3782 0.526678,0.8104 0.68877,1.2965 0.162035,0.4592 0.243067,0.9319 0.243095,1.4181 -2.8e-5,0.5402 -0.121576,1.0534 -0.364643,1.5396 -0.243123,0.4862 -0.56725,0.9184 -0.972381,1.2965 -0.378176,0.3512 -0.82385,0.6483 -1.337025,0.8914 -0.486216,0.216 -0.985912,0.3241 -1.499089,0.3241 l 0,-8.0222"
         style=""
         id="path3912" />
      <path
         d="m 88.786804,1052.6422 c 0.162063,0.2701 0.432169,0.5672 0.810318,0.8914 0.378147,0.2971 0.7698,0.5807 1.174961,0.8508 0.432167,0.2431 0.837326,0.4592 1.215478,0.6483 0.405155,0.162 0.729282,0.2431 0.972381,0.2431 l 20.420018,0 c 0.27008,0 0.59421,-0.095 0.97238,-0.2837 0.40513,-0.189 0.81029,-0.4186 1.21548,-0.6887 0.40513,-0.2701 0.78328,-0.5537 1.13444,-0.8509 0.37812,-0.3241 0.66173,-0.5942 0.85084,-0.8103 l -28.766296,0 m 4.537781,-17.4218 0,14.0185 c -5e-6,0.135 0.04051,0.3376 0.121548,0.6077 0.108037,0.2431 0.229585,0.4862 0.364643,0.7293 0.162058,0.2431 0.324122,0.4592 0.486191,0.6483 0.189068,0.189 0.364637,0.2836 0.526707,0.2836 l 16.287396,0 1.33702,-1.1345 0,-4.9429 c 1.45855,-0.2161 2.67402,-0.7698 3.64643,-1.6612 0.97236,-0.8913 1.45855,-2.1068 1.45858,-3.6464 -3e-5,-0.4862 -0.0946,-1.0129 -0.28362,-1.5801 -0.16209,-0.5942 -0.40518,-1.1344 -0.72928,-1.6206 -0.32416,-0.4862 -0.72932,-0.8914 -1.21548,-1.2155 -0.45921,-0.3241 -0.98591,-0.4862 -1.58012,-0.4862 l -20.420015,0 m 8.143695,5.6722 c -0.67528,-0.2161 -1.01291,-0.5942 -1.0129,-1.1344 -1e-5,-0.054 -1e-5,-0.1216 0,-0.2026 0.027,-0.108 0.0405,-0.1621 0.0405,-0.1621 0.054,-0.054 0.18906,-0.1755 0.40516,-0.3646 0.21607,-0.2161 0.33762,-0.3511 0.36464,-0.4052 0.027,-0.081 0.054,-0.2296 0.081,-0.4457 0.054,-0.216 0.0945,-0.4456 0.12155,-0.6887 0.054,-0.2431 0.0945,-0.4727 0.12155,-0.6888 0.027,-0.2161 0.0405,-0.3646 0.0405,-0.4457 0.054,-0.054 0.17555,-0.1215 0.36464,-0.2025 0.21607,-0.1081 0.35112,-0.1621 0.40516,-0.1621 0.054,0 0.12153,0.054 0.20258,0.1621 0.10803,0.081 0.16205,0.1485 0.16206,0.2025 0.027,0.054 0.054,0.2026 0.081,0.4457 0.027,0.2161 0.054,0.4592 0.081,0.7293 0.054,0.2431 0.0945,0.4727 0.12155,0.6888 0.054,0.2161 0.0945,0.3511 0.12155,0.4051 0.027,0.054 0.10803,0.1216 0.2431,0.2026 0.16204,0.054 0.32411,0.1216 0.48619,0.2026 0.18905,0.081 0.35112,0.1621 0.48619,0.2431 0.16204,0.054 0.25658,0.095 0.28361,0.1215 -2e-5,0 -2e-5,0.041 0,0.1216 0.027,0.081 0.0405,0.1485 0.0405,0.2025 -10e-6,0.3512 -0.12156,0.6078 -0.36464,0.7699 -0.24311,0.162 -0.51322,0.2971 -0.81032,0.4051 l 0,4.5378 c 0.51319,0.1891 0.85082,0.4052 1.0129,0.6482 0.16205,0.2161 0.24308,0.5943 0.2431,1.1345 -0.081,0 -0.24312,0 -0.48619,0 -0.21611,-0.027 -0.4592,-0.054 -0.72929,-0.081 -0.24311,-0.027 -0.48621,-0.054 -0.72929,-0.081 -0.2161,-0.027 -0.36465,-0.054 -0.44567,-0.081 -0.13507,-0.054 -0.32414,-0.1756 -0.56722,-0.3646 -0.24311,-0.1891 -0.36466,-0.3242 -0.36465,-0.4052 l 0,-5.3076 m 11.14188,-4.5378 c 0.054,0 0.17554,0 0.36464,0 0.21606,-0.027 0.35111,-0.041 0.40516,-0.041 0.51317,0 0.97235,0.1216 1.37754,0.3647 0.43214,0.2431 0.79678,0.5537 1.09393,0.9318 0.29709,0.3782 0.52668,0.8104 0.68877,1.2965 0.16203,0.4592 0.24307,0.9319 0.24309,1.4181 -2e-5,0.5402 -0.12157,1.0534 -0.36464,1.5396 -0.24312,0.4862 -0.56725,0.9184 -0.97238,1.2965 -0.37818,0.3512 -0.82385,0.6483 -1.33703,0.8914 -0.48621,0.216 -0.98591,0.3241 -1.49908,0.3241 l 0,-8.0222"
         style=""
         id="path3914" />
      <path
         d="m 118.38241,1052.6422 c 0.16206,0.2701 0.43217,0.5672 0.81032,0.8914 0.37814,0.2971 0.7698,0.5807 1.17496,0.8508 0.43216,0.2431 0.83732,0.4592 1.21547,0.6483 0.40516,0.162 0.72929,0.2431 0.97239,0.2431 l 20.42001,0 c 0.27008,0 0.59421,-0.095 0.97238,-0.2837 0.40514,-0.189 0.81029,-0.4186 1.21548,-0.6887 0.40513,-0.2701 0.78328,-0.5537 1.13445,-0.8509 0.37812,-0.3241 0.66173,-0.5942 0.85083,-0.8103 l -28.76629,0 m 4.53778,-17.4218 0,14.0185 c -1e-5,0.135 0.0405,0.3376 0.12155,0.6077 0.10803,0.2431 0.22958,0.4862 0.36464,0.7293 0.16206,0.2431 0.32412,0.4592 0.48619,0.6483 0.18907,0.189 0.36464,0.2836 0.52671,0.2836 l 16.28739,0 1.33703,-1.1345 0,-4.9429 c 1.45854,-0.2161 2.67402,-0.7698 3.64643,-1.6612 0.97235,-0.8913 1.45854,-2.1068 1.45857,-3.6464 -3e-5,-0.4862 -0.0946,-1.0129 -0.28361,-1.5801 -0.16209,-0.5942 -0.40519,-1.1344 -0.72929,-1.6206 -0.32415,-0.4862 -0.72931,-0.8914 -1.21548,-1.2155 -0.4592,-0.3241 -0.98591,-0.4862 -1.58012,-0.4862 l -20.42001,0 m 7.17131,12.1142 c -0.7563,-0.5672 -1.13445,-1.3235 -1.13444,-2.2689 -1e-5,-0.5672 0.10803,-1.0128 0.32413,-1.337 0.21607,-0.3241 0.49968,-0.5672 0.85083,-0.7293 0.37814,-0.189 0.78329,-0.3106 1.21548,-0.3646 0.45916,-0.081 0.93185,-0.1486 1.41805,-0.2026 -1e-5,-0.054 -1e-5,-0.1485 0,-0.2836 0.027,-0.135 0.0405,-0.2296 0.0405,-0.2836 -2e-5,-0.2971 -0.0405,-0.5267 -0.12155,-0.6888 -0.054,-0.189 -0.28362,-0.2836 -0.68877,-0.2836 -0.29713,0 -0.54022,0.081 -0.72928,0.2431 -0.18909,0.1351 -0.39167,0.2836 -0.60774,0.4457 -0.18909,0.1621 -0.40517,0.3241 -0.64826,0.4862 -0.21609,0.135 -0.51321,0.2026 -0.89135,0.2026 -1e-5,-1.0264 0.22958,-1.7692 0.68877,-2.2284 0.48618,-0.4592 1.21547,-0.6888 2.18786,-0.6888 0.16205,0 0.39164,0.014 0.68877,0.04 0.2971,0.027 0.58071,0.095 0.85084,0.2026 0.2971,0.081 0.5537,0.2026 0.7698,0.3646 0.21607,0.1351 0.33761,0.3242 0.36464,0.5673 l 0.36464,6.442 c -1e-5,0.054 -0.054,0.1756 -0.16206,0.3646 -0.0811,0.1891 -0.14857,0.3107 -0.20258,0.3647 -0.027,0 -0.054,0.014 -0.081,0.041 -0.027,0 -0.0675,0 -0.12155,0 -0.027,0 -0.0675,0 -0.12155,0 -0.027,-0.027 -0.054,-0.041 -0.081,-0.041 -0.054,0 -0.17558,-0.054 -0.36464,-0.1621 -0.18909,-0.135 -0.31064,-0.2026 -0.36464,-0.2026 -0.13507,0 -0.36466,0 -0.68877,0 -0.32415,-0.027 -0.67528,-0.04 -1.05342,-0.04 -0.35115,0 -0.68878,0.014 -1.0129,0.04 -0.32414,0 -0.55372,0 -0.68877,0 m 0.72929,-2.2689 c -10e-6,0.2161 0.054,0.4052 0.16206,0.5673 0.10803,0.135 0.32412,0.2026 0.64826,0.2026 0.16205,0 0.39164,-0.1081 0.68877,-0.3242 0.2971,-0.2161 0.44566,-0.4321 0.44567,-0.6482 -1e-5,-0.2161 -0.081,-0.3647 -0.24309,-0.4457 -0.13507,-0.081 -0.31064,-0.1215 -0.52671,-0.1216 -0.27012,10e-5 -0.54022,0.054 -0.81032,0.1621 -0.2431,0.081 -0.36465,0.2836 -0.36464,0.6077 m 11.38497,-8.7109 c 0.054,0 0.17554,0 0.36464,0 0.21606,-0.027 0.35112,-0.041 0.40516,-0.041 0.51318,0 0.97236,0.1216 1.37754,0.3647 0.43215,0.2431 0.79679,0.5537 1.09393,0.9318 0.29709,0.3782 0.52668,0.8104 0.68877,1.2965 0.16204,0.4592 0.24307,0.9319 0.2431,1.4181 -3e-5,0.5402 -0.12158,1.0534 -0.36465,1.5396 -0.24312,0.4862 -0.56725,0.9184 -0.97238,1.2965 -0.37817,0.3512 -0.82385,0.6483 -1.33702,0.8914 -0.48622,0.216 -0.98591,0.3241 -1.49909,0.3241 l 0,-8.0222"
         style=""
         id="path3916" />
      <path
         d="m 147.97801,1053.0069 2.26889,2.2689 29.90074,0 c 0.081,0 0.24306,-0.081 0.48619,-0.2431 0.27007,-0.1891 0.54018,-0.4052 0.81032,-0.6483 0.29708,-0.2431 0.55368,-0.4862 0.7698,-0.7293 0.21605,-0.2701 0.32409,-0.4862 0.32413,-0.6482 l -34.56007,0 m 6.03687,-21.3924 0,17.6244 c 0,0.2971 0.13505,0.6077 0.40516,0.9319 0.2701,0.2971 0.58072,0.5807 0.93187,0.8508 0.37814,0.2431 0.75628,0.4457 1.13444,0.6077 0.40515,0.1621 0.72928,0.2431 0.97238,0.2431 l 16.24688,0 c 0.8373,0 1.49906,-0.2566 1.98528,-0.7698 0.48616,-0.5132 0.86431,-1.1209 1.13445,-1.8232 0.27007,-0.7293 0.44564,-1.4721 0.5267,-2.2284 0.081,-0.7833 0.13503,-1.445 0.16207,-1.9853 l 6.80667,-7.2118 c 0.40512,-0.4321 0.63471,-0.8508 0.68877,-1.256 0.081,-0.4051 0.12151,-0.8643 0.12155,-1.3775 -4e-5,-0.2431 -0.0406,-0.5537 -0.12155,-0.9319 -0.0541,-0.4051 -0.1621,-0.7833 -0.32413,-1.1344 -0.13509,-0.3782 -0.33767,-0.6888 -0.60774,-0.9319 -0.24313,-0.2701 -0.54025,-0.4051 -0.89135,-0.4052 l -4.53778,0 -1.13444,0.7293 -0.40516,-0.9318 -6.48255,0 c -2e-5,-0.054 -0.027,-0.1621 -0.081,-0.3242 -0.027,-0.162 -0.0675,-0.3376 -0.12155,-0.5267 -0.027,-0.189 -0.0676,-0.3646 -0.12155,-0.5267 -0.027,-0.162 -0.027,-0.2701 0,-0.3241 0.10802,-0.2701 0.25658,-0.5402 0.44568,-0.8103 0.21606,-0.2701 0.41864,-0.5402 0.60774,-0.8103 0.21606,-0.2701 0.40513,-0.5537 0.56722,-0.8509 0.16204,-0.2971 0.25658,-0.6077 0.28361,-0.9318 0.054,-0.7293 0.0675,-1.3911 0.0405,-1.9853 -0.027,-0.6212 -0.027,-1.2155 0,-1.7827 0.054,-0.5672 0.14853,-1.1209 0.28361,-1.6612 0.16204,-0.5672 0.43214,-1.1614 0.81032,-1.7827 0.16204,0.1621 0.27008,0.3647 0.32412,0.6078 0.081,0.2431 0.12153,0.4997 0.12155,0.7698 0.027,0.2431 0.027,0.4862 0,0.7293 -0.027,0.2161 -0.054,0.4052 -0.081,0.5672 0.24307,-0.162 0.43214,-0.3781 0.56722,-0.6483 0.16204,-0.27 0.24307,-0.5537 0.2431,-0.8508 -3e-5,-0.4321 -0.054,-0.8643 -0.16206,-1.2965 -0.10807,-0.4592 -0.22962,-0.9048 -0.36465,-1.337 -0.13508,-0.4592 -0.27013,-0.9049 -0.40516,-1.3371 -0.13508,-0.4591 -0.21611,-0.9048 -0.24309,-1.337 -0.32416,0.3242 -0.54024,0.7023 -0.64826,1.1345 -0.0811,0.4322 -0.13507,0.8913 -0.16206,1.3775 -0.027,0.4592 -0.0541,0.9319 -0.081,1.4181 -3e-5,0.4862 -0.0811,0.9319 -0.2431,1.337 -0.054,0.1351 -0.12157,0.3241 -0.20258,0.5672 -0.0811,0.2431 -0.16209,0.4862 -0.24309,0.7293 -0.0811,0.2431 -0.16209,0.4592 -0.2431,0.6482 -0.054,0.1892 -0.0811,0.2972 -0.081,0.3242 -2e-5,0.108 -0.0135,0.3782 -0.0405,0.8103 -0.027,0.4052 -0.0675,0.8373 -0.12154,1.2965 -0.027,0.4592 -0.0676,0.8914 -0.12155,1.2965 -0.027,0.4052 -0.054,0.6618 -0.081,0.7698 -0.027,0.081 -0.12157,0.2701 -0.28361,0.5672 -0.13508,0.2972 -0.29714,0.6213 -0.4862,0.9724 -0.16208,0.3242 -0.32414,0.6348 -0.48619,0.9319 -0.13507,0.2971 -0.2161,0.4862 -0.24309,0.5672 -0.054,0.081 -0.13508,0.2701 -0.2431,0.5672 -0.0811,0.2972 -0.13507,0.4862 -0.16206,0.5672 -0.13507,-0.162 -0.29714,-0.3646 -0.48619,-0.6077 -0.16209,-0.2431 -0.32415,-0.4862 -0.48619,-0.7293 -0.16209,-0.2701 -0.29714,-0.5402 -0.40516,-0.8103 -0.10806,-0.2701 -0.16208,-0.4997 -0.16206,-0.6888 -2e-5,-0.027 -2e-5,-0.054 0,-0.081 0.027,-0.054 0.0405,-0.095 0.0405,-0.1215 0.10802,-0.2701 0.24308,-0.5807 0.40516,-0.9319 0.16204,-0.3781 0.32411,-0.7563 0.48619,-1.1345 0.16204,-0.3781 0.2971,-0.7562 0.40516,-1.1344 0.13503,-0.4051 0.20256,-0.7833 0.20258,-1.1344 -2e-5,-0.6753 -0.10806,-1.3505 -0.32413,-2.0258 -0.2161,-0.7023 -0.4592,-1.4046 -0.72928,-2.1069 -0.27013,-0.7022 -0.52673,-1.4045 -0.76981,-2.1068 -0.24311,-0.7292 -0.39167,-1.4855 -0.44567,-2.2689 -0.18909,0.2972 -0.32415,0.6888 -0.40516,1.175 -0.054,0.4862 -0.081,0.9859 -0.081,1.4991 -2e-5,0.4862 0.0135,0.9454 0.0405,1.3775 0.054,0.4052 0.081,0.6888 0.081,0.8508 -0.54023,0.1621 -0.91838,0.4457 -1.13445,0.8509 -0.2161,0.3782 -0.36466,0.8103 -0.44567,1.2965 -0.0811,0.4862 -0.13507,0.9859 -0.16207,1.4991 -2e-5,0.4862 -0.054,0.9184 -0.16206,1.2965 -0.027,0.054 -0.0946,0.1891 -0.20258,0.4051 -0.10806,0.2162 -0.22961,0.4592 -0.36464,0.7293 -0.13507,0.2431 -0.27013,0.4862 -0.40516,0.7293 -0.10806,0.2161 -0.16208,0.3512 -0.16207,0.4052 -1e-5,0.027 -0.0135,0.2026 -0.0405,0.5267 -2e-5,0.3241 -2e-5,0.5672 0,0.7293 -2e-5,0.5672 0.027,1.0804 0.081,1.5396 0.054,0.4322 0.2971,0.8778 0.72929,1.337 l -3.40334,0 c -0.35115,0 -0.60775,-0.135 -0.7698,-0.4052 -0.16208,-0.2701 -0.28363,-0.5807 -0.36465,-0.9318 -0.054,-0.3782 -0.081,-0.7293 -0.081,-1.0534 -1e-5,-0.3512 -1e-5,-0.6078 0,-0.7699 -1e-5,-0.8373 0.17556,-1.5935 0.52671,-2.2688 0.37813,-0.6753 0.78329,-1.3235 1.21548,-1.9448 0.43215,-0.6482 0.8238,-1.31 1.17496,-1.9853 0.37813,-0.7022 0.5672,-1.499 0.56722,-2.3904 -2e-5,-0.3241 -0.054,-0.6617 -0.16206,-1.0129 -0.0811,-0.3781 -0.2161,-0.7293 -0.40516,-1.0534 -0.16208,-0.3511 -0.36466,-0.6753 -0.60774,-0.9724 -0.2161,-0.2971 -0.4592,-0.5402 -0.72929,-0.7293 l 0,0.2026 c -1e-5,0.5402 0.0675,1.0534 0.20258,1.5396 0.13504,0.4592 0.20257,0.9589 0.20258,1.4991 -1e-5,1.0534 -0.2161,2.0393 -0.64825,2.9576 -0.40517,0.8914 -0.95889,1.7287 -1.66115,2.512 -0.13507,-0.108 -0.29713,-0.2836 -0.4862,-0.5267 -0.16207,-0.2431 -0.2431,-0.4456 -0.24309,-0.6077 l 0,-6.0369 -0.40516,-0.7698 c -0.24311,0.8104 -0.43218,1.5261 -0.56722,2.1473 -0.13507,0.6213 -0.20259,1.2966 -0.20258,2.0258 -1e-5,0.1081 -1e-5,0.2567 0,0.4457 -1e-5,0.1891 0.0135,0.2837 0.0405,0.2836 0.027,0.1081 0.0945,0.3512 0.20258,0.7293 0.10804,0.3512 0.22958,0.7428 0.36465,1.175 0.13504,0.4322 0.25659,0.8373 0.36464,1.2154 0.10803,0.3512 0.17556,0.5808 0.20258,0.6888 0.081,0.5673 0.13504,1.121 0.16206,1.6612 0.027,0.5402 0.0675,1.0669 0.12155,1.5801 0.081,0.5132 0.20257,1.0264 0.36464,1.5396 0.18907,0.4862 0.47268,0.9724 0.85084,1.4586 l -6.07739,0 m 8.18421,2.8361 0.16207,0 c 0.13504,0.108 0.33762,0.3106 0.60774,0.6077 0.2971,0.2701 0.47267,0.4457 0.5267,0.5267 l 4.74036,7.9411 0,-8.7109 c -2e-5,0 0.12153,-0.041 0.36465,-0.1215 0.24307,-0.108 0.43215,-0.1891 0.56722,-0.2431 l 0.20258,0 0.20258,0 c 0.054,0.054 0.12152,0.1216 0.20258,0.2026 0.10802,0.081 0.16204,0.135 0.16206,0.162 l 0,14.7883 c -2e-5,0.027 -0.0946,0.081 -0.28361,0.1621 -0.1891,0.081 -0.35116,0.1486 -0.48619,0.2026 -2e-5,0 -0.027,0.014 -0.081,0.041 -0.054,0 -0.0946,0 -0.12155,0 -0.027,0 -0.0676,0 -0.12155,0 -0.027,-0.027 -0.0405,-0.041 -0.0405,-0.041 -0.0811,-0.054 -0.21611,-0.1756 -0.40516,-0.3647 -0.1891,-0.189 -0.31064,-0.3106 -0.36465,-0.3646 l -5.105,-8.7109 0,8.7109 c -1e-5,0.027 -0.12156,0.135 -0.36464,0.3241 -0.24311,0.1891 -0.43219,0.3241 -0.56723,0.4052 -0.027,0 -0.0675,0.014 -0.12154,0.041 -0.027,0 -0.054,0 -0.081,0 -0.027,0 -0.0675,0 -0.12155,0 -0.027,-0.027 -0.054,-0.041 -0.081,-0.041 -0.054,-0.027 -0.13507,-0.081 -0.2431,-0.1621 -0.0811,-0.108 -0.12156,-0.1756 -0.12155,-0.2026 l 0,-14.7883 c -1e-5,0 0.0945,-0.041 0.28361,-0.1215 0.18906,-0.108 0.35113,-0.1891 0.48619,-0.2431 l 0.20258,0 m 18.92093,-1.175 c 0.081,0 0.28358,0.014 0.60774,0.041 0.3511,10e-5 0.58069,10e-5 0.68877,0 0.48616,0.1351 0.74276,0.3917 0.7698,0.7698 0.027,0.3782 0.0405,0.7293 0.0405,1.0535 -4e-5,0.3241 -4e-5,0.6752 0,1.0534 -4e-5,0.3511 -0.13509,0.6617 -0.40516,0.9318 l -5.30758,5.2671 0,-7.1713 c -3e-5,-0.027 0.054,-0.094 0.16206,-0.2026 0.10801,-0.135 0.24306,-0.2836 0.40516,-0.4457 0.16203,-0.162 0.32409,-0.3241 0.48619,-0.4862 0.18904,-0.162 0.3376,-0.2971 0.44567,-0.4051 0.3241,-0.2701 0.64823,-0.4052 0.97239,-0.4052 0.32409,0 0.70224,0 1.13444,0 m -16.93565,-4.5378 c -1e-5,-0.7832 0.0945,-1.391 0.28361,-1.8232 0.21607,-0.4321 0.43216,-0.8373 0.64826,-1.2155 0.21607,-0.4051 0.40514,-0.8778 0.56722,-1.418 0.16205,-0.5402 0.18906,-1.31 0.081,-2.3094 0.054,-0.081 0.17555,-0.2161 0.36465,-0.4052 0.18905,-0.189 0.32411,-0.3106 0.40516,-0.3646 -2e-5,0 0.0135,0 0.0405,0 0.054,-0.027 0.0945,-0.041 0.12155,-0.041 0.027,0 0.054,0.014 0.081,0.041 0.054,0 0.0945,0 0.12155,0 0.35112,0.6753 0.5672,1.229 0.64825,1.6611 0.10803,0.4052 0.16205,0.9319 0.16207,1.5802 -2e-5,0.6752 -0.14858,1.31 -0.44568,1.9042 -0.27012,0.5673 -0.40518,1.1885 -0.40516,1.8637 -2e-5,0.6213 0.0945,1.148 0.28361,1.5802 0.21607,0.4321 0.51319,0.9724 0.89135,1.6206 l -3.03869,0 c -0.18909,0 -0.33765,-0.1215 -0.44567,-0.3647 -0.10806,-0.243 -0.18909,-0.5131 -0.2431,-0.8103 -0.054,-0.2971 -0.0945,-0.5942 -0.12155,-0.8913 -1e-5,-0.2971 -1e-5,-0.4997 0,-0.6078"
         style=""
         id="path3918" />
      <path
         d="m 185.96167,1052.6422 c 0.16206,0.2701 0.43217,0.5672 0.81032,0.8914 0.37814,0.2971 0.7698,0.5807 1.17496,0.8508 0.43217,0.2431 0.83732,0.4592 1.21548,0.6483 0.40515,0.162 0.72928,0.2431 0.97238,0.2431 l 20.42001,0 c 0.27008,0 0.59421,-0.095 0.97239,-0.2837 0.40513,-0.189 0.81029,-0.4186 1.21547,-0.6887 0.40513,-0.2701 0.78328,-0.5537 1.13445,-0.8509 0.37812,-0.3241 0.66173,-0.5942 0.85083,-0.8103 l -28.76629,0 m 4.53778,-17.4218 0,14.0185 c 0,0.135 0.0405,0.3376 0.12155,0.6077 0.10804,0.2431 0.22958,0.4862 0.36464,0.7293 0.16206,0.2431 0.32412,0.4592 0.48619,0.6483 0.18907,0.189 0.36464,0.2836 0.52671,0.2836 l 16.28739,0 1.33703,-1.1345 0,-4.9429 c 1.45854,-0.2161 2.67402,-0.7698 3.64643,-1.6612 0.97235,-0.8913 1.45854,-2.1068 1.45857,-3.6464 -3e-5,-0.4862 -0.0946,-1.0129 -0.28361,-1.5801 -0.16209,-0.5942 -0.40519,-1.1344 -0.72929,-1.6206 -0.32415,-0.4862 -0.72931,-0.8914 -1.21547,-1.2155 -0.45921,-0.3241 -0.98592,-0.4862 -1.58012,-0.4862 l -20.42002,0 m 9.35917,3.7274 c 1.24248,10e-5 2.0798,0.3782 2.51199,1.1345 0.43215,0.7293 0.64824,1.7017 0.64826,2.9171 -2e-5,0.5133 -0.0405,1.0129 -0.12155,1.4991 -0.0811,0.4862 -0.22961,0.9184 -0.44568,1.2965 -0.2161,0.3512 -0.51322,0.6348 -0.89135,0.8509 -0.37816,0.2161 -0.85085,0.3241 -1.41805,0.3241 -0.24311,0 -0.52672,-0.027 -0.85084,-0.081 -0.32414,-0.081 -0.63476,-0.2026 -0.93186,-0.3647 -0.29713,-0.162 -0.55373,-0.3646 -0.76981,-0.6077 -0.18908,-0.2431 -0.28362,-0.5267 -0.28361,-0.8509 l 0,-4.1731 c -1e-5,-0.3241 0.081,-0.6077 0.2431,-0.8508 0.16205,-0.2431 0.36463,-0.4457 0.60774,-0.6078 0.27009,-0.162 0.5537,-0.2836 0.85083,-0.3646 0.2971,-0.081 0.58071,-0.1215 0.85083,-0.1216 m -1.05341,4.0516 c -10e-6,0.1891 -10e-6,0.4187 0,0.6888 -10e-6,0.2701 0.027,0.5402 0.081,0.8103 0.081,0.2431 0.18906,0.4592 0.32413,0.6483 0.16205,0.1891 0.40515,0.2836 0.72929,0.2836 0.2971,0 0.54019,-0.094 0.72928,-0.2836 0.18906,-0.1891 0.33762,-0.4052 0.44568,-0.6483 0.13504,-0.2701 0.22957,-0.5402 0.28361,-0.8103 0.054,-0.2971 0.081,-0.5402 0.081,-0.7293 -1e-5,-0.162 -0.0405,-0.3781 -0.12155,-0.6482 -0.054,-0.2971 -0.14857,-0.5672 -0.28361,-0.8104 -0.10806,-0.27 -0.27012,-0.4996 -0.48619,-0.6887 -0.18909,-0.1891 -0.40517,-0.2836 -0.64825,-0.2836 -0.32414,0 -0.56724,0.094 -0.72929,0.2836 -0.13507,0.1891 -0.24311,0.4187 -0.32413,0.6887 -0.054,0.2432 -0.081,0.5133 -0.081,0.8104 -10e-6,0.2701 -10e-6,0.4997 0,0.6887 m 10.97981,-6.6446 c 0.054,0 0.17555,0 0.36464,0 0.21606,-0.027 0.35112,-0.041 0.40516,-0.041 0.51318,0 0.97236,0.1216 1.37754,0.3647 0.43215,0.2431 0.79679,0.5537 1.09393,0.9318 0.29709,0.3782 0.52668,0.8104 0.68877,1.2965 0.16204,0.4592 0.24307,0.9319 0.2431,1.4181 -3e-5,0.5402 -0.12158,1.0534 -0.36464,1.5396 -0.24313,0.4862 -0.56725,0.9184 -0.97239,1.2965 -0.37817,0.3512 -0.82385,0.6483 -1.33702,0.8914 -0.48622,0.216 -0.98591,0.3241 -1.49909,0.3241 l 0,-8.0222"
         style=""
         id="path3920" />
      <path
         d="m 215.55727,1052.6422 c 0.16206,0.2701 0.43217,0.5672 0.81031,0.8914 0.37815,0.2971 0.7698,0.5807 1.17497,0.8508 0.43216,0.2431 0.83732,0.4592 1.21547,0.6483 0.40516,0.162 0.72928,0.2431 0.97238,0.2431 l 20.42002,0 c 0.27008,0 0.59421,-0.095 0.97238,-0.2837 0.40513,-0.189 0.81029,-0.4186 1.21548,-0.6887 0.40513,-0.2701 0.78328,-0.5537 1.13444,-0.8509 0.37812,-0.3241 0.66173,-0.5942 0.85084,-0.8103 l -28.76629,0 m 4.53778,-17.4218 0,14.0185 c -10e-6,0.135 0.0405,0.3376 0.12155,0.6077 0.10803,0.2431 0.22958,0.4862 0.36464,0.7293 0.16206,0.2431 0.32412,0.4592 0.48619,0.6483 0.18907,0.189 0.36464,0.2836 0.52671,0.2836 l 16.28739,0 1.33702,-1.1345 0,-4.9429 c 1.45855,-0.2161 2.67403,-0.7698 3.64644,-1.6612 0.97235,-0.8913 1.45854,-2.1068 1.45857,-3.6464 -3e-5,-0.4862 -0.0946,-1.0129 -0.28361,-1.5801 -0.1621,-0.5942 -0.40519,-1.1344 -0.72929,-1.6206 -0.32415,-0.4862 -0.72931,-0.8914 -1.21548,-1.2155 -0.4592,-0.3241 -0.98591,-0.4862 -1.58012,-0.4862 l -20.42001,0 m 6.23945,3.4033 0.20258,0 c 0.054,0.027 0.17555,0.095 0.36464,0.2026 0.18906,0.081 0.31061,0.1351 0.36464,0.1621 l 6.07739,0 0.7698,0.7698 0,7.2118 -0.40516,0.3646 -0.93186,-0.7698 0,-5.4291 c -0.10806,0 -0.27013,-0.027 -0.4862,-0.081 -0.2161,-0.081 -0.43218,-0.1351 -0.64825,-0.1621 -0.18909,-0.027 -0.36466,0.014 -0.52671,0.1216 -0.16208,0.108 -0.24311,0.3241 -0.24309,0.6482 l 0,5.3076 c -2e-5,0.027 -0.081,0.081 -0.2431,0.1621 -0.13507,0.081 -0.24311,0.1485 -0.32412,0.2025 l -0.16207,0 -0.20258,0 c -0.081,-0.054 -0.20259,-0.1215 -0.36464,-0.2025 -0.13507,-0.081 -0.20259,-0.1351 -0.20258,-0.1621 l 0,-5.6722 -0.97238,-0.7698 c -0.027,0.027 -0.10806,0.108 -0.2431,0.2431 -0.13506,0.135 -0.28362,0.2836 -0.44567,0.4456 -0.16208,0.1621 -0.31064,0.3242 -0.44568,0.4862 -0.10805,0.1621 -0.16207,0.2701 -0.16206,0.3242 l 0,4.9429 c -1e-5,0.054 -0.081,0.1351 -0.2431,0.2431 -0.13506,0.081 -0.2431,0.1215 -0.32412,0.1215 -0.13507,0 -0.29713,-0.04 -0.48619,-0.1215 -0.18909,-0.108 -0.28363,-0.1891 -0.28362,-0.2431 l 0,-7.9816 c -1e-5,-0.027 0.0405,-0.081 0.12155,-0.1621 0.10803,-0.081 0.18906,-0.1485 0.2431,-0.2026 l 0.20258,0 m 13.04612,-2.2689 c 0.054,0 0.17554,0 0.36464,0 0.21606,-0.027 0.35111,-0.041 0.40516,-0.041 0.51318,0 0.97236,0.1216 1.37754,0.3647 0.43214,0.2431 0.79679,0.5537 1.09393,0.9318 0.29709,0.3782 0.52668,0.8104 0.68877,1.2965 0.16204,0.4592 0.24307,0.9319 0.2431,1.4181 -3e-5,0.5402 -0.12158,1.0534 -0.36465,1.5396 -0.24312,0.4862 -0.56725,0.9184 -0.97238,1.2965 -0.37817,0.3512 -0.82385,0.6483 -1.33702,0.8914 -0.48622,0.216 -0.98592,0.3241 -1.49909,0.3241 l 0,-8.0222"
         style=""
         id="path3922" />
    </g>
  </g>
</svg>
