<?xml version="1.0" encoding="UTF-8" standalone="no"?>
<!-- Created with Inkscape (http://www.inkscape.org/) -->

<svg
   xmlns:dc="http://purl.org/dc/elements/1.1/"
   xmlns:cc="http://creativecommons.org/ns#"
   xmlns:rdf="http://www.w3.org/1999/02/22-rdf-syntax-ns#"
   xmlns:svg="http://www.w3.org/2000/svg"
   xmlns="http://www.w3.org/2000/svg"
   xmlns:sodipodi="http://sodipodi.sourceforge.net/DTD/sodipodi-0.dtd"
   xmlns:inkscape="http://www.inkscape.org/namespaces/inkscape"
   width="440"
   height="320"
   id="svg3138"
   version="1.1"
   inkscape:version="0.48.2 r9819"
   sodipodi:docname="logo2.svg">
  <defs
     id="defs3140" />
  <sodipodi:namedview
     id="base"
     pagecolor="#ffffff"
     bordercolor="#666666"
     borderopacity="1.0"
     inkscape:pageopacity="0.0"
     inkscape:pageshadow="2"
     inkscape:zoom="1"
     inkscape:cx="171.09202"
     inkscape:cy="202.64837"
     inkscape:document-units="px"
     inkscape:current-layer="layer1"
     showgrid="false"
     inkscape:window-width="1232"
     inkscape:window-height="761"
     inkscape:window-x="55"
     inkscape:window-y="0"
     inkscape:window-maximized="0" />
  <metadata
     id="metadata3143">
    <rdf:RDF>
      <cc:Work
         rdf:about="">
        <dc:format>image/svg+xml</dc:format>
        <dc:type
           rdf:resource="http://purl.org/dc/dcmitype/StillImage" />
        <dc:title></dc:title>
      </cc:Work>
    </rdf:RDF>
  </metadata>
  <g
     inkscape:label="Layer 1"
     inkscape:groupmode="layer"
     id="layer1"
     transform="translate(0,-732.36218)">
    <flowRoot
       xml:space="preserve"
       id="flowRoot3146"
       style="font-size:40px;font-style:normal;font-weight:normal;line-height:125%;letter-spacing:0px;word-spacing:0px;fill:#000000;fill-opacity:1;stroke:none;font-family:Sans"><flowRegion
         id="flowRegion3148"><rect
           id="rect3150"
           width="340"
           height="171.42857"
           x="114.28571"
           y="318.07648" /></flowRegion><flowPara
         id="flowPara3152"></flowPara></flowRoot>    <flowRoot
       xml:space="preserve"
       id="flowRoot3175"
       style="font-size:40px;font-style:normal;font-weight:normal;line-height:125%;letter-spacing:0px;word-spacing:0px;fill:#000000;fill-opacity:1;stroke:none;font-family:Sans"><flowRegion
         id="flowRegion3177"><rect
           id="rect3179"
           width="274.28571"
           height="265.71429"
           x="31.428572"
           y="183.79076" /></flowRegion><flowPara
         id="flowPara3181"></flowPara></flowRoot>    <path
       style="font-size:194.62042235999999207px;font-style:normal;font-variant:normal;font-weight:normal;font-stretch:normal;line-height:125%;letter-spacing:0px;word-spacing:0px;fill:#ff3a00;fill-opacity:1;stroke:none;font-family:Cheeseburger;-inkscape-font-specification:Cheeseburger"
       d="m 70.53125,747.92468 c -14.012726,1.2e-4 -26.534053,3.90279 -37.5625,11.6875 -15.310157,11.02858 -22.76425,27.74135 -22.375,50.1875 0.259484,17.25638 4.219916,30.30223 11.875,39.125 6.746813,7.91457 15.569969,11.875 26.46875,11.875 8.044255,0 16.138378,-2.1246 24.3125,-6.40625 8.173977,-4.28164 15.19255,-10.0779 21.03125,-17.34375 1.427122,-1.68668 2.124904,-6.86942 2.125,-15.5625 -9.6e-5,-16.4778 -1.63142,-28.2701 -4.875,-35.40625 -0.519078,-1.0379 -3.225953,-1.56242 -8.15625,-1.5625 -6.487423,8e-5 -12.776963,0.78686 -18.875,2.34375 -7.136139,1.68678 -11.154324,3.86914 -12.0625,6.59375 -1.167773,3.76273 -1.75005,6.87862 -1.75,9.34375 -5e-5,3.76272 1.28001,5.39404 3.875,4.875 2.854376,-0.51893 4.805716,-0.78119 5.84375,-0.78125 2.85437,6e-5 4.223433,1.31137 4.09375,3.90625 -0.12981,4.15195 -3.654722,6.53881 -10.53125,7.1875 -2.854483,0.38928 -5.619112,-0.25074 -8.34375,-1.9375 -3.373462,-2.20565 -5.06254,-5.3793 -5.0625,-9.53125 -4e-5,-2.07589 0.435481,-4.43625 1.34375,-7.03125 2.984136,-8.17399 5.722261,-13.56123 8.1875,-16.15625 4.151849,-4.67081 10.645898,-6.99991 19.46875,-7 4.151829,9e-5 9.014554,0.52461 14.59375,1.5625 1.037891,0.12983 1.562415,-1.23923 1.5625,-4.09375 -8.5e-5,-7.13599 -1.951424,-15.17236 -5.84375,-24.125 -0.519066,-1.16761 -3.63496,-1.74988 -9.34375,-1.75 z"
       id="path3980" />
    <path
       style="font-size:194.62042235999999207px;font-style:normal;font-variant:normal;font-weight:normal;font-stretch:normal;line-height:125%;letter-spacing:0px;word-spacing:0px;fill:#ff3a00;fill-opacity:1;stroke:none;font-family:Cheeseburger;-inkscape-font-specification:Cheeseburger"
       d="m 258.8125,748.26843 c -0.44853,-0.007 -0.89656,-0.009 -1.375,0.0312 -25.94944,2.59505 -46.39164,4.7509 -61.3125,6.4375 -4.02217,0.12985 -6.61354,0.65438 -7.78125,1.5625 -1.68672,1.16783 -2.53126,3.81695 -2.53125,7.96875 -1e-5,1.55706 0.1155,3.45065 0.375,5.65625 0.64872,8.43364 1.1155,13.09185 1.375,14 0.51898,2.98426 1.68353,4.46882 3.5,4.46875 1.16771,7e-5 3.55457,-0.69771 7.1875,-2.125 3.76264,-1.42714 6.70527,-2.15617 8.78125,-2.15625 4.02212,8e-5 5.88446,2.41819 5.625,7.21875 -0.38928,23.74374 -0.70929,43.71916 -0.96875,59.9375 -0.25953,3.63292 0.52726,6.28205 2.34375,7.96875 2.20566,2.07595 5.90383,3.00949 11.09375,2.75 9.86071,-0.64873 14.78119,-3.91138 14.78125,-9.75 -6e-5,-1.29746 -0.26233,-2.92878 -0.78125,-4.875 -2.98424,-12.06644 -4.46881,-25.3433 -4.46875,-39.875 -6e-5,-4.41134 0.31996,-7.93625 0.96875,-10.53125 1.03792,-5.18981 4.0383,-7.78118 8.96875,-7.78125 0.90816,7e-5 2.33498,0.14683 4.28125,0.40625 2.07588,0.12982 3.56045,0.18757 4.46875,0.1875 5.70878,-0.51891 8.88243,-0.89668 9.53125,-1.15625 3.24358,-0.90815 4.87491,-3.17951 4.875,-6.8125 -9e-5,-1.03789 0.20442,-3.57151 0.59375,-7.59375 0.38915,-4.02206 0.56241,-7.28471 0.5625,-9.75 -9e-5,-10.70402 -3.36573,-16.08858 -10.09375,-16.1875 z"
       id="path3978" />
    <path
       style="font-size:194.62042235999999207px;font-style:normal;font-variant:normal;font-weight:normal;font-stretch:normal;line-height:125%;letter-spacing:0px;word-spacing:0px;fill:#ff3a00;fill-opacity:1;stroke:none;font-family:Cheeseburger;-inkscape-font-specification:Cheeseburger"
       d="m 343.96875,748.26843 c -0.44853,-0.007 -0.92781,-0.009 -1.40625,0.0312 -25.94944,2.59505 -46.36039,4.7509 -61.28125,6.4375 -4.02217,0.12985 -6.61354,0.65438 -7.78125,1.5625 -1.68672,1.16783 -2.53126,3.81695 -2.53125,7.96875 -10e-6,1.55706 0.1155,3.45065 0.375,5.65625 0.64872,8.43364 1.1155,13.09185 1.375,14 0.51898,2.98426 1.68353,4.46882 3.5,4.46875 1.16771,7e-5 3.55457,-0.69771 7.1875,-2.125 3.76264,-1.42714 6.67402,-2.15617 8.75,-2.15625 4.02212,8e-5 5.91571,2.41819 5.65625,7.21875 -0.38928,23.74374 -0.70929,43.71916 -0.96875,59.9375 -0.25953,3.63292 0.52726,6.28205 2.34375,7.96875 2.20566,2.07595 5.90383,3.00949 11.09375,2.75 9.86071,-0.64873 14.78119,-3.91138 14.78125,-9.75 -6e-5,-1.29746 -0.26233,-2.92878 -0.78125,-4.875 -2.98424,-12.06644 -4.46881,-25.3433 -4.46875,-39.875 -6e-5,-4.41134 0.31996,-7.93625 0.96875,-10.53125 1.03792,-5.18981 4.00705,-7.78118 8.9375,-7.78125 0.90816,7e-5 2.33498,0.14683 4.28125,0.40625 2.07588,0.12982 3.5917,0.18757 4.5,0.1875 5.70878,-0.51891 8.88243,-0.89668 9.53125,-1.15625 3.24358,-0.90815 4.87491,-3.17951 4.875,-6.8125 -9e-5,-1.03789 0.17317,-3.57151 0.5625,-7.59375 0.38915,-4.02206 0.59366,-7.28471 0.59375,-9.75 -9e-5,-10.70402 -3.36573,-16.08858 -10.09375,-16.1875 z"
       id="path3976" />
    <path
       style="font-size:194.62042235999999207px;font-style:normal;font-variant:normal;font-weight:normal;font-stretch:normal;line-height:125%;letter-spacing:0px;word-spacing:0px;fill:#ff3a00;fill-opacity:1;stroke:none;font-family:Cheeseburger;-inkscape-font-specification:Cheeseburger"
       d="M 140.09375 16.71875 C 129.71396 16.71886 120.8908 24.31971 113.625 39.5 C 107.26739 52.99376 104.09374 67.31967 104.09375 82.5 C 104.09374 96.12346 107.20963 107.16022 113.4375 115.59375 C 119.79508 124.02731 128.24046 128.25 138.75 128.25 C 151.72464 128.25 162.20562 125.19186 170.25 119.09375 C 180.88916 110.91971 186.21866 97.87386 186.21875 79.96875 C 186.21866 61.15551 181.35593 45.66505 171.625 33.46875 C 162.67239 22.31062 152.16016 16.71886 140.09375 16.71875 z M 146.71875 66.75 C 149.83262 66.75006 151.25944 69.8082 151 75.90625 C 150.35121 79.92846 148.07985 81.93755 144.1875 81.9375 C 142.1115 81.93755 141.06245 80.36398 141.0625 77.25 C 141.06245 74.78486 141.64473 72.45576 142.8125 70.25 C 143.98017 67.91462 145.29148 66.75006 146.71875 66.75 z "
       transform="translate(0,732.36218)"
       id="path3974" />
    <path
       style="font-size:194.62042235999999207px;font-style:normal;font-variant:normal;font-weight:normal;font-stretch:normal;line-height:125%;letter-spacing:0px;word-spacing:0px;fill:#ff3a00;fill-opacity:1;stroke:none;font-family:Cheeseburger;-inkscape-font-specification:Cheeseburger"
       d="m 396.1875,750.64343 c 0.77842,1.1e-4 -0.47513,0.0579 -3.71875,0.1875 -8.30385,1.55707 -14.97116,2.92614 -20.03125,4.09375 -3.37345,0.77859 -5.79156,2.0899 -7.21875,3.90625 -1.42724,1.81656 -2.44504,5.04796 -3.09375,9.71875 -0.51901,4.67098 -2.67486,18.76588 -6.4375,42.25 -3.63293,23.48423 -5.75753,37.17011 -6.40625,41.0625 -0.38925,1.42723 -0.59376,2.64953 -0.59375,3.6875 -10e-6,1.68672 0.69777,2.79352 2.125,3.3125 0.25948,0.12975 2.35758,0.50752 6.25,1.15625 2.07593,0.2595 3.76501,0.40625 5.0625,0.40625 2.72466,0 7.44063,-1.42681 14.1875,-4.28125 3.50313,-1.55696 5.24996,-5.8374 5.25,-12.84375 0.1297,-7.00631 1.90779,-10.90899 5.28125,-11.6875 0.77843,-0.12972 1.41846,-0.18747 1.9375,-0.1875 3.63286,3e-5 5.43745,5.24052 5.4375,15.75 -5e-5,4.41141 2.00904,6.62501 6.03125,6.625 1.42715,1e-5 7.22342,-1.68907 17.34375,-5.0625 4.15182,-1.4272 6.48093,-2.27174 7,-2.53125 1.42713,-0.90821 2.12491,-2.45053 2.125,-4.65625 -9e-5,-1.68669 -0.37786,-4.36706 -1.15625,-8 -3.3735,-15.0506 -10.44983,-39.56873 -21.21875,-73.5625 -2.07601,-6.22774 -4.78289,-9.34364 -8.15625,-9.34375 z"
       id="path3972" />
    <path
       style="font-size:194.62042235999999207px;font-style:normal;font-variant:normal;font-weight:normal;font-stretch:normal;line-height:125%;letter-spacing:0px;word-spacing:0px;fill:#ff3a00;fill-opacity:1;stroke:none;font-family:Cheeseburger;-inkscape-font-specification:Cheeseburger"
       d="m 384.09375,793.08093 c 0.90818,-0.12968 2.16174,2.14168 3.71875,6.8125 1.55691,4.15196 2.40145,7.1211 2.53125,8.9375 0.51894,4.41145 -0.99688,6.88731 -4.5,7.40625 -1.94625,0.12979 -3.22631,-0.33698 -3.875,-1.375 -0.51903,-1.16767 -0.66579,-3.03001 -0.40625,-5.625 0.25945,-3.24362 0.46396,-6.56402 0.59375,-9.9375 0.3892,-4.02209 1.02923,-6.08893 1.9375,-6.21875 z"
       id="path3970" />
    <path
       style="font-size:194.62042235999999207px;font-style:normal;font-variant:normal;font-weight:normal;font-stretch:normal;line-height:125%;letter-spacing:0px;word-spacing:0px;fill:#ff3a00;fill-opacity:1;stroke:none;font-family:Cheeseburger;-inkscape-font-specification:Cheeseburger"
       d="m 396.28125,877.89343 c -1.64296,-2e-5 -3.44745,0.0163 -5.4375,0.0625 -6.84971,0.37041 -10.73075,0.65879 -11.65625,0.84375 -2.9621,0.55553 -5.46375,2.41555 -7.5,5.5625 -1.48111,2.03652 -4.91277,12.04312 -10.28125,30 -4.6282,15.73565 -8.31699,23.68998 -11.09375,23.875 -3.1472,0.18523 -5.29559,-3.15031 -6.40625,-10 -1.11083,-9.25608 -2.10572,-18.52492 -3.03125,-27.78125 -1.29595,-11.10729 -8.60865,-16.65609 -21.9375,-16.65625 -5.92402,1.6e-4 -13.33285,1.21854 -22.21875,3.625 -5.36863,1.48114 -8.99254,4.1438 -10.84375,8.03125 -1.85127,3.70262 -3.51903,10.91919 -5,21.65625 -4.443,42.39347 -7.93953,78.02696 -10.53125,106.90622 -1.29588,8.5157 6.75458,12.7813 24.15625,12.7813 9.44127,0 18.87112,-1.1872 28.3125,-3.5938 3.14704,-0.7405 4.71868,-2.985 4.71875,-6.6875 -7e-5,-3.5173 -1.95622,-10.061 -5.84375,-19.6875 -3.70254,-9.62637 -5.53131,-16.10519 -5.53125,-19.43747 -6e-5,-4.62804 2.30934,-6.96869 6.9375,-6.96875 4.81315,6e-5 9.81645,6.86338 15,20.56252 5.18338,13.6992 9.60993,20.4664 13.3125,20.2812 4.628,10e-5 8.25191,-5.4839 10.84375,-16.4062 2.77675,-10.92229 5.53553,-16.37497 8.3125,-16.37502 4.07261,-0.18507 6.47813,4.52985 7.21875,14.15622 0.185,2.2215 0.28113,10.3681 0.28125,24.4375 -1.2e-4,6.1091 3.97704,9.1563 11.9375,9.1563 2.22135,0 7.60916,-0.7378 16.125,-2.2188 6.47918,-1.1107 11.00185,-2.5862 13.59375,-4.4375 5.1833,-3.8876 8.16558,-11.008 8.90625,-21.375 0.92545,-14.80984 -0.58132,-37.96633 -4.46875,-69.43747 -3.14727,-26.28747 -5.7138,-43.4794 -7.75,-51.625 -1.29603,-4.81306 -4.63156,-7.69922 -10,-8.625 -1.80507,-0.41641 -5.19613,-0.62494 -10.125,-0.625 z"
       id="path3966" />
    <path
       style="font-size:194.62042235999999207px;font-style:normal;font-variant:normal;font-weight:normal;font-stretch:normal;line-height:125%;letter-spacing:0px;word-spacing:0px;fill:#ff3a00;fill-opacity:1;stroke:none;font-family:Cheeseburger;-inkscape-font-specification:Cheeseburger"
       d="m 198.59375,878.23718 c -14.80997,1.6e-4 -27.41435,10.84065 -37.78125,32.5 -9.07109,19.253 -13.59376,39.71559 -13.59375,61.375 -1e-5,19.43807 4.42653,35.15452 13.3125,47.18752 9.07104,12.0331 21.12991,18.0625 36.125,18.0625 18.51231,0 33.49097,-4.3617 44.96875,-13.0625 15.18004,-11.6628 22.78112,-30.26537 22.78125,-55.81252 -1.3e-4,-26.84288 -6.95958,-48.94198 -20.84375,-66.34375 -12.77365,-15.92051 -27.7523,-23.90609 -44.96875,-23.90625 z"
       id="path3964" />
    <path
       style="font-size:194.62042235999999207px;font-style:normal;font-variant:normal;font-weight:normal;font-stretch:normal;line-height:125%;letter-spacing:0px;word-spacing:0px;fill:#ff3a00;fill-opacity:1;stroke:none;font-family:Cheeseburger;-inkscape-font-specification:Cheeseburger"
       d="m 124.125,879.92468 c -0.92575,1.6e-4 -7.50069,1.66793 -19.71875,5 -7.590183,2.03652 -11.375097,5.43693 -11.375,10.25 -9.7e-5,1.29601 0.288281,3.0599 0.84375,5.28125 3.33213,16.29103 6.47541,35.72748 9.4375,58.3125 0.74039,5.92404 -0.38187,8.90632 -3.34375,8.90625 -2.221589,7e-5 -4.819366,-1.85995 -7.78125,-5.5625 -6.294305,-7.59 -20.5352,-29.07872 -42.75,-64.4375 -2.962034,-4.81308 -7.580831,-7.2186 -13.875,-7.21875 -4.628134,1.5e-4 -11.58758,2.05242 -20.84375,6.125 -2.776875,1.29601 -4.348516,3.41316 -4.71875,6.375 -1.39e-5,0.37039 -1.39e-5,3.41754 0,9.15625 -1.39e-5,9.62656 0.38449,27.68362 1.125,54.15625 0.74048,29.805 1.478238,48.50367 2.21875,56.09377 0.740478,7.405 5.359275,11.125 13.875,11.125 1.851207,0 9.260032,-1.3145 22.21875,-3.9063 3.887546,-0.7404 5.812441,-2.7615 5.8125,-6.0937 -5.9e-5,-1.6661 -0.353313,-4.0716 -1.09375,-7.2188 -1.295924,-4.2578 -2.033682,-7.1439 -2.21875,-8.625 -1.481046,-7.77514 -2.218804,-13.42007 -2.21875,-16.93747 -5.4e-5,-5.55366 1.379336,-8.69695 4.15625,-9.4375 2.776799,-0.74044 6.112333,2.30672 10,9.15625 4.442903,8.33062 8.965574,16.66942 13.59375,25.00002 6.109003,10.3669 15.473974,15.5625 28.0625,15.5625 4.99823,0 10.45091,-0.7378 16.375,-2.2188 5.92384,-1.6661 9.3555,-4.1677 10.28125,-7.5 0.18499,-0.5553 0.44212,-6.0393 0.8125,-16.4062 l 0,-114.12502 c -1.4e-4,-7.21968 -2.95117,-10.81234 -8.875,-10.8125 z"
       id="path3962" />
    <rect
       style="fill:#ffffff;fill-opacity:1;stroke:none;stroke-opacity:0.80000000000000004"
       id="rect3984"
       width="127.85714"
       height="60"
       x="141.42857"
       y="197.14285"
       transform="translate(0,732.36218)" />
    <rect
       style="fill:#ff3a00;fill-opacity:1;stroke:#ff3a00;stroke-width:22.93961334000000107;stroke-linejoin:round;stroke-miterlimit:4;stroke-opacity:1;stroke-dasharray:none"
       id="rect3986"
       width="99.189415"
       height="19.200003"
       x="153.97673"
       y="951.33362" />
    <flowRoot
       xml:space="preserve"
       id="flowRoot3991"
       style="font-size:40px;font-style:normal;font-weight:normal;line-height:125%;letter-spacing:0px;word-spacing:0px;fill:#000000;fill-opacity:1;stroke:none;font-family:Sans"
       transform="translate(0,732.36218)"><flowRegion
         id="flowRegion3993"><rect
           id="rect3995"
           width="61"
           height="41"
           x="-73"
           y="-122" /></flowRegion><flowPara
         id="flowPara3997">nom</flowPara></flowRoot>    <text
       xml:space="preserve"
       style="font-size:156.76083374px;font-style:normal;font-variant:normal;font-weight:normal;font-stretch:normal;line-height:125%;letter-spacing:0px;word-spacing:0px;fill:#000000;fill-opacity:1;stroke:none;font-family:Cheeseburger;-inkscape-font-specification:Cheeseburger"
       x="41.629002"
       y="693.79907"
       id="text3999"
       sodipodi:linespacing="125%"><tspan
         sodipodi:role="line"
         id="tspan4001"
         x="41.629002"
         y="693.79907">nom</tspan></text>
  </g>
</svg>
