<?xml version="1.0" encoding="UTF-8" standalone="no"?>
<!-- Created with Inkscape (http://www.inkscape.org/) -->

<svg
   xmlns:dc="http://purl.org/dc/elements/1.1/"
   xmlns:cc="http://creativecommons.org/ns#"
   xmlns:rdf="http://www.w3.org/1999/02/22-rdf-syntax-ns#"
   xmlns:svg="http://www.w3.org/2000/svg"
   xmlns="http://www.w3.org/2000/svg"
   xmlns:sodipodi="http://sodipodi.sourceforge.net/DTD/sodipodi-0.dtd"
   xmlns:inkscape="http://www.inkscape.org/namespaces/inkscape"
   width="440"
   height="320"
   id="svg3138"
   version="1.1"
   inkscape:version="0.48.2 r9819"
   sodipodi:docname="logo2.svg">
  <defs
     id="defs3140" />
  <sodipodi:namedview
     id="base"
     pagecolor="#ffffff"
     bordercolor="#666666"
     borderopacity="1.0"
     inkscape:pageopacity="0.0"
     inkscape:pageshadow="2"
     inkscape:zoom="0.84659091"
     inkscape:cx="220"
     inkscape:cy="152.25027"
     inkscape:document-units="px"
     inkscape:current-layer="layer1"
     showgrid="false"
     inkscape:window-width="1232"
     inkscape:window-height="761"
     inkscape:window-x="55"
     inkscape:window-y="0"
     inkscape:window-maximized="0" />
  <metadata
     id="metadata3143">
    <rdf:RDF>
      <cc:Work
         rdf:about="">
        <dc:format>image/svg+xml</dc:format>
        <dc:type
           rdf:resource="http://purl.org/dc/dcmitype/StillImage" />
        <dc:title></dc:title>
      </cc:Work>
    </rdf:RDF>
  </metadata>
  <g
     inkscape:label="Layer 1"
     inkscape:groupmode="layer"
     id="layer1"
     transform="translate(0,-732.36218)">
    <flowRoot
       xml:space="preserve"
       id="flowRoot3146"
       style="font-size:40px;font-style:normal;font-weight:normal;line-height:125%;letter-spacing:0px;word-spacing:0px;fill:#000000;fill-opacity:1;stroke:none;font-family:Sans"><flowRegion
         id="flowRegion3148"><rect
           id="rect3150"
           width="340"
           height="171.42857"
           x="114.28571"
           y="318.07648" /></flowRegion><flowPara
         id="flowPara3152"></flowPara></flowRoot>    <flowRoot
       xml:space="preserve"
       id="flowRoot3175"
       style="font-size:40px;font-style:normal;font-weight:normal;line-height:125%;letter-spacing:0px;word-spacing:0px;fill:#000000;fill-opacity:1;stroke:none;font-family:Sans"><flowRegion
         id="flowRegion3177"><rect
           id="rect3179"
           width="274.28571"
           height="265.71429"
           x="31.428572"
           y="183.79076" /></flowRegion><flowPara
         id="flowPara3181"></flowPara></flowRoot>    <flowRoot
       xml:space="preserve"
       id="flowRoot3991"
       style="font-size:40px;font-style:normal;font-weight:normal;line-height:125%;letter-spacing:0px;word-spacing:0px;fill:#000000;fill-opacity:1;stroke:none;font-family:Sans"
       transform="translate(0,732.36218)"><flowRegion
         id="flowRegion3993"><rect
           id="rect3995"
           width="61"
           height="41"
           x="-73"
           y="-122" /></flowRegion><flowPara
         id="flowPara3997">nom</flowPara></flowRoot>    <path
       style="font-size:264.67114257999998017px;font-style:normal;font-variant:normal;font-weight:normal;font-stretch:normal;line-height:125%;letter-spacing:0px;word-spacing:0px;fill:#ff3a00;fill-opacity:1;stroke:none;font-family:Cheeseburger;-inkscape-font-specification:Cheeseburger"
       d="m 70.53125,757.92468 c -14.012726,1.2e-4 -26.534053,3.90279 -37.5625,11.6875 -15.310157,11.02858 -22.764251,27.74135 -22.375,50.1875 0.259484,17.25638 4.219916,30.30223 11.875,39.125 6.746813,7.91457 15.569969,11.875 26.46875,11.875 8.044254,0 16.138378,-2.1246 24.3125,-6.40625 8.173977,-4.28164 15.192549,-10.0779 21.03125,-17.34375 1.427121,-1.68668 2.124904,-6.86942 2.125,-15.5625 -9.6e-5,-16.4778 -1.631421,-28.2701 -4.875,-35.40625 -0.519078,-1.0379 -3.225954,-1.56242 -8.15625,-1.5625 -6.487424,8e-5 -12.776964,0.78686 -18.875,2.34375 -7.136139,1.68678 -11.154324,3.86914 -12.0625,6.59375 -1.167773,3.76273 -1.75005,6.87862 -1.75,9.34375 -5e-5,3.76272 1.28001,5.39404 3.875,4.875 2.854376,-0.51893 4.805716,-0.78119 5.84375,-0.78125 2.85437,6e-5 4.223433,1.31137 4.09375,3.90625 -0.129811,4.15195 -3.654722,6.53881 -10.53125,7.1875 -2.854484,0.38928 -5.619112,-0.25074 -8.34375,-1.9375 -3.373462,-2.20565 -5.06254,-5.3793 -5.0625,-9.53125 -4e-5,-2.07589 0.435481,-4.43625 1.34375,-7.03125 2.984135,-8.17399 5.722261,-13.56123 8.1875,-16.15625 4.151849,-4.67081 10.645897,-6.99991 19.46875,-7 4.151829,9e-5 9.014553,0.52461 14.59375,1.5625 1.037891,0.12983 1.562415,-1.23923 1.5625,-4.09375 -8.5e-5,-7.13599 -1.951425,-15.17236 -5.84375,-24.125 -0.519067,-1.16761 -3.63496,-1.74988 -9.34375,-1.75 z"
       id="path4632" />
    <path
       style="font-size:264.67114257999998017px;font-style:normal;font-variant:normal;font-weight:normal;font-stretch:normal;line-height:125%;letter-spacing:0px;word-spacing:0px;fill:#ff3a00;fill-opacity:1;stroke:none;font-family:Cheeseburger;-inkscape-font-specification:Cheeseburger"
       d="m 263,758.26843 c -0.44853,-0.007 -0.92781,-0.009 -1.40625,0.0312 -25.94944,2.59505 -46.39164,4.7509 -61.3125,6.4375 -4.02217,0.12985 -6.61354,0.65438 -7.78125,1.5625 -1.68672,1.16783 -2.53126,3.81695 -2.53125,7.96875 -1e-5,1.55706 0.14675,3.45065 0.40625,5.65625 0.64872,8.43364 1.08425,13.09185 1.34375,14 0.51898,2.98426 1.71478,4.46882 3.53125,4.46875 1.16771,7e-5 3.55457,-0.69771 7.1875,-2.125 3.76264,-1.42714 6.67402,-2.15617 8.75,-2.15625 4.02212,8e-5 5.91571,2.41819 5.65625,7.21875 -0.38928,23.74374 -0.70929,43.71916 -0.96875,59.9375 -0.25953,3.63292 0.49601,6.28205 2.3125,7.96875 2.20566,2.07595 5.90383,3.00949 11.09375,2.75 9.86071,-0.64873 14.81244,-3.91138 14.8125,-9.75 -6e-5,-1.29746 -0.26233,-2.92878 -0.78125,-4.875 -2.98424,-12.06644 -4.46881,-25.3433 -4.46875,-39.875 -6e-5,-4.41134 0.31996,-7.93625 0.96875,-10.53125 1.03792,-5.18981 4.00705,-7.78118 8.9375,-7.78125 0.90816,7e-5 2.33498,0.14683 4.28125,0.40625 2.07588,0.12982 3.56045,0.18757 4.46875,0.1875 5.70878,-0.51891 8.91368,-0.89668 9.5625,-1.15625 3.24358,-0.90815 4.84366,-3.17951 4.84375,-6.8125 -9e-5,-1.03789 0.20442,-3.57151 0.59375,-7.59375 0.38915,-4.02206 0.59366,-7.28471 0.59375,-9.75 -9e-5,-10.70402 -3.36573,-16.08858 -10.09375,-16.1875 z"
       id="path4630" />
    <path
       style="font-size:264.67114257999998017px;font-style:normal;font-variant:normal;font-weight:normal;font-stretch:normal;line-height:125%;letter-spacing:0px;word-spacing:0px;fill:#ff3a00;fill-opacity:1;stroke:none;font-family:Cheeseburger;-inkscape-font-specification:Cheeseburger"
       d="m 348.125,758.26843 c -0.44853,-0.007 -0.89656,-0.009 -1.375,0.0312 -25.94944,2.59505 -46.39164,4.7509 -61.3125,6.4375 -4.02217,0.12985 -6.61354,0.65438 -7.78125,1.5625 -1.68672,1.16783 -2.53126,3.81695 -2.53125,7.96875 -10e-6,1.55706 0.14675,3.45065 0.40625,5.65625 0.64872,8.43364 1.08425,13.09185 1.34375,14 0.51898,2.98426 1.68353,4.46882 3.5,4.46875 1.16771,7e-5 3.58582,-0.69771 7.21875,-2.125 3.76264,-1.42714 6.67402,-2.15617 8.75,-2.15625 4.02212,8e-5 5.91571,2.41819 5.65625,7.21875 -0.38928,23.74374 -0.74054,43.71916 -1,59.9375 -0.25953,3.63292 0.52726,6.28205 2.34375,7.96875 2.20566,2.07595 5.90383,3.00949 11.09375,2.75 9.86071,-0.64873 14.78119,-3.91138 14.78125,-9.75 -6e-5,-1.29746 -0.23108,-2.92878 -0.75,-4.875 -2.98424,-12.06644 -4.50006,-25.3433 -4.5,-39.875 -6e-5,-4.41134 0.31996,-7.93625 0.96875,-10.53125 1.03792,-5.18981 4.0383,-7.78118 8.96875,-7.78125 0.90816,7e-5 2.33498,0.14683 4.28125,0.40625 2.07588,0.12982 3.56045,0.18757 4.46875,0.1875 5.70878,-0.51891 8.88243,-0.89668 9.53125,-1.15625 3.24358,-0.90815 4.87491,-3.17951 4.875,-6.8125 -9e-5,-1.03789 0.20442,-3.57151 0.59375,-7.59375 0.38915,-4.02206 0.56241,-7.28471 0.5625,-9.75 -9e-5,-10.70402 -3.36573,-16.08858 -10.09375,-16.1875 z"
       id="path4628" />
    <path
       style="font-size:264.67114257999998017px;font-style:normal;font-variant:normal;font-weight:normal;font-stretch:normal;line-height:125%;letter-spacing:0px;word-spacing:0px;fill:#ff3a00;fill-opacity:1;stroke:none;font-family:Cheeseburger;-inkscape-font-specification:Cheeseburger"
       d="M 136.96875 29.84375 C 129.57314 29.84386 122.90583 32.63974 116.9375 38.21875 C 108.11469 46.52265 103.71874 59.5685 103.71875 77.34375 C 103.71874 96.1571 108.3192 110.59852 117.53125 120.71875 C 125.18629 129.02257 134.12495 133.18751 144.375 133.1875 C 152.41925 133.18751 160.45562 129.7516 168.5 122.875 C 181.08537 112.23578 187.37491 96.07403 187.375 74.40625 C 187.37491 54.03607 180.06757 40.61245 165.40625 34.125 C 158.91884 31.27068 149.4244 29.84386 136.96875 29.84375 z M 150.40625 62.75 C 153.64986 62.75008 155.28119 65.51471 155.28125 71.09375 C 155.28119 73.42926 155.01893 75.32285 154.5 76.75 C 153.33222 79.47475 151.52763 80.84381 149.0625 80.84375 C 147.37574 80.84381 146.06443 79.5325 145.15625 76.9375 C 144.37772 74.99136 143.99995 72.98227 144 70.90625 C 143.99995 65.45695 146.12455 62.75008 150.40625 62.75 z "
       transform="translate(0,732.36218)"
       id="path4626" />
    <path
       style="font-size:264.67114257999998017px;font-style:normal;font-variant:normal;font-weight:normal;font-stretch:normal;line-height:125%;letter-spacing:0px;word-spacing:0px;fill:#ff3a00;fill-opacity:1;stroke:none;font-family:Cheeseburger;-inkscape-font-specification:Cheeseburger"
       d="M 394.1875 33.15625 C 384.58618 33.15636 374.65622 35.36996 364.40625 39.78125 C 363.88724 39.9111 363.71398 40.23111 363.84375 40.75 L 367.71875 66.625 C 367.71872 67.14406 368.18549 67.40632 369.09375 67.40625 C 369.61271 67.40632 371.30179 67.08631 374.15625 66.4375 C 377.14039 65.65909 379.52725 65.28132 381.34375 65.28125 C 385.23611 65.28132 387.97424 66.82365 389.53125 69.9375 C 390.69892 72.14327 391.01894 74.93914 390.5 78.3125 C 377.91451 79.86952 367.8378 84.09222 360.3125 90.96875 C 353.30615 97.32639 349.81249 104.46047 349.8125 112.375 C 349.81249 115.35921 350.33701 118.21284 351.375 120.9375 C 354.22942 128.59258 359.87893 132.40626 368.3125 132.40625 C 374.41057 132.40626 380.06008 130.86394 385.25 127.75 C 391.99679 123.85761 397.23728 121.84852 401 121.71875 C 400.87019 122.49725 400.60793 124.35959 400.21875 127.34375 C 400.08894 129.28997 400.03119 130.65903 400.03125 131.4375 C 400.16094 132.47548 400.53871 132.94225 401.1875 132.8125 L 424.5625 129.09375 C 425.0814 128.96401 425.34367 128.644 425.34375 128.125 L 427.65625 77.90625 C 429.21312 48.06454 418.06086 33.15636 394.1875 33.15625 z M 393.21875 90.96875 C 393.86743 96.67766 392.90739 101.59814 390.3125 105.75 C 388.10675 109.2532 385.48413 111.00003 382.5 111 C 381.20249 111.00003 379.98018 110.41775 378.8125 109.25 C 377.77449 108.08231 377.24996 106.86 377.25 105.5625 C 377.24996 101.0214 382.57946 96.15867 393.21875 90.96875 z "
       transform="translate(0,732.36218)"
       id="path4624" />
    <path
       style="font-size:264.67114257999998017px;font-style:normal;font-variant:normal;font-weight:normal;font-stretch:normal;line-height:125%;letter-spacing:0px;word-spacing:0px;fill:#ff3a00;fill-opacity:1;stroke:none;font-family:Cheeseburger;-inkscape-font-specification:Cheeseburger"
       d="m 52.09375,894.20593 c -0.352949,1.5e-4 -4.958928,1.07028 -13.78125,3.1875 -12.351348,2.64685 -18.887982,6.32981 -19.59375,11.09375 -2.823177,21.5267 -5.362449,50.64277 -7.65625,87.34375 -0.705802,10.23397 -1.0625122,17.02257 -1.0625,20.37497 -1.22e-5,7.9402 1.426828,12.263 4.25,12.9688 2.293798,0.5293 4.83307,0.8125 7.65625,0.8125 6.528524,0 12.886803,-1.2485 19.0625,-3.7188 6.175611,-2.4702 9.071593,-4.684 8.71875,-6.625 -0.705841,-4.4111 -1.031301,-9.8776 -1.03125,-16.4062 -5.1e-5,-26.99641 6.966845,-39.42981 20.90625,-37.31252 8.116502,1.41165 12.156166,7.16132 12.15625,17.21875 -8.4e-5,4.94058 -1.038964,11.90748 -3.15625,20.90627 -2.117448,8.9988 -3.187578,14.4653 -3.1875,16.4062 -7.8e-5,1.7645 0.356632,2.8346 1.0625,3.1875 4.763997,2.1174 9.621884,3.1563 14.5625,3.1563 8.469375,0 17.36693,-3.2527 26.71875,-9.7813 2.29369,-1.588 3.43738,-5.4805 3.4375,-11.6562 -1.2e-4,-5.99919 -1.32216,-15.96687 -3.96875,-29.90627 -3.35262,-16.40953 -5.20972,-26.73392 -5.5625,-30.96875 -1.58814,-13.40989 -3.26689,-22.76896 -5.03125,-28.0625 -4.23484,-13.40987 -11.275291,-20.37676 -21.15625,-20.90625 -6.88153,-0.35275 -12.883099,1.93462 -18,6.875 -3.352567,3.17619 -6.531707,7.85572 -9.53125,14.03125 -2.470322,4.94065 -4.044266,7.43762 -4.75,7.4375 -0.35295,-0.17633 -0.531305,-0.53304 -0.53125,-1.0625 -5.5e-5,-0.88212 0.608563,-3.37909 1.84375,-7.4375 1.411521,-4.9404 2.376849,-9.26322 2.90625,-12.96875 0.882177,-5.46972 -0.870123,-8.18735 -5.28125,-8.1875 z"
       id="path4616" />
    <path
       style="font-size:264.67114257999998017px;font-style:normal;font-variant:normal;font-weight:normal;font-stretch:normal;line-height:125%;letter-spacing:0px;word-spacing:0px;fill:#ff3a00;fill-opacity:1;stroke:none;font-family:Cheeseburger;-inkscape-font-specification:Cheeseburger"
       d="m 341.78125,895.79968 c -5.65536,0.1552 -11.53581,2.6938 -17.65625,7.65625 -4.41126,3.52908 -9.16435,8.49177 -14.28125,14.84375 -4.2348,5.46999 -6.44861,8.18762 -6.625,8.1875 -0.17651,1.2e-4 -0.25006,-0.17824 -0.25,-0.53125 -0.70585,-4.23462 -1.06256,-11.73658 -1.0625,-22.5 -6e-5,-3.35236 -0.78703,-5.28301 -2.375,-5.8125 -0.5294,-0.1763 -2.4913,-0.24985 -5.84375,-0.25 -1.23518,1.5e-4 -3.27064,-0.10466 -6.09375,-0.28125 -2.8232,-0.35275 -4.93221,-0.5311 -6.34375,-0.53125 -10.58687,1.5e-4 -17.01871,5.10994 -19.3125,15.34375 -3.70541,15.70394 -5.56251,34.85232 -5.5625,57.4375 -10e-6,16.23322 0.89176,30.62853 2.65625,43.15622 1.76446,12.3514 3.69511,18.4265 5.8125,18.25 21.87944,-2.1173 32.9908,-3.1562 33.34375,-3.1562 5.46981,-0.8822 8.47059,-1.4173 9,-1.5938 2.64664,-1.4115 3.79033,-4.5907 3.4375,-9.5312 -0.17652,-3.8818 -0.25007,-7.596 -0.25,-11.125 -7e-5,-25.05549 6.17986,-37.7408 18.53125,-38.09377 5.29333,8e-5 8.79793,5.79204 10.5625,17.4375 1.05859,7.41084 1.5201,18.01837 1.34375,31.78127 -0.17655,9.7046 3.18095,14.5625 10.0625,14.5625 1.23502,0 2.98732,-0.1048 5.28125,-0.2813 2.2937,-0.3528 3.97245,-0.5312 5.03125,-0.5312 5.46975,-0.1765 8.18737,-6.6818 8.1875,-19.5625 -1.3e-4,-26.46708 4.24914,-39.54034 12.71875,-39.18752 7.2342,0.35297 10.8436,5.99782 10.84375,16.9375 -1.5e-4,9.70465 -2.18271,20.81602 -6.59375,33.34372 -0.35304,0.7058 -0.53139,1.4193 -0.53125,2.125 -1.4e-4,2.6468 2.10887,3.9688 6.34375,3.9688 3.70524,0 8.27997,-0.8918 13.75,-2.6563 5.4697,-1.2351 10.86265,-2.6307 16.15625,-4.2187 5.29324,-1.7645 7.93731,-5.1955 7.9375,-10.3125 -1.9e-4,-31.0547 -4.67972,-57.6315 -14.03125,-79.68752 -8.29319,-19.58553 -16.76048,-29.01815 -25.40625,-28.3125 -6.1758,0.35303 -12.25092,3.35382 -18.25,9 -2.47039,2.29395 -4.86256,5.01157 -7.15625,8.1875 -1.4117,-15.70368 -8.80886,-23.70946 -22.21875,-24.0625 -0.37496,-0.011 -0.77923,-0.0104 -1.15625,0 z"
       id="path4614" />
    <path
       sodipodi:type="arc"
       style="fill:#ff3a00;fill-opacity:1;stroke:none"
       id="path4713"
       sodipodi:cx="189.5"
       sodipodi:cy="256.5"
       sodipodi:rx="37.5"
       sodipodi:ry="23.5"
       d="m 227,256.5 a 37.5,23.5 0 1 1 -75,0 l 37.5,0 z"
       transform="matrix(1.6,0,0,1.2765957,-115.70001,668.16539)"
       sodipodi:start="0"
       sodipodi:end="3.1415927" />
    <path
       sodipodi:type="arc"
       style="fill:#ff3a00;fill-opacity:1;stroke:none"
       id="path4717"
       sodipodi:cx="176.5"
       sodipodi:cy="184.5"
       sodipodi:rx="46.5"
       sodipodi:ry="24.5"
       d="m 130,184.5 a 46.5,24.5 0 0 1 93,0 l -46.5,0 z"
       transform="matrix(1.2903226,0,0,1.6326531,-40.241938,638.38769)"
       sodipodi:start="3.1415927"
       sodipodi:end="6.2831853" />
    <rect
       style="fill:#ff3a00;fill-opacity:1;stroke:#ff3a00;stroke-width:16.7654705;stroke-linejoin:round;stroke-miterlimit:4;stroke-opacity:1;stroke-dasharray:none"
       id="rect4721"
       width="112.0095"
       height="4.3761439"
       x="131.28084"
       y="977.96863" />
    <rect
       y="952.96863"
       x="131.28084"
       height="4.3761439"
       width="112.0095"
       id="rect4723"
       style="fill:#ff3a00;fill-opacity:1;stroke:#ff3a00;stroke-width:16.7654705;stroke-linejoin:round;stroke-miterlimit:4;stroke-opacity:1;stroke-dasharray:none" />
  </g>
</svg>
